SplineFontDB: 3.0
FontName: Quicksand-BoldItalic
FullName: Quicksand Bold Italic
FamilyName: Quicksand
Weight: Bold
Copyright: Copyright (c) 2011, Andrew Paglinawan (www.andrewpaglinawan.com), with Reserved Font Name "Quicksand".
Version: 001.001
ItalicAngle: -12
UnderlinePosition: -50
UnderlineWidth: 50
Ascent: 800
Descent: 200
LayerCount: 2
Layer: 0 0 "Back"  1
Layer: 1 0 "Fore"  0
NeedsXUIDChange: 1
FSType: 0
OS2Version: 0
OS2_WeightWidthSlopeOnly: 0
OS2_UseTypoMetrics: 0
CreationTime: 1318372931
ModificationTime: 1318373198
OS2TypoAscent: 0
OS2TypoAOffset: 1
OS2TypoDescent: 0
OS2TypoDOffset: 1
OS2TypoLinegap: 0
OS2WinAscent: 0
OS2WinAOffset: 1
OS2WinDescent: 0
OS2WinDOffset: 1
HheadAscent: 0
HheadAOffset: 1
HheadDescent: 0
HheadDOffset: 1
OS2Vendor: 'PfEd'
MarkAttachClasses: 1
DEI: 91125
GaspTable: 1 65535 15
Encoding: Custom
UnicodeInterp: none
NameList: Adobe Glyph List
DisplaySize: -48
AntiAlias: 1
FitToEm: 1
WinInfo: 25 25 10
BeginPrivate: 7
StdHW 5 [111]
StemSnapH 9 [85 111 ]
StdVW 5 [140]
StemSnapV 37 [20 32 33 38 72 76 81 98 99 138 140 ]
BlueValues 21 [0 0 521 531 700 700]
OtherBlues 11 [-180 -180]
ForceBold 4 true
EndPrivate
BeginChars: 275 186

StartChar: B
Encoding: 66 66 0
Width: 594
Flags: MW
HStem: -1 111<147.333 355 230 336> 317 111<286 372 372 383 286 392 267 372> 588 111<315 400 315 315>
LayerCount: 2
Fore
SplineSet
155 -1 m 2
 139.666992188 -1 127.666992188 4.5 119 15.5 c 0
 110.333007812 26.5 107.333007812 39.3330078125 110 54 c 2
 214 644 l 2
 216.666992188 659.333007812 224.333007812 672.333007812 237 683 c 0
 249.666992188 693.666992188 263.666992188 699 279 699 c 2
 420 699 l 2
 472.666992188 699 514.166992188 680.333007812 544.5 643 c 0
 574.833007812 605.666992188 585.666992188 560.666992188 577 508 c 0
 569 465.333007812 549.666992188 427.666992188 519 395 c 1
 546.333007812 375.666992188 566.333007812 350 579 318 c 0
 591.666992188 286 594.666992188 251 588 213 c 0
 577.333007812 153.666992188 547.333007812 103.166992188 498 61.5 c 0
 448.666992188 19.8330078125 394.666992188 -1 336 -1 c 2
 155 -1 l 2
355 110 m 2
 383.666992188 110 410 120 434 140 c 0
 458 160 472.333007812 184.333007812 477 213 c 0
 482.333007812 241.666992188 476.666992188 266.166992188 460 286.5 c 0
 443.333007812 306.833007812 420.666992188 317 392 317 c 2
 267 317 l 1
 230 110 l 1
 355 110 l 2
466 508 m 0
 470 530 465.5 548.833007812 452.5 564.5 c 0
 439.5 580.166992188 422 588 400 588 c 2
 315 588 l 1
 286 428 l 1
 372 428 l 2
 394 428 414.166992188 435.833007812 432.5 451.5 c 0
 450.833007812 467.166992188 462 486 466 508 c 0
EndSplineSet
EndChar

StartChar: C
Encoding: 67 67 1
Width: 719
Flags: MW
HStem: 0 111<383.667 446> 589 111<477.667 530.333>
LayerCount: 2
Fore
SplineSet
404 0 m 0
 305.333007812 0 227 34 169 102 c 0
 111 170 90.5 252.5 107.5 349.5 c 0
 124.5 446.5 174 529.166992188 256 597.5 c 0
 338 665.833007812 428.333007812 700 527 700 c 0
 611.666992188 700 681.333007812 674.666992188 736 624 c 0
 746.666992188 614.666992188 751.5 602.333007812 750.5 587 c 0
 749.5 571.666992188 743.333007812 558 732 546 c 0
 720.666992188 534 707.333007812 527.166992188 692 525.5 c 0
 676.666992188 523.833007812 663.666992188 527.666992188 653 537 c 0
 613 571.666992188 561.666992188 589 499 589 c 0
 436.333007812 589 376.5 565.5 319.5 518.5 c 0
 262.5 471.5 228.666992188 415.333007812 218 350 c 1
 206 284.666992188 220 228.5 260 181.5 c 0
 300 134.5 351.833007812 111 415.5 111 c 0
 479.166992188 111 536.333007812 128.333007812 587 163 c 0
 600.333007812 172.333007812 614.5 176 629.5 174 c 0
 644.5 172 655.666992188 165 663 153 c 0
 670.333007812 141 671.666992188 127.333007812 667 112 c 0
 662.333007812 96.6669921875 653 84.6669921875 639 76 c 0
 566.333007812 25.3330078125 488 0 404 0 c 0
EndSplineSet
EndChar

StartChar: D
Encoding: 68 68 2
Width: 719
Flags: MW
HStem: 0 111<147.333 293 230 273> 590 110<314 377 314 314>
LayerCount: 2
Fore
SplineSet
155 0 m 2
 139.666992188 0 127.666992188 5.5 119 16.5 c 0
 110.333007812 27.5 107.333007812 40.6669921875 110 56 c 2
 213 645 l 2
 215.666992188 660.333007812 223.5 673.333007812 236.5 684 c 0
 249.5 694.666992188 263.666992188 700 279 700 c 2
 397 700 l 2
 493.666992188 700 570 665.833007812 626 597.5 c 0
 682 529.166992188 701.666992188 446.666992188 685 350 c 0
 673.666992188 286.666992188 647.666992188 228.166992188 607 174.5 c 0
 566.333007812 120.833007812 516.333007812 78.3330078125 457 47 c 0
 397.666992188 15.6669921875 336.333007812 0 273 0 c 2
 155 0 l 2
474.5 181 m 0
 529.5 227.666992188 562.666992188 284.166992188 574 350.5 c 0
 585.333007812 416.833007812 571.833007812 473.166992188 533.5 519.5 c 0
 495.166992188 565.833007812 443 589.333007812 377 590 c 2
 314 590 l 1
 230 111 l 1
 293 111 l 2
 359 111 419.5 134.333007812 474.5 181 c 0
EndSplineSet
EndChar

StartChar: E
Encoding: 69 69 3
Width: 593
Flags: MW
HStem: -2 111<147.333 500 229 481> 293 110<281 495 262 515> 587 111<314 585 314 314>
LayerCount: 2
Fore
SplineSet
155 -2 m 2
 139.666992188 -2 127.5 3.3330078125 118.5 14 c 0
 109.5 24.6669921875 106.333007812 37.6669921875 109 53 c 2
 213 643 l 2
 215.666992188 658.333007812 223.333007812 671.333007812 236 682 c 0
 248.666992188 692.666992188 262.666992188 698 278 698 c 2
 604 698 l 2
 619.333007812 698 631.5 692.666992188 640.5 682 c 0
 649.5 671.333007812 652.5 658.333007812 649.5 643 c 0
 646.5 627.666992188 638.666992188 614.5 626 603.5 c 0
 613.333007812 592.5 599.666992188 587 585 587 c 2
 314 587 l 1
 281 403 l 1
 515 403 l 2
 530.333007812 403 542.333007812 397.666992188 551 387 c 0
 559.666992188 376.333007812 562.666992188 363.333007812 560 348 c 0
 557.333007812 332.666992188 549.666992188 319.666992188 537 309 c 0
 524.333007812 298.333007812 510.333007812 293 495 293 c 2
 262 293 l 1
 229 109 l 1
 500 109 l 2
 515.333007812 109 527.5 103.5 536.5 92.5 c 0
 545.5 81.5 548.5 68.3330078125 545.5 53 c 0
 542.5 37.6669921875 534.666992188 24.6669921875 522 14 c 0
 509.333007812 3.3330078125 495.666992188 -2 481 -2 c 2
 155 -2 l 2
EndSplineSet
EndChar

StartChar: F
Encoding: 70 70 4
Width: 600
Flags: MW
HStem: 0 21G<147.333 162.667> 295 110<282 496 263 515> 589 111<315 585 315 315>
LayerCount: 2
Fore
SplineSet
155 0 m 0
 139.666992188 0 127.666992188 5.5 119 16.5 c 0
 110.333007812 27.5 107.333007812 40.3330078125 110 55 c 2
 214 645 l 2
 216.666992188 660.333007812 224.333007812 673.333007812 237 684 c 0
 249.666992188 694.666992188 263.666992188 700 279 700 c 2
 605 700 l 2
 620.333007812 700 632.333007812 694.5 641 683.5 c 0
 649.666992188 672.5 652.666992188 659.5 650 644.5 c 0
 647.333007812 629.5 639.666992188 616.5 627 605.5 c 0
 614.333007812 594.5 600.333007812 589 585 589 c 2
 315 589 l 1
 282 405 l 1
 515 405 l 2
 530.333007812 405 542.5 399.666992188 551.5 389 c 0
 560.5 378.333007812 563.666992188 365.333007812 561 350 c 0
 558.333007812 334.666992188 550.666992188 321.666992188 538 311 c 0
 525.333007812 300.333007812 511.333007812 295 496 295 c 2
 263 295 l 1
 220 55 l 2
 217.333007812 39.6669921875 209.666992188 26.6669921875 197 16 c 0
 184.333007812 5.3330078125 170.333007812 0 155 0 c 0
EndSplineSet
EndChar

StartChar: G
Encoding: 71 71 5
Width: 800
Flags: MW
HStem: 1 111<403 403 403 404> 283 110<440.333 661 468 587> 591 110<477.667 531>
LayerCount: 2
Fore
SplineSet
403 1 m 2
 304.333007812 1.6669921875 226.166992188 36 168.5 104 c 0
 110.833007812 172 90.5 254.5 107.5 351.5 c 0
 124.5 448.5 174 531 256 599 c 0
 338 667 428.333007812 701 527 701 c 0
 611.666992188 701 681.333007812 675.666992188 736 625 c 0
 746.666992188 615.666992188 751.5 603.5 750.5 588.5 c 0
 749.5 573.5 743.333007812 560 732 548 c 0
 720.666992188 536 707.333007812 529 692 527 c 0
 676.666992188 525 663.666992188 528.666992188 653 538 c 0
 613.666992188 573.333007812 562.5 591 499.5 591 c 0
 436.5 591 376.333007812 567.333007812 319 520 c 0
 262.333007812 472 228.333007812 415.5 217 350.5 c 0
 205.666992188 285.5 220 229.5 260 182.5 c 0
 300 135.5 354.333007812 112 423 112 c 0
 471 112 517.666992188 124.666992188 563 150 c 1
 587 283 l 1
 448 283 l 2
 432.666992188 283 420.666992188 288.5 412 299.5 c 0
 403.333007812 310.5 400.333007812 323.5 403 338.5 c 0
 405.666992188 353.5 413.333007812 366.333007812 426 377 c 0
 438.666992188 387.666992188 452.666992188 393 468 393 c 2
 661 393 l 2
 676.333007812 393 688.5 387.666992188 697.5 377 c 0
 706.5 366.333007812 709.666992188 353.333007812 707 338 c 2
 669 122 l 2
 667.888671875 116.444335938 665.22265625 109.444335938 661 101 c 1
 660 100 l 1
 654.666992188 90.6669921875 647.666992188 83 639 77 c 0
 564.333007812 26.3330078125 486 1 404 1 c 2
 403 1 l 2
EndSplineSet
EndChar

StartChar: H
Encoding: 72 72 6
Width: 760
Flags: MW
HStem: 0 21G<147.333 162.667 517.333 532.667> 295 110<282 521 262 541> 680 20G<271.333 286.667 641 656>
LayerCount: 2
Fore
SplineSet
521 295 m 1
 262 295 l 1
 220 55 l 2
 217.333007812 39.6669921875 209.666992188 26.6669921875 197 16 c 0
 184.333007812 5.3330078125 170.333007812 0 155 0 c 0
 139.666992188 0 127.666992188 5.5 119 16.5 c 0
 110.333007812 27.5 107.333007812 40.3330078125 110 55 c 2
 213 645 l 2
 216.333007812 660.333007812 224.333007812 673.333007812 237 684 c 0
 249.666992188 694.666992188 263.666992188 700 279 700 c 0
 294.333007812 700 306.333007812 694.5 315 683.5 c 0
 323.666992188 672.5 326.666992188 659.666992188 324 645 c 2
 282 405 l 1
 541 405 l 1
 583 645 l 2
 586.333007812 660.333007812 594.333007812 673.333007812 607 684 c 0
 619.666992188 694.666992188 633.5 700 648.5 700 c 0
 663.5 700 675.5 694.666992188 684.5 684 c 0
 693.5 673.333007812 696.666992188 660.333007812 694 645 c 2
 590 55 l 2
 587.333007812 40.3330078125 579.666992188 27.5 567 16.5 c 0
 554.333007812 5.5 540.333007812 0 525 0 c 0
 509.666992188 0 497.5 5.3330078125 488.5 16 c 0
 479.5 26.6669921875 476.333007812 39.6669921875 479 55 c 2
 521 295 l 1
EndSplineSet
EndChar

StartChar: I
Encoding: 73 73 7
Width: 305
Flags: MW
HStem: -1 21G<154.333 169.667> 679 20G<278 293>
LayerCount: 2
Fore
SplineSet
227 54 m 2
 224.333007812 39.3330078125 216.666992188 26.5 204 15.5 c 0
 191.333007812 4.5 177.333007812 -1 162 -1 c 0
 146.666992188 -1 134.5 4.3330078125 125.5 15 c 0
 116.5 25.6669921875 113.333007812 38.6669921875 116 54 c 2
 220 644 l 2
 223.333007812 659.333007812 231.333007812 672.333007812 244 683 c 0
 256.666992188 693.666992188 270.5 699 285.5 699 c 0
 300.5 699 312.5 693.666992188 321.5 683 c 0
 330.5 672.333007812 333.666992188 659.333007812 331 644 c 2
 227 54 l 2
EndSplineSet
EndChar

StartChar: J
Encoding: 74 74 8
Width: 594
Flags: MW
HStem: -1 111 679 20G<560.333 575.667>
LayerCount: 2
Fore
SplineSet
94 241 m 0
 109.333007812 245.666992188 123.166992188 244.5 135.5 237.5 c 0
 147.833007812 230.5 155 219.666992188 157 205 c 0
 161 177 173.5 154 194.5 136 c 0
 215.5 118 243 109.166992188 277 109.5 c 0
 311 109.833007812 343.833007812 123.333007812 375.5 150 c 0
 407.166992188 176.666992188 426.333007812 209 433 247 c 2
 503 644 l 2
 505.666992188 658.666992188 513.333007812 671.5 526 682.5 c 0
 538.666992188 693.5 552.666992188 699 568 699 c 0
 583.333007812 699 595.5 693.666992188 604.5 683 c 0
 613.5 672.333007812 616.666992188 659.333007812 614 644 c 2
 544 247 l 2
 532 178.333007812 497.5 119.833007812 440.5 71.5 c 0
 383.5 23.1669921875 320.666992188 -1 252 -1 c 0
 197.333007812 -1 151.166992188 15 113.5 47 c 0
 75.8330078125 79 53.3330078125 120.333007812 46 171 c 0
 44 185.666992188 47.6669921875 199.833007812 57 213.5 c 0
 66.3330078125 227.166992188 78.6669921875 236.333007812 94 241 c 0
EndSplineSet
EndChar

StartChar: K
Encoding: 75 75 9
Width: 715
Flags: MW
HStem: 0 21G<147.333 162.667 582 598> 680 20G<271.333 286.667 694 709>
LayerCount: 2
Fore
SplineSet
279 700 m 0
 294.333007812 700 306.333007812 694.5 315 683.5 c 0
 323.666992188 672.5 326.666992188 659.666992188 324 645 c 2
 273 356 l 1
 659 684 l 2
 672.333007812 694.666992188 686.5 700 701.5 700 c 0
 716.5 700 728.333007812 694.5 737 683.5 c 0
 745.666992188 672.5 748.833007812 659.5 746.5 644.5 c 0
 744.166992188 629.5 736.666992188 616.666992188 724 606 c 2
 462 383 l 1
 652 91 l 2
 659.333007812 79 660.833007812 65.3330078125 656.5 50 c 0
 652.166992188 34.6669921875 643.333007812 22.3330078125 630 13 c 0
 619.333007812 4.3330078125 606 0 590 0 c 0
 574 0 562 6.6669921875 554 20 c 2
 370 305 l 1
 246 199 l 1
 220 55 l 2
 217.333007812 39.6669921875 209.666992188 26.6669921875 197 16 c 0
 184.333007812 5.3330078125 170.333007812 0 155 0 c 0
 139.666992188 0 127.666992188 5.5 119 16.5 c 0
 110.333007812 27.5 107.333007812 40.3330078125 110 55 c 2
 214 645 l 2
 216.666992188 660.333007812 224.333007812 673.333007812 237 684 c 0
 249.666992188 694.666992188 263.666992188 700 279 700 c 0
EndSplineSet
EndChar

StartChar: L
Encoding: 76 76 10
Width: 619
Flags: W
HStem: 2 111<147.333 501 157 501 230 481> 3 21G<156 156.333> 682 20G<271.333 286.667>
LayerCount: 2
Fore
SplineSet
155 2 m 0xa0
 139.666992188 2 127.666992188 7.5 119 18.5 c 0
 110.333007812 29.5 107.333007812 42.6669921875 110 58 c 2
 214 647 l 2
 216.666992188 662.333007812 224.333007812 675.333007812 237 686 c 0
 249.666992188 696.666992188 263.666992188 702 279 702 c 0
 294.333007812 702 306.333007812 696.666992188 315 686 c 0
 323.666992188 675.333007812 326.666992188 662.333007812 324 647 c 2
 230 113 l 1
 501 113 l 2
 516.333007812 113 528.5 107.666992188 537.5 97 c 0
 546.5 86.3330078125 549.5 73.3330078125 546.5 58 c 0
 543.5 42.6669921875 535.666992188 29.5 523 18.5 c 0
 510.333007812 7.5 496.333007812 2 481 2 c 2
 157 2 l 2xa0
 157 2.6669921875 156.666992188 3 156 3 c 1x60
 156 2.3330078125 155.666992188 2 155 2 c 0xa0
EndSplineSet
EndChar

StartChar: M
Encoding: 77 77 11
Width: 868
Flags: MW
HStem: 1 21G<147 162 637.333 652.667> 681 20G<278 279 279 279 768 769 769 776.667>
LayerCount: 2
Fore
SplineSet
446 254 m 2
 443 254 l 2
 423.666992188 254 410 261.666992188 402 277 c 2
 294 477 l 1
 220 57 l 2
 216.666992188 41.6669921875 208.666992188 28.5 196 17.5 c 0
 183.333007812 6.5 169.5 1 154.5 1 c 0
 139.5 1 127.5 6.5 118.5 17.5 c 0
 109.5 28.5 106.333007812 41.6669921875 109 57 c 2
 213 646 l 2
 215.666992188 661.333007812 223.333007812 674.333007812 236 685 c 0
 248.666992188 695.666992188 262.666992188 701 278 701 c 2
 279 701 l 1
 298.333007812 702.333007812 312 694.666992188 320 678 c 2
 470 402 l 1
 718 679 l 2
 732.666992188 695 749.333007812 702.333007812 768 701 c 1
 769 701 l 2
 784.333007812 701 796.333007812 695.666992188 805 685 c 0
 813.666992188 674.333007812 816.666992188 661.333007812 814 646 c 2
 710 57 l 2
 707.333007812 41.6669921875 699.666992188 28.5 687 17.5 c 0
 674.333007812 6.5 660.333007812 1 645 1 c 0
 629.666992188 1 617.5 6.5 608.5 17.5 c 0
 599.5 28.5 596.333007812 41.6669921875 599 57 c 2
 673 477 l 1
 495 277 l 2
 481 261.666992188 464.666992188 254 446 254 c 2
EndSplineSet
EndChar

StartChar: N
Encoding: 78 78 12
Width: 790
Flags: MW
HStem: 0 21G<147.333 162.667 571 587>
LayerCount: 2
Fore
SplineSet
110 55 m 2
 213 642 l 2
 216.333007812 662.666992188 227 678.333007812 245 689 c 1
 258.333007812 698.333007812 272.333007812 701.833007812 287 699.5 c 0
 301.666992188 697.166992188 312.333007812 689.666992188 319 677 c 2
 565 225 l 1
 638 642 l 2
 641.333007812 657.333007812 649.333007812 670.333007812 662 681 c 0
 674.666992188 691.666992188 688.5 697 703.5 697 c 0
 718.5 697 730.5 691.666992188 739.5 681 c 0
 748.5 670.333007812 751.666992188 657.333007812 749 642 c 2
 645 55 l 2
 642.333007812 39.6669921875 634.666992188 26.6669921875 622 16 c 0
 609.333007812 5.3330078125 595 0 579 0 c 0
 563 0 550.666992188 6.3330078125 542 19 c 0
 542 19.6669921875 541.5 20.6669921875 540.5 22 c 0
 539.5 23.3330078125 538.666992188 24.6669921875 538 26 c 2
 294 474 l 1
 220 55 l 2
 217.333007812 39.6669921875 209.666992188 26.6669921875 197 16 c 0
 184.333007812 5.3330078125 170.333007812 0 155 0 c 0
 139.666992188 0 127.666992188 5.3330078125 119 16 c 0
 110.333007812 26.6669921875 107.333007812 39.6669921875 110 55 c 2
EndSplineSet
EndChar

StartChar: O
Encoding: 79 79 13
Width: 850
Flags: MW
HStem: -1 110 588 111<437.667 495.333>
LayerCount: 2
Fore
SplineSet
361 -1 m 0
 267.666992188 -1 195 33.6669921875 143 103 c 1
 90.3330078125 170.333007812 72.6669921875 252.333007812 90 349 c 0
 107.333007812 445.666992188 154 527.666992188 230 595 c 1
 306.666992188 664.333007812 391.333007812 699 484 699 c 0
 576.666992188 699 649.333007812 664.666992188 702 596 c 0
 754.666992188 527.333007812 772.333007812 445 755 349 c 1
 739 253 692.666992188 171 616 103 c 0
 539.333007812 33.6669921875 454.333007812 -1 361 -1 c 0
465 588 m 0
 404.333007812 588 348.166992188 564.833007812 296.5 518.5 c 0
 244.833007812 472.166992188 213 415.833007812 201 349.5 c 0
 189 283.166992188 201 226 237 178 c 0
 271.666992188 133.333007812 319.666992188 110.333007812 381 109 c 1
 441.666992188 110.333007812 497.666992188 133.333007812 549 178 c 1
 601 226 633 283.166992188 645 349.5 c 0
 657 415.833007812 645.166992188 472.166992188 609.5 518.5 c 0
 573.833007812 564.833007812 525.666992188 588 465 588 c 0
EndSplineSet
EndChar

StartChar: P
Encoding: 80 80 14
Width: 583
Flags: MW
HStem: 1 21G<147.333 162.667> 272 111<278 382 258 401> 590 111<314 438 314 314>
LayerCount: 2
Fore
SplineSet
155 1 m 0
 139.666992188 1 127.5 6.3330078125 118.5 17 c 0
 109.5 27.6669921875 106.333007812 40.6669921875 109 56 c 2
 213 646 l 2
 216.333007812 661.333007812 224.333007812 674.333007812 237 685 c 0
 249.666992188 695.666992188 263.333007812 701 278 701 c 2
 457 701 l 2
 516.333007812 701 563.333007812 680.166992188 598 638.5 c 0
 632.666992188 596.833007812 644.666992188 546.333007812 634 487 c 0
 623.333007812 427.666992188 593.5 377.166992188 544.5 335.5 c 0
 495.5 293.833007812 441.333007812 272.666992188 382 272 c 2
 258 272 l 1
 220 56 l 2
 217.333007812 41.3330078125 209.666992188 28.5 197 17.5 c 0
 184.333007812 6.5 170.333007812 1 155 1 c 0
523 487 m 0
 527.666992188 515.666992188 521.833007812 540 505.5 560 c 0
 489.166992188 580 466.666992188 590 438 590 c 2
 314 590 l 1
 278 383 l 1
 401 383 l 2
 429.666992188 383 455.833007812 393.166992188 479.5 413.5 c 0
 503.166992188 433.833007812 517.666992188 458.333007812 523 487 c 0
EndSplineSet
EndChar

StartChar: Q
Encoding: 81 81 15
Width: 844
Flags: W
HStem: -164 117<549.667 615 578 615> -88 177<324.667 425> 600 120<456.667 517.333>
LayerCount: 2
Fore
SplineSet
210 -103 m 1x60
 208 -103 206.666992188 -102.5 206 -101.5 c 0
 205.333007812 -100.5 203.166992188 -98.3330078125 199.5 -95 c 0
 195.833007812 -91.6669921875 192.5 -84.1669921875 189.5 -72.5 c 0
 186.5 -60.8330078125 189.166992188 -47.3330078125 197.5 -32 c 0
 204.837890625 -18.4970703125 217.671875 -7.1640625 236 2 c 1
 196 24 164.333007812 50.6669921875 141 82 c 1
 84.3330078125 154 65.6669921875 241.666992188 85 345 c 1
 101 446.333007812 150 534.333007812 232 609 c 1
 317.333007812 683 408.333007812 720 505 720 c 0
 553.666992188 720 598.166992188 710.166992188 638.5 690.5 c 0
 678.833007812 670.833007812 712 643.666992188 738 609 c 0
 794 534.333007812 812.666992188 446.333007812 794 345 c 1
 778.666992188 245.666992188 729.666992188 158 647 82 c 1
 602.333007812 44.6669921875 558.333007812 17.3330078125 515 0 c 1
 492 -10 l 1
 532.666992188 -34.6669921875 568.5 -47 599.5 -47 c 0
 630.5 -47 665.666992188 -34 705 -8 c 0
 719.666992188 2 735 6 751 4 c 0
 767 2 778.833007812 -5.5 786.5 -18.5 c 0
 794.166992188 -31.5 795.666992188 -45.8330078125 791 -61.5 c 0
 786.333007812 -77.1669921875 776.333007812 -90.3330078125 761 -101 c 0
 700.333007812 -143 639.666992188 -164 579 -164 c 2
 578 -164 l 2xa0
 521.333007812 -164 463 -144 403 -104 c 1
 383.666992188 -93.3330078125 361.666992188 -88 337 -88 c 0
 312.333007812 -88 290 -94 270 -106 c 1
 247.333007812 -116.666992188 227.333007812 -115.666992188 210 -103 c 1x60
639 528 m 0
 601.666992188 576 550.166992188 600 484.5 600 c 0
 418.833007812 600 358.166992188 575.166992188 302.5 525.5 c 0
 246.833007812 475.833007812 213.166992188 415.5 201.5 344.5 c 0
 189.833007812 273.5 202.666992188 213 240 163 c 1
 279.333007812 113.666992188 330.5 89 393.5 89 c 0
 456.5 89 516.666992188 113.666992188 574 163 c 1
 631.333007812 215.666992188 665.833007812 277.333007812 677.5 348 c 0
 689.166992188 418.666992188 676.333007812 478.666992188 639 528 c 0
EndSplineSet
EndChar

StartChar: R
Encoding: 82 82 16
Width: 625
Flags: MW
HStem: 0 21G<133.333 148.667> 272 110<264 363 245 388> 589 111<301 301 301 424>
LayerCount: 2
Fore
SplineSet
550 117 m 1
 566 110.333007812 575.166992188 99.3330078125 577.5 84 c 0
 579.833007812 68.6669921875 576.333007812 54.1669921875 567 40.5 c 0
 552.658203125 19.5 532.9921875 9 508 9 c 0
 494.666992188 9 482 13.1669921875 470 21.5 c 0
 439.53125 42.658203125 430.865234375 94.158203125 444 176 c 0
 446.666992188 192.666992188 445.666992188 206.166992188 441 216.5 c 0
 436.333007812 226.833007812 427.666992188 237.333007812 415 248 c 1
 403.666992188 256 386.333007812 264 363 272 c 1
 245 272 l 1
 206 55 l 2
 203.333007812 39.6669921875 195.666992188 26.6669921875 183 16 c 0
 170.333007812 5.3330078125 156.333007812 0 141 0 c 0
 125.666992188 0 113.666992188 5.5 105 16.5 c 0
 96.3330078125 27.5 93.3330078125 40.3330078125 96 55 c 2
 200 645 l 2
 202.666992188 660.333007812 210.333007812 673.333007812 223 684 c 0
 235.666992188 694.666992188 249.666992188 700 265 700 c 2
 444 700 l 2
 503.333007812 700 550.166992188 679 584.5 637 c 0
 618.833007812 595 630.666992188 544.666992188 620 486 c 1
 609.333007812 419.333007812 574 364.333007812 514 321 c 1
 550.774414062 281.926757812 564.44140625 233.59375 555 176 c 0
 550.333007812 152 548.666992188 132.333007812 550 117 c 1
301 589 m 1
 264 382 l 1
 388 382 l 2
 416.666992188 382 442.833007812 392.166992188 466.5 412.5 c 0
 490.166992188 432.833007812 504.666992188 457.333007812 510 486 c 0
 514.666992188 514.666992188 508.666992188 539 492 559 c 0
 475.333007812 579 452.666992188 589 424 589 c 2
 301 589 l 1
EndSplineSet
EndChar

StartChar: S
Encoding: 83 83 17
Width: 667
Flags: MW
HStem: 0 100<334 350.667> 600 100
LayerCount: 2
Fore
SplineSet
362 313 m 1
 360 313 l 1
 312.666992188 323 273.333007812 335.666992188 242 351 c 1
 204 371 178.833007812 394.666992188 166.5 422 c 0
 154.166992188 449.333007812 150.666992188 477.333007812 156 506 c 0
 166.666992188 564 201.333007812 611.333007812 260 648 c 1
 313.333007812 682.666992188 372.333007812 700 437 700 c 0
 465.666992188 700 494 695 522 685 c 0
 550 675 570.333007812 666 583 658 c 0
 595.666992188 650 613 638 635 622 c 0
 645.666992188 614.666992188 651 604.166992188 651 590.5 c 0
 651 576.833007812 646.333007812 564.333007812 637 553 c 0
 627.666992188 541.666992188 616 534.5 602 531.5 c 0
 588 528.5 573.833007812 532.333007812 559.5 543 c 0
 545.166992188 553.666992188 532.166992188 562.666992188 520.5 570 c 0
 488.681640625 590 453.143554688 600.166992188 413.88671875 600.5 c 0
 374.62890625 600.833007812 338 590 304 568 c 1
 276 548.666992188 260 528 256 506 c 0
 254 496 254.666992188 487.166992188 258 479.5 c 0
 271.047851562 449.490234375 316.713867188 426.657226562 395 411 c 1
 397 411 l 1
 510.28125 390.1328125 580.28125 349.798828125 607 290 c 0
 618.333007812 264 621 236 615 206 c 0
 604.333007812 145.333007812 569.166992188 95.8330078125 509.5 57.5 c 0
 449.833007812 19.1669921875 385.333007812 0 316 0 c 0
 228 0.6669921875 150.333007812 33.3330078125 83 98 c 0
 73.6669921875 106.666992188 69.5 117.833007812 70.5 131.5 c 0
 71.5 145.166992188 77.3330078125 157.333007812 88 168 c 0
 98.6669921875 178.666992188 111 184.666992188 125 186 c 0
 139 187.333007812 150.666992188 183.666992188 160 175 c 0
 180.666992188 154.333007812 206.666992188 136.5 238 121.5 c 0
 269.333007812 106.5 301.333007812 99.3330078125 334 100 c 0
 382 100 423 111.166992188 457 133.5 c 0
 491 155.833007812 510.666992188 180 516 206 c 0
 520.0625 230.374023438 510.728515625 250.374023438 488 266 c 1
 462 286 420 301.666992188 362 313 c 1
EndSplineSet
EndChar

StartChar: T
Encoding: 84 84 18
Width: 648
Flags: MW
HStem: 0 21G<202.333 217.667> 590 110<93.3335 546 121 259 369 527 369 369>
LayerCount: 2
Fore
SplineSet
56 645 m 0
 58.6669921875 660.333007812 66.3330078125 673.333007812 79 684 c 0
 91.6669921875 694.666992188 105.666992188 700 121 700 c 2
 546 700 l 2
 561.333007812 700 573.5 694.666992188 582.5 684 c 0
 591.5 673.333007812 594.666992188 660.333007812 592 645 c 0
 589.333007812 629.666992188 581.666992188 616.666992188 569 606 c 0
 556.333007812 595.333007812 542.333007812 590 527 590 c 2
 369 590 l 1
 275 56 l 2
 272.333007812 40.6669921875 264.666992188 27.5 252 16.5 c 0
 239.333007812 5.5 225.333007812 0 210 0 c 0
 194.666992188 0 182.666992188 5.5 174 16.5 c 0
 165.333007812 27.5 162.333007812 40.6669921875 165 56 c 2
 259 590 l 1
 101 590 l 2
 85.6669921875 590 73.6669921875 595.333007812 65 606 c 0
 56.3330078125 616.666992188 53.3330078125 629.666992188 56 645 c 0
EndSplineSet
EndChar

StartChar: U
Encoding: 85 85 19
Width: 814
Flags: MW
HStem: 0 111<366 411> 680 20G<253.333 268.667 720.333 735.667>
LayerCount: 2
Fore
SplineSet
728 700 m 0
 743.333007812 700 755.5 694.666992188 764.5 684 c 0
 773.5 673.333007812 776.666992188 660.333007812 774 645 c 2
 711 289 l 2
 697 209.666992188 656.833007812 141.666992188 590.5 85 c 0
 524.166992188 28.3330078125 451 0 371 0 c 0
 291 0 227.833007812 28.3330078125 181.5 85 c 0
 135.166992188 141.666992188 119 209.666992188 133 289 c 2
 195 645 l 2
 197.666992188 660.333007812 205.5 673.333007812 218.5 684 c 0
 231.5 694.666992188 245.666992188 700 261 700 c 0
 276.333007812 700 288.333007812 694.666992188 297 684 c 0
 305.666992188 673.333007812 308.666992188 660.333007812 306 645 c 2
 243 289 l 2
 234.333007812 239.666992188 244.5 197.666992188 273.5 163 c 0
 302.5 128.333007812 341.5 111 390.5 111 c 0
 439.5 111 484.5 128.333007812 525.5 163 c 0
 566.5 197.666992188 591.333007812 239.666992188 600 289 c 2
 663 645 l 2
 665.666992188 660.333007812 673.333007812 673.333007812 686 684 c 0
 698.666992188 694.666992188 712.666992188 700 728 700 c 0
EndSplineSet
EndChar

StartChar: V
Encoding: 86 86 20
Width: 750
Flags: W
HStem: 1 21G<253 253> 2 21G<242.667 243 263 263>
LayerCount: 2
Fore
SplineSet
263 2 m 1x40
 253 1 l 1x80
 243 2 l 2
 242.333007812 2 242 2.1669921875 242 2.5 c 0
 242 2.8330078125 241.5 3 240.5 3 c 0
 239.5 3 237 3.6669921875 233 5 c 1
 232 6 l 1
 228 7.3330078125 222.333007812 11.6669921875 215 19 c 0
 213.666992188 21.6669921875 212.333007812 24 211 26 c 1
 211 27 l 1
 209 29 208 31.6669921875 208 35 c 2
 63 624 l 2
 59.6669921875 638.666992188 62.1669921875 653 70.5 667 c 0
 78.8330078125 681 90.5 691 105.5 697 c 0
 120.5 703 134.666992188 703.166992188 148 697.5 c 0
 161.333007812 691.833007812 169.666992188 681.666992188 173 667 c 2
 288 199 l 1
 567 667 l 2
 575.666992188 681.666992188 587.666992188 691.833007812 603 697.5 c 0
 618.333007812 703.166992188 632.5 703 645.5 697 c 0
 658.5 691 666.666992188 681 670 667 c 0
 673.333007812 653 670.666992188 638.666992188 662 624 c 2
 310 35 l 2
 307.333007812 31 305.5 28.5 304.5 27.5 c 0
 303.5 26.5 300.666992188 23.5 296 18.5 c 0
 291.333007812 13.5 287.666992188 11 285 11 c 1
 281 8.3330078125 278 6.6669921875 276 6 c 2
 275 6 l 1
 273 4 269.666992188 3 265 3 c 1
 263 2 l 1x40
EndSplineSet
EndChar

StartChar: W
Encoding: 87 87 21
Width: 1102
Flags: W
HStem: 1 21G<254 256 256 257 621.333 625.667> 2 21G<244 247 244 244 266 269 266 266 611 614 611 611 633 636 633 633>
LayerCount: 2
Fore
SplineSet
219 18 m 2x40
 215 25 l 1
 215 26 l 1
 213.666992188 28 212.333007812 31 211 35 c 2
 67 624 l 2
 63.6669921875 638 66 652 74 666 c 0
 82 680 93.6669921875 690 109 696 c 0
 124.333007812 702 138.666992188 702.166992188 152 696.5 c 0
 165.333007812 690.833007812 173.666992188 681 177 667 c 2
 291 199 l 1
 477 509 l 2
 490.333007812 531.666992188 509.833007812 543 535.5 543 c 0
 561.166992188 543 576.666992188 531.666992188 582 509 c 2
 658 199 l 1
 938 667 l 2
 946.666992188 681 958.333007812 690.833007812 973 696.5 c 0
 987.666992188 702.166992188 1001.66699219 702 1015 696 c 0
 1028.33300781 690 1036.66699219 680 1040 666 c 0
 1043.33300781 652 1040.66699219 638 1032 624 c 2
 680 35 l 1
 674 26 l 2
 672.666992188 24.6669921875 671.333007812 23.1669921875 670 21.5 c 0
 668.666992188 19.8330078125 667.666992188 18.6669921875 667 18 c 0
 666.333007812 18 665.833007812 17.8330078125 665.5 17.5 c 2
 664 17 l 1
 661.333007812 14.3330078125 659.333007812 12.6669921875 658 12 c 0
 650 8 646 5.6669921875 646 5 c 2
 644 5 l 1
 640 3.6669921875 637.333007812 2.6669921875 636 2 c 2
 633 2 l 2x40
 631 1.3330078125 627.833007812 1 623.5 1 c 0x80
 619.166992188 1 616 1.3330078125 614 2 c 2
 611 2 l 2
 609 2.6669921875 606.666992188 3.6669921875 604 5 c 1
 602 5 l 2
 601.333007812 5.6669921875 600 6.5 598 7.5 c 0
 591.555664062 10.72265625 586.22265625 16.5556640625 582 25 c 1
 581 26 l 1
 501 348 l 1
 314 35 l 1
 308 26 l 1
 306 25 l 2
 305.333007812 24.3330078125 304.333007812 23.1669921875 303 21.5 c 0
 301.666992188 19.8330078125 300.666992188 18.6669921875 300 18 c 2
 298 17 l 2
 297.333007812 16.3330078125 296.166992188 15.3330078125 294.5 14 c 0
 292.833007812 12.6669921875 291.666992188 11.6669921875 291 11 c 2
 280 5 l 1
 277 5 l 1
 273 3 270.333007812 2 269 2 c 2
 266 2 l 2x40
 264 1.3330078125 261 1 257 1 c 2
 256 1 l 2x80
 252 1 249 1.3330078125 247 2 c 2
 244 2 l 1
 241.333007812 3.3330078125 239 4.3330078125 237 5 c 2
 235 5 l 2
 234.333007812 5.6669921875 233 6.5 231 7.5 c 0
 223.666992188 11.1669921875 220 14.5 220 17.5 c 0
 220 17.8330078125 219.666992188 18 219 18 c 2x40
EndSplineSet
EndChar

StartChar: X
Encoding: 88 88 22
Width: 722
Flags: MW
HStem: 1 21G<123.333 138.667 543.333 557.667>
LayerCount: 2
Fore
SplineSet
671 700.5 m 0
 686.333007812 702.833007812 699.333007812 699.5 710 690.5 c 0
 720.666992188 681.5 726 669.5 726 654.5 c 0
 726 639.5 720.333007812 625.666992188 709 613 c 2
 471 351 l 1
 616 89 l 2
 622.666992188 77 623.5 63.5 618.5 48.5 c 0
 613.5 33.5 604.333007812 21.3330078125 591 12 c 1
 578.333007812 4.6669921875 564.833007812 1 550.5 1 c 0
 536.166992188 1 524.333007812 8.6669921875 515 24 c 2
 386 258 l 1
 174 24 l 2
 160.666992188 8.6669921875 146.333007812 1 131 1 c 0
 115.666992188 1 103.166992188 5.1669921875 93.5 13.5 c 0
 83.8330078125 21.8330078125 79 33.5 79 48.5 c 0
 79 63.5 84.6669921875 77 96 89 c 2
 334 351 l 1
 189 613 l 2
 181.666992188 625.666992188 180.5 639.666992188 185.5 655 c 0
 190.5 670.333007812 200 682.333007812 214 691 c 0
 228 699.666992188 242.333007812 702.833007812 257 700.5 c 0
 271.666992188 698.166992188 282.333007812 691 289 679 c 2
 419 445 l 1
 631 679 l 2
 642.333007812 691 655.666992188 698.166992188 671 700.5 c 0
EndSplineSet
EndChar

StartChar: Y
Encoding: 89 89 23
Width: 604
Flags: MW
HStem: -1 21G<214.333 229.667>
LayerCount: 2
Fore
SplineSet
592 611 m 2
 335 328 l 1
 287 54 l 2
 284.333007812 39.3330078125 276.666992188 26.5 264 15.5 c 0
 251.333007812 4.5 237.333007812 -1 222 -1 c 0
 206.666992188 -1 194.5 4.3330078125 185.5 15 c 0
 176.5 25.6669921875 173.333007812 38.6669921875 176 54 c 2
 225 328 l 1
 68 611 l 2
 61.3330078125 623.666992188 60.5 637.333007812 65.5 652 c 0
 70.5 666.666992188 79.6669921875 678.666992188 93 688 c 0
 107 697.333007812 121.5 700.833007812 136.5 698.5 c 0
 151.5 696.166992188 162.333007812 688.666992188 169 676 c 2
 300 440 l 1
 514 676 l 2
 524.666992188 688.666992188 537.833007812 696.166992188 553.5 698.5 c 0
 569.166992188 700.833007812 582.333007812 697.333007812 593 688 c 0
 603.666992188 678.666992188 609 666.666992188 609 652 c 0
 609 637.333007812 603.333007812 623.666992188 592 611 c 2
EndSplineSet
EndChar

StartChar: Z
Encoding: 90 90 24
Width: 667
Flags: W
HStem: -1 111<246 548> 588 111<214.333 673 241 543> 678 20G
LayerCount: 2
Fore
SplineSet
683 698 m 1x20
 693 694 l 2
 695.666992188 694 701 690 709 682 c 1
 711 678 l 2x20
 713 676 714 674.333007812 714 673 c 2
 716 669 l 2
 716 667.666992188 716.666992188 664.333007812 718 659 c 1
 718 647 l 2
 718 645.666992188 717.666992188 644.666992188 717 644 c 2
 717 643 l 2
 717 641 716.333007812 638.666992188 715 636 c 1
 715 632.666992188 713.666992188 629.666992188 711 627 c 0
 711 625.666992188 710.333007812 624 709 622 c 0
 707.666992188 620 706.5 618.5 705.5 617.5 c 0
 704.5 616.5 703.333007812 614.666992188 702 612 c 2
 246 110 l 1
 568 110 l 2
 583.333007812 110 595.333007812 104.5 604 93.5 c 0
 612.666992188 82.5 615.666992188 69.3330078125 613 54 c 0
 610.333007812 38.6669921875 602.666992188 25.6669921875 590 15 c 0
 577.333007812 4.3330078125 563.333007812 -1 548 -1 c 2
 118 -1 l 2
 110.666992188 -1 106.333007812 -0.3330078125 105 1 c 2
 96 4 l 1
 90 7 l 1
 88 9 l 2
 87 9 86.1669921875 9.6669921875 85.5 11 c 2
 84 12 l 2
 83.3330078125 13.3330078125 82.5 14.5 81.5 15.5 c 0
 79.1669921875 17.8330078125 78 19.6669921875 78 21 c 0
 76.6669921875 22.3330078125 76 23.6669921875 76 25 c 0
 74.6669921875 26.3330078125 74 28 74 30 c 2
 72 34 l 1
 72 40 l 1
 71 44 l 1
 72 51 l 1
 72 55 l 1
 74 61 75 64.6669921875 75 66 c 2
 78 72 l 1
 84 81 l 2
 84.6669921875 82.3330078125 86 84 88 86 c 1
 88 87 l 1
 543 588 l 1
 222 588 l 2
 206.666992188 588 194.5 593.5 185.5 604.5 c 0
 176.5 615.5 173.333007812 628.5 176 643.5 c 0
 178.666992188 658.5 186.333007812 671.5 199 682.5 c 0
 211.666992188 693.5 225.666992188 699 241 699 c 2
 673 699 l 2xc0
 675.666992188 699 677.666992188 698.666992188 679 698 c 2
 683 698 l 1x20
EndSplineSet
EndChar

StartChar: a
Encoding: 97 97 25
Width: 619
Flags: MW
HStem: 1 106<246.333 269.667> 394 105<300.667 333.333>
LayerCount: 2
Fore
SplineSet
246 1 m 0
 179.333007812 1 127.333007812 25.6669921875 90 75 c 0
 52.6669921875 125.666992188 40.3330078125 184 53 250 c 1
 63.6669921875 317.333007812 96.3330078125 376 151 426 c 1
 206.333007812 474.666992188 267.333007812 499 334 499 c 0
 382 499 423.666992188 485 459 457 c 1
 463.666992188 469 471.5 479 482.5 487 c 0
 493.5 495 506 499 520 499 c 0
 534 499 545 493.833007812 553 483.5 c 0
 561 473.166992188 563.666992188 460.666992188 561 446 c 2
 493 55 l 2
 489.666992188 39.6669921875 482.166992188 26.8330078125 470.5 16.5 c 0
 458.833007812 6.1669921875 446 1 432 1 c 0
 418 1 407 5 399 13 c 0
 391 21 386.666992188 31.3330078125 386 44 c 1
 340 15.3330078125 293.333007812 1 246 1 c 0
216 353 m 0
 184 324.333007812 164.666992188 290 158 250 c 0
 151.333007812 210 158.333007812 176.166992188 179 148.5 c 0
 199.666992188 120.833007812 228.166992188 107 264.5 107 c 0
 300.833007812 107 333.666992188 120.666992188 363 148 c 1
 394.333007812 175.333007812 413.833007812 209 421.5 249 c 0
 429.166992188 289 422.166992188 323.166992188 400.5 351.5 c 0
 378.833007812 379.833007812 350.666992188 394 316 394 c 0
 281.333007812 394 248 380.333007812 216 353 c 0
EndSplineSet
EndChar

StartChar: b
Encoding: 98 98 26
Width: 660
Flags: MW
HStem: -2 108<333.667 368> 392 108<398.333 421.333> 680 20G<258 273>
LayerCount: 2
Fore
SplineSet
179.5 10 m 0
 168.5 2 156 -2 142 -2 c 0
 128 -2 116.666992188 3.3330078125 108 14 c 0
 99.3330078125 24.6669921875 96.3330078125 37.6669921875 99 53 c 2
 201 645 l 2
 203.666992188 660.333007812 211.333007812 673.333007812 224 684 c 0
 236.666992188 694.666992188 250.5 700 265.5 700 c 0
 280.5 700 292.333007812 694.5 301 683.5 c 0
 309.666992188 672.5 312.666992188 659.666992188 310 645 c 2
 279 459 l 1
 327 486.333007812 374.666992188 500 422 500 c 0
 490 500 543.333007812 475.5 582 426.5 c 0
 620.666992188 377.5 634 318.333007812 622 249 c 0
 610 179.666992188 576 120.5 520 71.5 c 0
 464 22.5 402 -2 334 -2 c 0
 284.666992188 -2 241.333007812 12.3330078125 204 41 c 1
 198.666992188 28.3330078125 190.5 18 179.5 10 c 0
492 350 m 1
 469.333007812 378 439.666992188 392 403 392 c 0
 366.333007812 392 332.333007812 378.166992188 301 350.5 c 0
 269.666992188 322.833007812 250.333007812 289 243 249 c 0
 235.666992188 209 242.833007812 175.166992188 264.5 147.5 c 0
 286.166992188 119.833007812 315.333007812 106 352 106 c 0
 388.666992188 106 423 120 455 148 c 1
 486.333007812 174 505.5 207 512.5 247 c 0
 519.5 287 512.666992188 321.333007812 492 350 c 1
EndSplineSet
EndChar

StartChar: c
Encoding: 99 99 27
Width: 571
Flags: MW
HStem: 0 108<294 324.333> 401 109<348 385>
LayerCount: 2
Fore
SplineSet
470 55 m 0
 417.333007812 18.3330078125 357.666992188 0 291 0 c 0
 224.333007812 0 169.833007812 24.8330078125 127.5 74.5 c 0
 85.1669921875 124.166992188 70.3330078125 184.333007812 83 255 c 0
 95.6669921875 325.666992188 132 385.833007812 192 435.5 c 0
 252 485.166992188 315 510 381 510 c 0
 447 510 500.333007812 491.666992188 541 455 c 0
 551 445.666992188 555.666992188 433.5 555 418.5 c 0
 554.333007812 403.5 548.5 390.166992188 537.5 378.5 c 0
 526.5 366.833007812 513.333007812 360 498 358 c 0
 482.666992188 356 469.666992188 359.666992188 459 369 c 0
 435.666992188 390.333007812 404.5 401 365.5 401 c 0
 326.5 401 289.666992188 386.666992188 255 358 c 0
 220.333007812 329.333007812 199.333007812 295 192 255 c 0
 184.666992188 215 193.333007812 180.5 218 151.5 c 0
 242.666992188 122.5 274.5 108 313.5 108 c 0
 352.5 108 387.666992188 119 419 141 c 0
 432.333007812 150.333007812 446.333007812 154 461 152 c 0
 475.666992188 150 486.5 143 493.5 131 c 0
 500.5 119 501.666992188 105.5 497 90.5 c 0
 492.333007812 75.5 483.333007812 63.6669921875 470 55 c 0
EndSplineSet
EndChar

StartChar: d
Encoding: 100 100 28
Width: 660
Flags: MW
HStem: -1 109<283.667 307> 391 109<337.333 370> 680 20G<586 601>
LayerCount: 2
Fore
SplineSet
283 -1 m 0
 215.666992188 -0.3330078125 162.666992188 24.3330078125 124 73 c 0
 85.3330078125 121.666992188 72 180.333007812 84 249 c 0
 96 317.666992188 130 376.666992188 186 426 c 0
 242 475.333007812 303.666992188 500 371 500 c 0
 419 500 461.666992188 485.666992188 499 457 c 1
 529 646 l 2
 531.666992188 660.666992188 539.333007812 673.333007812 552 684 c 0
 564.666992188 694.666992188 578.5 700 593.5 700 c 0
 608.5 700 620.333007812 694.666992188 629 684 c 0
 637.666992188 673.333007812 640.666992188 660.666992188 638 646 c 2
 536 54 l 2
 532.666992188 38.6669921875 524.833007812 25.6669921875 512.5 15 c 0
 500.166992188 4.3330078125 487.166992188 -1 473.5 -1 c 0
 459.833007812 -1 448.666992188 3.1669921875 440 11.5 c 0
 431.333007812 19.8330078125 426.666992188 30 426 42 c 1
 378.666992188 13.3330078125 331 -1 283 -1 c 0
440 350 m 1
 418 377.333007812 388.5 391 351.5 391 c 0
 314.5 391 280.333007812 377.166992188 249 349.5 c 0
 217.666992188 321.833007812 199 288.333007812 193 249 c 1
 185 211 192 177.666992188 214 149 c 1
 236.666992188 121.666992188 265.833007812 108 301.5 108 c 0
 337.166992188 108 371.333007812 121.666992188 404 149 c 1
 436 177.666992188 455.166992188 211.5 461.5 250.5 c 0
 467.833007812 289.5 460.666992188 322.666992188 440 350 c 1
EndSplineSet
EndChar

StartChar: e
Encoding: 101 101 29
Width: 609
Flags: MW
HStem: 0 21G<280 302.333> 214 85<199 482 199 508 189 482> 405 95
LayerCount: 2
Fore
SplineSet
280 0 m 0
 212 0.6669921875 159 25.3330078125 121 74 c 0
 83 122.666992188 70.3330078125 181.333007812 83 250 c 0
 95.6669921875 318.666992188 129.833007812 377.5 185.5 426.5 c 0
 241.166992188 475.5 302.5 500 369.5 500 c 0
 436.5 500 488.833007812 478.166992188 526.5 434.5 c 0
 564.166992188 390.833007812 578.666992188 335.333007812 570 268 c 0
 570 262.666992188 569 258 567 254 c 0
 563.666992188 242 556.333007812 232.333007812 545 225 c 0
 533.666992188 217.666992188 521.333007812 214 508 214 c 2
 189 214 l 1
 189 188 196.333007812 166 211 148 c 1
 219 136 231.333007812 125.833007812 248 117.5 c 0
 264.666992188 109.166992188 281.666992188 104.333007812 299 103 c 0
 346.333007812 99 386 111.666992188 418 141 c 0
 429.333007812 151.666992188 441.166992188 157 453.5 157 c 0
 465.833007812 157 474.166992188 155.5 478.5 152.5 c 0
 482.833007812 149.5 488 144.833007812 494 138.5 c 0
 500 132.166992188 502.5 122.666992188 501.5 110 c 0
 500.5 97.3330078125 495.333007812 86.3330078125 486 77 c 0
 456 49 425.333007812 29.1669921875 394 17.5 c 0
 362.666992188 5.8330078125 324.666992188 0 280 0 c 0
354 405 m 1
 315.333007812 403 282.333007812 391 255 369 c 0
 227.666992188 347 209 323.666992188 199 299 c 1
 482 299 l 1
 480.666992188 322.333007812 468.833007812 345 446.5 367 c 0
 424.166992188 389 393.333007812 401.666992188 354 405 c 1
EndSplineSet
EndChar

StartChar: f
Encoding: 102 102 30
Width: 362
Flags: MW
HStem: 0 21G<117.333 132.667> 407 111<108.333 161 135 142 272 282 135 252> 680 20G<329 348>
LayerCount: 2
Fore
SplineSet
366 605 m 0
 353.333007812 594.333007812 339.833007812 589 325.5 589 c 0
 311.166992188 589 300 587 292 583 c 1
 285.333007812 576.333007812 279.333007812 559.333007812 274 532 c 1
 272 518 l 1
 301 518 l 2
 316.333007812 518 328.5 512.666992188 337.5 502 c 0
 346.5 491.333007812 349.5 478.333007812 346.5 463 c 0
 343.5 447.666992188 335.666992188 434.5 323 423.5 c 0
 310.333007812 412.5 296.666992188 407 282 407 c 2
 252 407 l 1
 190 55 l 2
 187.333007812 39.6669921875 179.666992188 26.6669921875 167 16 c 0
 154.333007812 5.3330078125 140.333007812 0 125 0 c 0
 109.666992188 0 97.6669921875 5.3330078125 89 16 c 0
 80.3330078125 26.6669921875 77.3330078125 39.6669921875 80 55 c 2
 142 407 l 1
 116 407 l 2
 100.666992188 407 88.5 412.5 79.5 423.5 c 0
 70.5 434.5 67.3330078125 447.666992188 70 463 c 0
 73.3330078125 478.333007812 81.3330078125 491.333007812 94 502 c 0
 106.666992188 512.666992188 120.333007812 518 135 518 c 2
 161 518 l 1
 164 532 l 1
 170 570.666992188 182 603.333007812 200 630 c 0
 220.666992188 662 248.333007812 682.333007812 283 691 c 1
 301 697 319.5 700 338.5 700 c 0
 357.5 700 371.5 694.5 380.5 683.5 c 0
 389.5 672.5 392.5 659.333007812 389.5 644 c 0
 386.5 628.666992188 378.666992188 615.666992188 366 605 c 0
EndSplineSet
EndChar

StartChar: g
Encoding: 103 103 31
Width: 660
Flags: MW
HStem: -182 107<252.333 271.667> -8 109<270.333 292> 392 108<324.333 357.333>
LayerCount: 2
Fore
SplineSet
555 246 m 1
 522 60 l 2
 510.666992188 -6.6669921875 477.333007812 -63.6669921875 422 -111 c 0
 366.666992188 -158.333007812 305.333007812 -182 238 -182 c 0
 200.666992188 -182 166.666992188 -174 136 -158 c 0
 124 -151.333007812 116.833007812 -141 114.5 -127 c 0
 112.166992188 -113 115.333007812 -99.3330078125 124 -86 c 0
 132.666992188 -72.6669921875 144.5 -63.5 159.5 -58.5 c 0
 174.5 -53.5 189.333007812 -55 204 -63 c 0
 218.666992188 -71 239.166992188 -75 265.5 -75 c 0
 291.833007812 -75 319.166992188 -64.6669921875 347.5 -44 c 0
 375.833007812 -23.3330078125 395.666992188 2.3330078125 407 33 c 1
 361 5.6669921875 315 -8 269 -8 c 0
 202.333007812 -8 149.833007812 17 111.5 67 c 0
 73.1669921875 117 60 176.833007812 72 246.5 c 0
 84 316.166992188 117.666992188 375.333007812 173 424 c 1
 229 474.666992188 290.666992188 500 358 500 c 0
 408 500 450.666992188 485.333007812 486 456 c 1
 490.666992188 468.666992188 498.5 479.166992188 509.5 487.5 c 0
 520.5 495.833007812 533.166992188 500 547.5 500 c 0
 561.833007812 500 573.166992188 494.666992188 581.5 484 c 0
 589.833007812 473.333007812 592.666992188 460.666992188 590 446 c 2
 555 247 l 1
 555 246 l 1
201 143 m 1
 223 115 252.166992188 101 288.5 101 c 0
 324.833007812 101 358 115 388 143 c 1
 420 169.666992188 439.666992188 204 447 246 c 1
 448 247 l 1
 454.666992188 287.666992188 447.166992188 322 425.5 350 c 0
 403.833007812 378 375.166992188 392 339.5 392 c 0
 303.833007812 392 270 377.833007812 238 349.5 c 0
 206 321.166992188 186.5 287 179.5 247 c 0
 172.5 207 179.666992188 172.333007812 201 143 c 1
EndSplineSet
EndChar

StartChar: h
Encoding: 104 104 32
Width: 613
Flags: MW
HStem: 1 21G<136 151 461 476> 390 111<378.333 392.667> 681 20G<259.333 274.667>
LayerCount: 2
Fore
SplineSet
510 17 m 0
 497.333007812 6.3330078125 483.5 1 468.5 1 c 0
 453.5 1 441.5 6.3330078125 432.5 17 c 0
 423.5 27.6669921875 420.333007812 40.6669921875 423 56 c 2
 466 283 l 2
 471.333007812 312.333007812 465.333007812 337.5 448 358.5 c 0
 430.666992188 379.5 407.333007812 390 378 390 c 0
 348.666992188 390 321.666992188 379.5 297 358.5 c 0
 272.333007812 337.5 257.333007812 312.333007812 252 283 c 2
 209 56 l 2
 205.666992188 40.6669921875 197.666992188 27.6669921875 185 17 c 0
 172.333007812 6.3330078125 158.5 1 143.5 1 c 0
 128.5 1 116.5 6.3330078125 107.5 17 c 0
 98.5 27.6669921875 95.3330078125 40.6669921875 98 56 c 2
 142 283 l 1
 202 646 l 2
 204.666992188 661.333007812 212.333007812 674.333007812 225 685 c 0
 237.666992188 695.666992188 251.666992188 701 267 701 c 0
 282.333007812 701 294.5 695.666992188 303.5 685 c 0
 312.5 674.333007812 315.666992188 661.333007812 313 646 c 2
 286 473 l 1
 321.333007812 491.666992188 358.666992188 501 398 501 c 0
 458 501 505.5 479.833007812 540.5 437.5 c 0
 575.5 395.166992188 587.666992188 343.666992188 577 283 c 2
 534 56 l 2
 530.666992188 40.6669921875 522.666992188 27.6669921875 510 17 c 0
EndSplineSet
EndChar

StartChar: i
Encoding: 105 105 33
Width: 281
Flags: MW
HStem: -1 21G<137.333 152.667> 567 132<237.333 276>
LayerCount: 2
Fore
SplineSet
99 54 m 2
 172 445 l 2
 174.666992188 460.333007812 182.333007812 473.333007812 195 484 c 0
 207.666992188 494.666992188 221.666992188 500 237 500 c 0
 252.333007812 500 264.333007812 494.5 273 483.5 c 0
 281.666992188 472.5 284.666992188 459.666992188 282 445 c 2
 210 54 l 2
 207.333007812 38.6669921875 199.666992188 25.6669921875 187 15 c 0
 174.333007812 4.3330078125 160.333007812 -1 145 -1 c 0
 129.666992188 -1 117.5 4.3330078125 108.5 15 c 0
 99.5 25.6669921875 96.3330078125 38.6669921875 99 54 c 2
310 623 m 2
 307.333007812 607.666992188 299.666992188 594.5 287 583.5 c 0
 274.333007812 572.5 260.333007812 567 245 567 c 0
 229.666992188 567 217.666992188 572.5 209 583.5 c 0
 200.333007812 594.5 197.333007812 607.666992188 200 623 c 2
 203 644 l 1
 206.333007812 659.333007812 214.333007812 672.333007812 227 683 c 0
 239.666992188 693.666992188 253.5 699 268.5 699 c 0
 283.5 699 295.5 693.666992188 304.5 683 c 0
 313.5 672.333007812 316.666992188 659.333007812 314 644 c 2
 310 623 l 2
EndSplineSet
EndChar

StartChar: j
Encoding: 106 106 34
Width: 249
Flags: MW
HStem: -198 21G<39.3335 62.3335> 565 135<232.667 271.333>
LayerCount: 2
Fore
SplineSet
311 644 m 2
 307 623 l 2
 304.333007812 607 296.5 593.333007812 283.5 582 c 0
 270.5 570.666992188 256.166992188 565 240.5 565 c 0
 224.833007812 565 212.5 570.666992188 203.5 582 c 0
 194.5 593.333007812 191.333007812 607 194 623 c 2
 198 644 l 2
 200.666992188 659.333007812 208.333007812 672.5 221 683.5 c 0
 233.666992188 694.5 247.833007812 700 263.5 700 c 0
 279.166992188 700 291.666992188 694.5 301 683.5 c 0
 310.333007812 672.5 313.666992188 659.333007812 311 644 c 2
186.5 484 m 0
 199.5 494.666992188 213.833007812 500 229.5 500 c 0
 245.166992188 500 257.5 494.666992188 266.5 484 c 0
 275.5 473.333007812 278.666992188 460 276 444 c 2
 180 -85 l 2
 174.666992188 -116.333007812 158.833007812 -143 132.5 -165 c 0
 106.166992188 -187 77.6669921875 -198 47 -198 c 0
 31.6669921875 -198 19.5 -192.5 10.5 -181.5 c 0
 1.5 -170.5 -1.6669921875 -157.166992188 1 -141.5 c 0
 3.6669921875 -125.833007812 11.5 -112.5 24.5 -101.5 c 0
 37.5 -90.5 51.6669921875 -85 67 -85 c 1
 163 444 l 2
 165.666992188 460 173.5 473.333007812 186.5 484 c 0
EndSplineSet
EndChar

StartChar: k
Encoding: 107 107 35
Width: 560
Flags: MW
HStem: 0 21G<136.333 151.667 434.333 449.667> 680 20G<260.333 275.667>
LayerCount: 2
Fore
SplineSet
144 0 m 0
 128.666992188 0 116.666992188 5.5 108 16.5 c 0
 99.3330078125 27.5 96.3330078125 40.3330078125 99 55 c 2
 203 645 l 2
 205.666992188 660.333007812 213.333007812 673.333007812 226 684 c 0
 238.666992188 694.666992188 252.666992188 700 268 700 c 0
 283.333007812 700 295.333007812 694.5 304 683.5 c 0
 312.666992188 672.5 315.666992188 659.666992188 313 645 c 2
 252 298 l 1
 494 504 l 2
 507.333007812 514.666992188 521.5 520 536.5 520 c 0
 551.5 520 563.333007812 514.5 572 503.5 c 0
 580.666992188 492.5 583.833007812 479.5 581.5 464.5 c 0
 579.166992188 449.5 571.666992188 436.666992188 559 426 c 2
 383 276 l 1
 503 90 l 2
 510.333007812 78.6669921875 512 65.3330078125 508 50 c 0
 504 34.6669921875 495.833007812 22.5 483.5 13.5 c 0
 471.166992188 4.5 457.333007812 0 442 0 c 0
 426.666992188 0 414.333007812 6.6669921875 405 20 c 2
 290 198 l 1
 225 142 l 1
 209 55 l 2
 206.333007812 39.6669921875 198.666992188 26.6669921875 186 16 c 0
 173.333007812 5.3330078125 159.333007812 0 144 0 c 0
EndSplineSet
EndChar

StartChar: l
Encoding: 108 108 36
Width: 249
Flags: MW
HStem: -1 21G<143.333 158.667> 679 20G<267.333 282.667>
LayerCount: 2
Fore
SplineSet
209 644 m 2
 211.666992188 659.333007812 219.5 672.333007812 232.5 683 c 0
 245.5 693.666992188 259.666992188 699 275 699 c 0
 290.333007812 699 302.333007812 693.666992188 311 683 c 0
 319.666992188 672.333007812 322.666992188 659.333007812 320 644 c 2
 216 55 l 2
 213.333007812 39.6669921875 205.666992188 26.5 193 15.5 c 0
 180.333007812 4.5 166.333007812 -1 151 -1 c 0
 135.666992188 -1 123.5 4.5 114.5 15.5 c 0
 105.5 26.5 102.333007812 39.6669921875 105 55 c 2
 209 644 l 2
EndSplineSet
EndChar

StartChar: m
Encoding: 109 109 37
Width: 951
Flags: MW
HStem: 2 21G<134.667 149.333 445.667 460.333 756.667 771.333> 395 105<365.667 380.333 664.333 692.667>
LayerCount: 2
Fore
SplineSet
557 292 m 2
 516 56 l 2
 512.666992188 40.6669921875 505 27.8330078125 493 17.5 c 0
 481 7.1669921875 467.666992188 2 453 2 c 0
 438.333007812 2 426.833007812 7.1669921875 418.5 17.5 c 0
 410.166992188 27.8330078125 407 40.6669921875 409 56 c 2
 451 292 l 1
 451 294 l 1
 455.666992188 322 449.666992188 345.833007812 433 365.5 c 0
 416.333007812 385.166992188 394.166992188 395 366.5 395 c 0
 338.833007812 395 313 385 289 365 c 0
 265 345 250.666992188 320.666992188 246 292 c 2
 204 56 l 2
 201.333007812 41.3330078125 194 28.6669921875 182 18 c 0
 170 7.3330078125 156.666992188 2 142 2 c 0
 127.333007812 2 115.833007812 7.3330078125 107.5 18 c 0
 99.1669921875 28.6669921875 96.3330078125 41.3330078125 99 56 c 2
 167 447 l 2
 170.333007812 462.333007812 178 475 190 485 c 0
 202 495 215.333007812 500 230 500 c 0
 252 500 266.333007812 490 273 470 c 1
 309 490 346.333007812 500 385 500 c 0
 447.666992188 500 495.666992188 477 529 431 c 1
 578.333007812 477 633 500 693 500 c 0
 753 500 799.666992188 479.666992188 833 439 c 0
 866.333007812 398.333007812 878 349.333007812 868 292 c 2
 826 56 l 2
 824 41.3330078125 816.833007812 28.6669921875 804.5 18 c 0
 792.166992188 7.3330078125 778.666992188 2 764 2 c 0
 749.333007812 2 737.833007812 7.3330078125 729.5 18 c 0
 721.166992188 28.6669921875 718.333007812 41.3330078125 721 56 c 2
 762 292 l 2
 767.333007812 320.666992188 761.833007812 345 745.5 365 c 0
 729.166992188 385 706.833007812 395 678.5 395 c 0
 650.166992188 395 624.333007812 385.166992188 601 365.5 c 0
 577.666992188 345.833007812 563.333007812 322 558 294 c 0
 558 293.333007812 557.666992188 292.666992188 557 292 c 2
EndSplineSet
EndChar

StartChar: n
Encoding: 110 110 38
Width: 613
Flags: MW
HStem: 1 21G<134.667 149.333 446.667 461.333> 394 106<365.333 381.333>
LayerCount: 2
Fore
SplineSet
410 55 m 2
 452 291 l 2
 456.666992188 319.666992188 450.833007812 344 434.5 364 c 0
 418.166992188 384 395.666992188 394 367 394 c 0
 338.333007812 394 312.333007812 384 289 364 c 0
 265.666992188 344 251.666992188 319.666992188 247 291 c 2
 204 55 l 2
 202 40.3330078125 194.833007812 27.6669921875 182.5 17 c 0
 170.166992188 6.3330078125 156.666992188 1 142 1 c 0
 127.333007812 1 115.666992188 6.3330078125 107 17 c 0
 98.3330078125 27.6669921875 95.3330078125 40.3330078125 98 55 c 2
 167 447 l 2
 170.333007812 461.666992188 178 474.166992188 190 484.5 c 0
 202 494.833007812 215.333007812 500 230 500 c 0
 252.666992188 500 266.666992188 489.666992188 272 469 c 1
 308 489.666992188 345.666992188 500 385 500 c 0
 443 500 488.833007812 479.666992188 522.5 439 c 0
 556.166992188 398.333007812 567.666992188 349 557 291 c 2
 515 55 l 2
 513 40.3330078125 506 27.6669921875 494 17 c 0
 482 6.3330078125 468.666992188 1 454 1 c 0
 439.333007812 1 427.666992188 6.1669921875 419 16.5 c 0
 410.333007812 26.8330078125 407.333007812 39.6669921875 410 55 c 2
EndSplineSet
EndChar

StartChar: o
Encoding: 111 111 39
Width: 625
Flags: MW
HStem: -2 106<277.333 311.333> 393 107<331.667 365>
LayerCount: 2
Fore
SplineSet
181 425 m 1
 237.666992188 475 298.833007812 500 364.5 500 c 0
 430.166992188 500 483 475 523 425 c 1
 559.666992188 375.666992188 572 316.666992188 560 248 c 0
 548 179.333007812 514.666992188 121 460 73 c 1
 405.333007812 23 344.666992188 -2 278 -2 c 0
 211.333007812 -2 158.333007812 23 119 73 c 1
 82.3330078125 121.666992188 70 180 82 248 c 0
 94 316 127 375 181 425 c 1
454 249 m 0
 461.333007812 290.333007812 453.666992188 324.333007812 431 351 c 1
 411 379 383 393 347 393 c 0
 311 393 277.5 379.166992188 246.5 351.5 c 0
 215.5 323.833007812 196.166992188 289.5 188.5 248.5 c 0
 180.833007812 207.5 187.833007812 173.166992188 209.5 145.5 c 0
 231.166992188 117.833007812 259.666992188 104 295 104 c 0
 330.333007812 104 363.666992188 117.833007812 395 145.5 c 0
 426.333007812 173.166992188 446 207.666992188 454 249 c 0
EndSplineSet
EndChar

StartChar: p
Encoding: 112 112 40
Width: 660
Flags: MW
HStem: -190 21G<135.667 150.333> -3 110 391 109<429.667 453>
LayerCount: 2
Fore
SplineSet
454 500 m 0
 522 500 575.333007812 475.333007812 614 426 c 0
 652.666992188 376.666992188 666 317.666992188 654 249 c 0
 642 180.333007812 607.833007812 121.333007812 551.5 72 c 0
 495.166992188 22.6669921875 433.333007812 -2.3330078125 366 -3 c 1
 315.333007812 -1.6669921875 272.666992188 12.6669921875 238 40 c 1
 208 -135 l 2
 204.666992188 -150.333007812 196.666992188 -163.333007812 184 -174 c 0
 171.333007812 -184.666992188 157.666992188 -190 143 -190 c 0
 128.333007812 -190 116.5 -184.666992188 107.5 -174 c 0
 98.5 -163.333007812 95.3330078125 -150.333007812 98 -135 c 2
 201 445 l 2
 203.666992188 460.333007812 211.166992188 473.333007812 223.5 484 c 0
 235.833007812 494.666992188 249 500 263 500 c 0
 277 500 288.166992188 496 296.5 488 c 0
 304.833007812 480 309.333007812 470 310 458 c 1
 357.333007812 486 405.333007812 500 454 500 c 0
487 149 m 1
 519.666992188 175 539 208.333007812 545 249 c 1
 552.333007812 289.666992188 544.833007812 323.5 522.5 350.5 c 0
 500.166992188 377.5 471 391 435 391 c 0
 399 391 364.666992188 377.333007812 332 350 c 1
 300.666992188 320.666992188 282 287 276 249 c 1
 267.333007812 210.333007812 274.333007812 177 297 149 c 0
 319.666992188 121 349 107 385 107 c 0
 421 107 455 121 487 149 c 1
EndSplineSet
EndChar

StartChar: q
Encoding: 113 113 41
Width: 660
Flags: MW
HStem: -187 21G<431 446> -1 109 391 108<337 370.333>
LayerCount: 2
Fore
SplineSet
570 250 m 1
 570 249 l 1
 502 -132 l 2
 499.333007812 -147.333007812 491.833007812 -160.333007812 479.5 -171 c 0
 467.166992188 -181.666992188 453.5 -187 438.5 -187 c 0
 423.5 -187 411.666992188 -181.5 403 -170.5 c 0
 394.333007812 -159.5 391.333007812 -146.666992188 394 -132 c 2
 425 41 l 1
 380.333007812 14.3330078125 333 0.3330078125 283 -1 c 1
 215.666992188 -0.3330078125 162.666992188 24.3330078125 124 73 c 0
 85.3330078125 121.666992188 72 180.5 84 249.5 c 0
 96 318.5 129.833007812 377.333007812 185.5 426 c 0
 241.166992188 474.666992188 303 499 371 499 c 0
 421 499 463.666992188 485 499 457 c 1
 503.666992188 469.666992188 511.666992188 479.833007812 523 487.5 c 0
 534.333007812 495.166992188 547 499 561 499 c 0
 575 499 586.333007812 493.833007812 595 483.5 c 0
 603.666992188 473.166992188 606.666992188 460.333007812 604 445 c 2
 570 250 l 1
403 149 m 0
 434.333007812 176.333007812 453.666992188 209.666992188 461 249 c 1
 461 250 l 1
 468.333007812 289.333007812 461.166992188 322.666992188 439.5 350 c 0
 417.833007812 377.333007812 388.666992188 391 352 391 c 0
 315.333007812 391 281.333007812 377.333007812 250 350 c 0
 218.666992188 322.666992188 199.5 289.333007812 192.5 250 c 0
 185.5 210.666992188 192.666992188 177 214 149 c 1
 236.666992188 121.666992188 265.833007812 108 301.5 108 c 0
 337.166992188 108 371 121.666992188 403 149 c 0
EndSplineSet
EndChar

StartChar: r
Encoding: 114 114 42
Width: 439
Flags: MW
HStem: 0 21G<134.667 149.333> 393 107<409 417.667>
LayerCount: 2
Fore
SplineSet
230 500 m 0
 244.666992188 500 256.333007812 494.833007812 265 484.5 c 0
 274.803710938 472.811523438 277.13671875 457.978515625 272 440 c 1
 280 446.666992188 289.333007812 453 300 459 c 0
 342 486.333007812 386 500 432 500 c 0
 446.666992188 500 458.333007812 494.833007812 467 484.5 c 0
 475.666992188 474.166992188 478.5 461.666992188 475.5 447 c 0
 472.5 432.333007812 465 419.666992188 453 409 c 0
 441 398.333007812 426.333007812 393 409 393 c 0
 371.971679688 393 333.971679688 371 295 327 c 0
 270.333007812 299 251.333007812 270.666992188 238 242 c 1
 205 53 l 2
 202.333007812 38.3330078125 194.833007812 25.8330078125 182.5 15.5 c 0
 170.166992188 5.1669921875 156.666992188 0 142 0 c 0
 127.333007812 0 115.666992188 5.1669921875 107 15.5 c 0
 98.3330078125 25.8330078125 95.3330078125 38.3330078125 98 53 c 2
 168 447 l 2
 170 461.666992188 177.166992188 474.166992188 189.5 484.5 c 0
 201.833007812 494.833007812 215.333007812 500 230 500 c 0
EndSplineSet
EndChar

StartChar: s
Encoding: 115 115 43
Width: 492
Flags: MW
HStem: 1 107 394 106<299.333 312.667>
LayerCount: 2
Fore
SplineSet
71 70 m 0
 61 79.3330078125 56.5 91 57.5 105 c 0
 58.5 119 64.6669921875 131.833007812 76 143.5 c 0
 87.3330078125 155.166992188 100.666992188 161.666992188 116 163 c 0
 131.333007812 164.333007812 144.166992188 159.666992188 154.5 149 c 0
 164.833007812 138.333007812 179.333007812 128.666992188 198 120 c 0
 216.666992188 111.333007812 237.333007812 107.166992188 260 107.5 c 0
 282.666992188 107.833007812 304.333007812 114 325 126 c 1
 339.666992188 136 348 145.666992188 350 155 c 0
 350 159.666992188 349.666992188 163.333007812 349 166 c 0
 346.333007812 170 342.666992188 174.333007812 338 179 c 1
 320.666992188 190.333007812 295 199.333007812 261 206 c 1
 260 206 l 1
 225.333007812 212.666992188 197.666992188 221.333007812 177 232 c 1
 149 249.333007812 130.833007812 268.333007812 122.5 289 c 0
 114.166992188 309.666992188 111.333007812 331 114 353 c 1
 122.666992188 395.666992188 148.666992188 432 192 462 c 1
 233.333007812 487.333007812 276.666992188 500 322 500 c 0
 367.333007812 500 413.666992188 481.333007812 461 444 c 1
 472.333007812 436.666992188 478.166992188 425.666992188 478.5 411 c 0
 478.833007812 396.333007812 473.666992188 383 463 371 c 0
 453.666992188 359 441.5 351.5 426.5 348.5 c 0
 411.5 345.5 398.666992188 348 388 356 c 0
 354 381.333007812 324.833007812 394 300.5 394 c 0
 276.166992188 394 256 387.666992188 240 375 c 1
 228.666992188 368.333007812 222 361 220 353 c 1
 220 345 l 1
 221.333007812 341.666992188 224.666992188 338.333007812 230 335 c 1
 241.333007812 325 263.666992188 317.333007812 297 312 c 1
 298 311 l 1
 299 311 l 1
 335 304.333007812 364.333007812 294.666992188 387 282 c 0
 440.610351562 253.9765625 462.943359375 211.643554688 454 155 c 1
 445.333007812 109.666992188 418 71.6669921875 372 41 c 1
 329.333007812 14.3330078125 283.666992188 1 235 1 c 0
 172.333007812 1.6669921875 117.666992188 24.6669921875 71 70 c 0
EndSplineSet
EndChar

StartChar: t
Encoding: 116 116 44
Width: 400
Flags: MW
HStem: 1 21G<146.667 169.333> 389 111<85.3335 142 113 123 253 259 113 233> 681 20G<222 237>
LayerCount: 2
Fore
SplineSet
188 685 m 0
 200.666992188 695.666992188 214.5 701 229.5 701 c 0
 244.5 701 256.5 695.666992188 265.5 685 c 0
 274.5 674.333007812 277.666992188 661.333007812 275 646 c 2
 253 500 l 1
 279 500 l 2
 294.333007812 500 306.333007812 494.5 315 483.5 c 0
 323.666992188 472.5 326.666992188 459.333007812 324 444 c 0
 321.333007812 428.666992188 313.666992188 415.666992188 301 405 c 0
 288.333007812 394.333007812 274.333007812 389 259 389 c 2
 233 389 l 1
 181 112 l 1
 196.333007812 112 208.5 106.5 217.5 95.5 c 0
 226.5 84.5 229.5 71.3330078125 226.5 56 c 0
 223.5 40.6669921875 215.666992188 27.6669921875 203 17 c 0
 190.333007812 6.3330078125 176.666992188 1 162 1 c 0
 131.333007812 1 107 11.8330078125 89 33.5 c 0
 71 55.1669921875 64.6669921875 81.3330078125 70 112 c 2
 123 389 l 1
 93 389 l 2
 77.6669921875 389 65.6669921875 394.5 57 405.5 c 0
 48.3330078125 416.5 45.3330078125 429.5 48 444.5 c 0
 50.6669921875 459.5 58.3330078125 472.5 71 483.5 c 0
 83.6669921875 494.5 97.6669921875 500 113 500 c 2
 142 500 l 1
 164 646 l 1
 167.333007812 661.333007812 175.333007812 674.333007812 188 685 c 0
EndSplineSet
EndChar

StartChar: A
Encoding: 65 65 45
Width: 646
Flags: MW
HStem: 0 21G<96.9604 121.667 548.333 566.063> 165 110<239 461 300 461 300 483> 680 20G<441.333 467.667>
LayerCount: 2
Fore
SplineSet
239 165 m 1
 167 36 l 2
 153.666992188 12 134.333007812 0 109 0 c 0
 84.9208984375 0 70.0869140625 10.6669921875 64.5 32 c 0
 60.8330078125 46 63 60.3330078125 71 75 c 2
 396 664 l 2
 408.666992188 688 428.166992188 700 454.5 700 c 0
 480.833007812 700 496.666992188 688 502 664 c 2
 619 75 l 2
 621.666992188 60.3330078125 618.666992188 46 610 32 c 0
 596.793945312 10.6669921875 578.126953125 0 554 0 c 0
 542.666992188 0 532.833007812 3.3330078125 524.5 10 c 0
 516.166992188 16.6669921875 511 25.3330078125 509 36 c 2
 483 165 l 1
 239 165 l 1
300 275 m 1
 461 275 l 1
 418 490 l 1
 300 275 l 1
EndSplineSet
EndChar

StartChar: u
Encoding: 117 117 46
Width: 613
Flags: MW
HStem: 1 107<280.333 304.333> 480 20G<199.667 214.333 512 527>
LayerCount: 2
Fore
SplineSet
479 484.5 m 0
 491 494.833007812 504.5 500 519.5 500 c 0
 534.5 500 546 494.833007812 554 484.5 c 0
 562 474.166992188 564.666992188 461.666992188 562 447 c 2
 521 210 l 2
 511 152.666992188 482 103.5 434 62.5 c 0
 386 21.5 333.166992188 1 275.5 1 c 0
 217.833007812 1 172.166992188 21.5 138.5 62.5 c 0
 104.833007812 103.5 93.3330078125 152.666992188 104 210 c 2
 145 447 l 2
 147.666992188 461.666992188 155 474.166992188 167 484.5 c 0
 179 494.833007812 192.333007812 500 207 500 c 0
 221.666992188 500 233.333007812 495 242 485 c 0
 250.666992188 475 253.666992188 462.333007812 251 447 c 2
 209 210 l 2
 204.333007812 182 210.333007812 158 227 138 c 0
 243.666992188 118 266.166992188 108 294.5 108 c 0
 322.833007812 108 348.666992188 118 372 138 c 0
 395.333007812 158 409.666992188 182 415 210 c 2
 457 447 l 2
 459.666992188 461.666992188 467 474.166992188 479 484.5 c 0
EndSplineSet
EndChar

StartChar: v
Encoding: 118 118 47
Width: 582
Flags: MW
HStem: -1 21G<198 198 198 199>
LayerCount: 2
Fore
SplineSet
198 -1 m 1
 187 1 l 2
 181.666992188 1 177.5 2.3330078125 174.5 5 c 0
 166.099609375 12.466796875 160.93359375 18.1337890625 159 22 c 1
 158 23 l 1
 156.666992188 27 155.666992188 29.6669921875 155 31 c 2
 60 421 l 2
 56.6669921875 434.333007812 58.8330078125 447.666992188 66.5 461 c 0
 74.1669921875 474.333007812 85.3330078125 483.833007812 100 489.5 c 0
 114.666992188 495.166992188 128.333007812 495.333007812 141 490 c 0
 153.666992188 484.666992188 161.333007812 475.333007812 164 462 c 2
 232 188 l 1
 395 462 l 2
 403 475.333007812 414.166992188 484.666992188 428.5 490 c 0
 442.833007812 495.333007812 456.333007812 495.333007812 469 490 c 0
 481 484 488.5 474.333007812 491.5 461 c 0
 494.5 447.666992188 492 434.333007812 484 421 c 2
 252 31 l 2
 251.333007812 29.6669921875 250.166992188 28 248.5 26 c 0
 246.833007812 24 246 22.8330078125 246 22.5 c 0
 246 22.1669921875 245.666992188 21.8330078125 245 21.5 c 0
 244.333007812 21.1669921875 243.5 20.3330078125 242.5 19 c 0
 241.5 17.6669921875 240.666992188 16.6669921875 240 16 c 2
 238 15 l 1
 234 11 231 9 229 9 c 1
 225 6.3330078125 222 4.6669921875 220 4 c 2
 219 4 l 1
 217 2 214 1 210 1 c 2
 199 -1 l 1
 198 -1 l 1
EndSplineSet
EndChar

StartChar: w
Encoding: 119 119 48
Width: 861
Flags: W
HStem: 2 21G<200 204 441 445> 3 21G
LayerCount: 2
Fore
SplineSet
181 6 m 1x40
 175 11 l 2
 174.333007812 11 174 11.1669921875 174 11.5 c 0
 174 12.5 172 14 168 16 c 1
 167 18 l 1
 164.333007812 20.6669921875 161.666992188 26 159 34 c 2
 65 420 l 2
 61.6669921875 433.333007812 63.8330078125 446.666992188 71.5 460 c 0
 79.1669921875 473.333007812 90.1669921875 482.833007812 104.5 488.5 c 0
 118.833007812 494.166992188 132.166992188 494.333007812 144.5 489 c 0
 156.833007812 483.666992188 164.666992188 474.333007812 168 461 c 2
 235 189 l 1
 335 357 l 2
 349 379.666992188 367.333007812 390.333007812 390 389 c 1
 414 390.333007812 428.666992188 379.666992188 434 357 c 2
 475 189 l 1
 638 461 l 2
 646 474.333007812 657.166992188 483.666992188 671.5 489 c 0
 685.833007812 494.333007812 699 494 711 488 c 1
 723.666992188 483.333007812 731.5 474.166992188 734.5 460.5 c 0
 737.5 446.833007812 735 433.333007812 727 420 c 2
 496 34 l 2
 493.333007812 30 491.333007812 27.3330078125 490 26 c 1
 490 24 l 1
 482 16 l 1
 476.666992188 13.3330078125 474 11.8330078125 474 11.5 c 0
 474 11.1669921875 473.666992188 10.8330078125 473 10.5 c 2
 464 6 l 2
 462 6 459 5 455 3 c 1
 452 3 l 2x40
 450 2.3330078125 447 2 443 2 c 0x80
 439 2 436 2.3330078125 434 3 c 2
 431 3 l 1
 428.333007812 4.3330078125 426 5 424 5 c 1
 423 6 l 1
 422 6 l 1
 418 8.6669921875 415.666992188 10.1669921875 415 10.5 c 0
 414.333007812 10.8330078125 414 11.1669921875 414 11.5 c 0
 414 13.388671875 412.333007812 14.888671875 409 16 c 1
 407 18 l 1
 404 24 l 2
 403.333007812 24.6669921875 402 28 400 34 c 2
 358 205 l 1
 255 34 l 1
 255 30.6669921875 253.333007812 28 250 26 c 0
 250 25.3330078125 247 22 241 16 c 1
 237 14 234.666992188 12.6669921875 234 12 c 0
 232.666992188 10.6669921875 229.333007812 8.6669921875 224 6 c 1
 223 6 l 2
 221 6 218 5 214 3 c 1
 211 3 l 2x40
 209 2.3330078125 206 2 202 2 c 0x80
 198 2 195 2.3330078125 193 3 c 2
 190 3 l 1
 186 5 183.333007812 6 182 6 c 2
 181 6 l 1x40
EndSplineSet
EndChar

StartChar: x
Encoding: 120 120 49
Width: 570
Flags: MW
HStem: 1 21G
LayerCount: 2
Fore
SplineSet
478 492.5 m 0
 492.666992188 494.833007812 505.166992188 491.666992188 515.5 483 c 0
 525.833007812 474.333007812 530.833007812 462.833007812 530.5 448.5 c 0
 530.166992188 434.166992188 524.666992188 421 514 409 c 2
 366 247 l 1
 456 84 l 2
 462.666992188 72.6669921875 463.666992188 59.8330078125 459 45.5 c 0
 454.333007812 31.1669921875 446 20.1669921875 434 12.5 c 0
 422 4.8330078125 409 1 395 1 c 0
 381 1 369.333007812 8 360 22 c 1
 285 158 l 1
 163 22 l 1
 149 8 134.666992188 1 120 1 c 0
 105.333007812 1 93.6669921875 4.8330078125 85 12.5 c 0
 76.3330078125 20.1669921875 72 31.1669921875 72 45.5 c 0
 72 59.8330078125 77.3330078125 72.6669921875 88 84 c 2
 236 247 l 1
 146 409 l 2
 139.333007812 421 138.333007812 434.166992188 143 448.5 c 0
 147.666992188 462.833007812 156.5 474.333007812 169.5 483 c 0
 182.5 491.666992188 196.166992188 494.833007812 210.5 492.5 c 0
 224.833007812 490.166992188 235.333007812 483 242 471 c 2
 317 336 l 1
 441 471 l 2
 451 483 463.333007812 490.166992188 478 492.5 c 0
EndSplineSet
EndChar

StartChar: y
Encoding: 121 121 50
Width: 588
Flags: MW
HStem: -179 108<199.333 219.333> -4 107<250.667 263.667> 480 20G<170 185 480.333 495.667>
LayerCount: 2
Fore
SplineSet
537 447 m 2
 469 62 l 2
 457.666992188 -4.6669921875 424.333007812 -61.5 369 -108.5 c 0
 313.666992188 -155.5 252.666992188 -179 186 -179 c 0
 148 -179 114 -170.666992188 84 -154 c 0
 72 -147.333007812 64.8330078125 -137 62.5 -123 c 0
 60.1669921875 -109 63.3330078125 -95.3330078125 72 -82 c 0
 81.3330078125 -68.6669921875 93.5 -59.6669921875 108.5 -55 c 0
 123.5 -50.3330078125 138.333007812 -51.8330078125 153 -59.5 c 0
 167.666992188 -67.1669921875 187.166992188 -71 211.5 -71 c 0
 235.833007812 -71 261.166992188 -62.6669921875 287.5 -46 c 0
 313.833007812 -29.3330078125 333.666992188 -7.3330078125 347 20 c 1
 315 4 281.333007812 -4 246 -4 c 0
 188 -4 142 16.6669921875 108 58 c 0
 74 99.3330078125 62 149 72 207 c 2
 114 447 l 2
 116.666992188 461.666992188 124.166992188 474.166992188 136.5 484.5 c 0
 148.833007812 494.833007812 162.5 500 177.5 500 c 0
 192.5 500 204.333007812 494.833007812 213 484.5 c 0
 221.666992188 474.166992188 224.666992188 461.666992188 222 447 c 2
 179 207 l 2
 173.666992188 178.333007812 179.5 153.833007812 196.5 133.5 c 0
 213.5 113.166992188 236.333007812 103 265 103 c 0
 293.666992188 103 320 113.166992188 344 133.5 c 0
 368 153.833007812 382.666992188 178.333007812 388 207 c 2
 429 447 l 2
 431 457.666992188 435.666992188 467 443 475 c 0
 457.666992188 491.666992188 472.666992188 500 488 500 c 0
 503.333007812 500 514.333007812 496.666992188 521 490 c 1
 535 480.666992188 540.333007812 466.333007812 537 447 c 2
EndSplineSet
EndChar

StartChar: z
Encoding: 122 122 51
Width: 554
Flags: W
HStem: -1 107<230 394> 392 107<168.667 483 194 358> 478 20G<489 494 494 494>
LayerCount: 2
Fore
SplineSet
62 53 m 1xa0
 66 64 l 1
 66 67.3330078125 67.6669921875 70.6669921875 71 74 c 1
 71 76 72 77 74 77 c 1
 75.3330078125 79.6669921875 76.6669921875 81.3330078125 78 82 c 1
 78 83 l 1
 358 392 l 1
 176 392 l 2
 161.333007812 392 149.666992188 397.333007812 141 408 c 0
 132.333007812 418.666992188 129.333007812 431.333007812 132 446 c 0
 134.666992188 460.666992188 142 473.166992188 154 483.5 c 0
 166 493.833007812 179.333007812 499 194 499 c 2
 483 499 l 2xc0
 485.666992188 499 487.666992188 498.666992188 489 498 c 2
 494 498 l 1
 498 496 l 2
 499.333007812 496 500.666992188 495.333007812 502 494 c 2
 511 490 l 1
 514.333007812 486.666992188 516.291992188 484.515625 516.875 483.546875 c 0
 517.458007812 482.578125 518.458007812 481.245117188 519.875 479.546875 c 0
 524.625 473.853515625 527 465.671875 527 455 c 1
 526 449 l 1
 526 445 l 1
 524 441 523 437.666992188 523 435 c 1
 514 420 l 1
 230 106 l 1
 412 106 l 2
 426.666992188 106 438.333007812 100.666992188 447 90 c 0
 455.666992188 79.3330078125 458.666992188 66.6669921875 456 52 c 0
 453.333007812 37.3330078125 446 24.8330078125 434 14.5 c 0
 422 4.1669921875 408.666992188 -1 394 -1 c 2
 106 -1 l 2
 94 -1 84.6669921875 2.3330078125 78 9 c 1
 77 9 l 1
 69.6669921875 16.3330078125 66 21.3330078125 66 24 c 1
 64.6669921875 25.3330078125 63.943359375 26.3896484375 63.830078125 27.169921875 c 0
 63.716796875 27.9501953125 63.1064453125 29.8935546875 62 33 c 1
 62 37 l 1
 61 43 l 2
 61 43.6669921875 61.3330078125 45.3330078125 62 48 c 2
 62 53 l 1xa0
EndSplineSet
EndChar

StartChar: ampersand
Encoding: 38 38 52
Width: 696
Flags: W
HStem: 0 111<271.667 303.333> 246 111<430.667 443> 459 241<363.333 484.667> 589 111<363.333 380.333>
LayerCount: 2
Fore
SplineSet
500 356 m 2xd0
 510 356 515 357 515 359 c 1
 516.333007812 359 517.333007812 361.333007812 518 366 c 0
 518.666992188 370.666992188 518.666992188 378.166992188 518 388.5 c 0
 517.333007812 398.833007812 522.166992188 410.333007812 532.5 423 c 0
 542.833007812 435.666992188 555.666992188 443.666992188 571 447 c 0
 586.333007812 450.333007812 599.833007812 447.833007812 611.5 439.5 c 0
 623.166992188 431.166992188 629.333007812 420.333007812 630 407 c 0
 633.075195312 345.5 612.075195312 300.166015625 567 271 c 0
 563 267.666992188 559.333007812 265.333007812 556 264 c 1
 553 240 l 1
 541 173.333007812 507.5 116.666992188 452.5 70 c 0
 397.5 23.3330078125 336.666992188 0 270 0 c 0
 203.333007812 0 150.833007812 23.3330078125 112.5 70 c 0
 74.1669921875 116.666992188 60.8330078125 174.333007812 72.5 243 c 0
 84.1669921875 311.666992188 120.333007812 369.666992188 181 417 c 1
 167.666992188 448.333007812 164.333007812 480.666992188 171 514 c 1
 179.666992188 565.333007812 205.333007812 609.166992188 248 645.5 c 0
 290.666992188 681.833007812 337.666992188 700 389 700 c 0
 440.333007812 700 481 681.833007812 511 645.5 c 0
 541 609.166992188 551.333007812 565.333007812 542 514 c 0
 539.333007812 498.666992188 531.666992188 485.666992188 519 475 c 0
 506.333007812 464.333007812 492.333007812 459 477 459 c 0xe0
 461.666992188 459 449.666992188 464.333007812 441 475 c 0
 432.333007812 485.666992188 429.5 500 432.5 518 c 0
 435.5 536 431 552.333007812 419 567 c 0
 407 581.666992188 390.666992188 589 370 589 c 0
 349.333007812 589 330.333007812 581.833007812 313 567.5 c 0
 295.666992188 553.166992188 285 534 281 510 c 0
 277 486 284 467 302 453 c 0
 312.666992188 444.333007812 318.166992188 433 318.5 419 c 0
 318.833007812 405 314.333007812 391.666992188 305 379 c 1
 304 379 l 1
 302 375 l 1
 296 369 291.5 365.333007812 288.5 364 c 0
 285.5 362.666992188 283.833007812 361.666992188 283.5 361 c 2
 277 357 l 1
 253 346.333007812 232.5 330.5 215.5 309.5 c 0
 198.5 288.5 187.166992188 262.833007812 181.5 232.5 c 0
 175.833007812 202.166992188 183.5 174.333007812 204.5 149 c 0
 225.5 123.666992188 253.833007812 111 289.5 111 c 0
 325.166992188 111 357.833007812 123.666992188 387.5 149 c 0
 418.073242188 175.107421875 436.573242188 207.44140625 443 246 c 1
 404.333007812 246 377.666992188 239.666992188 363 227 c 0
 354.333007812 219.295898438 350 208.629882812 350 195 c 1
 352 180.333007812 348.166992188 166.333007812 338.5 153 c 0
 324.483398438 133.666992188 306.650390625 124 285 124 c 0
 273 124 262.666992188 127.5 254 134.5 c 0
 245.333007812 141.5 240.333007812 151 239 163 c 1
 236.333007812 171.666992188 237 185.666992188 241 205 c 1
 247 245 266.666992188 278.666992188 300 306 c 0
 341.333007812 340 396.333007812 357 465 357 c 1
 498 356 l 1
 500 356 l 2xd0
EndSplineSet
EndChar

StartChar: at
Encoding: 64 64 53
Width: 980
Flags: MW
HStem: 2 111<362 389.333> 149 111<409 416> 444 111<446 465> 591 111<450.667 512>
LayerCount: 2
Fore
SplineSet
499 702 m 0
 595.666992188 702 672.166992188 667.833007812 728.5 599.5 c 0
 784.833007812 531.166992188 804.333007812 448.666992188 787 352 c 0
 777.666992188 296.666992188 755.333007812 243.333007812 720 192 c 1
 720 191 l 1
 712.666992188 182.333007812 706.666992188 175.666992188 702 171 c 2
 687 156 l 1
 659 130.666992188 630.333007812 114.666992188 601 108 c 0
 593 105.333007812 582.666992188 104 570 104 c 0
 557.333007812 104 544.833007812 107.666992188 532.5 115 c 0
 513.053710938 126.5625 500.220703125 145.5625 494 172 c 1
 462 156.666992188 431 149 401 149 c 0
 347 149 304.666992188 169 274 209 c 0
 243.333007812 249 233 296.5 243 351.5 c 0
 253 406.5 280.333007812 454.166992188 325 494.5 c 0
 369.666992188 534.833007812 419 555 473 555 c 0
 527 555 569.333007812 535 600 495 c 0
 630.666992188 455 641 407.333007812 631 352 c 0
 631 350 630.333007812 347.666992188 629 345 c 1
 629 341 l 1
 608 222 l 2
 608.666992188 222 611.333007812 223.666992188 616 227 c 0
 646.272460938 257.272460938 666.673828125 302.173828125 677.204101562 361.704101562 c 0
 687.734375 421.234375 673.833007812 474.333007812 635.5 521 c 0
 597.166992188 567.666992188 545 591 479 591 c 0
 413 591 352.5 567.666992188 297.5 521 c 0
 242.5 474.333007812 209.333007812 418 198 352 c 0
 186.666992188 286 200.166992188 229.666992188 238.5 183 c 0
 276.833007812 136.333007812 329 113 395 113 c 0
 417 113 436.333007812 115 453 119 c 0
 469.666992188 123 484 121.166992188 496 113.5 c 0
 508 105.833007812 514.5 94.6669921875 515.5 80 c 0
 516.5 65.3330078125 512 51.3330078125 502 38 c 0
 492 24.6669921875 479.333007812 16.3330078125 464 13 c 0
 433.333007812 5.6669921875 403.666992188 2 375 2 c 0
 278.333007812 2 201.833007812 36.1669921875 145.5 104.5 c 0
 89.1669921875 172.833007812 69.6669921875 255.333007812 87 352 c 0
 104.333007812 448.666992188 153.166992188 531.166992188 233.5 599.5 c 0
 313.833007812 667.833007812 402.333007812 702 499 702 c 0
368 286 m 1
 380 268.666992188 397.5 260 420.5 260 c 0
 443.5 260 464.833007812 269 484.5 287 c 0
 504.166992188 305 516.333007812 326.833007812 521 352.5 c 0
 525.666992188 378.166992188 520.666992188 400 506 418 c 1
 494 435.333007812 476.5 444 453.5 444 c 0
 430.5 444 409.166992188 435 389.5 417 c 0
 369.833007812 399 357.833007812 377 353.5 351 c 0
 349.166992188 325 354 303.333007812 368 286 c 1
EndSplineSet
EndChar

StartChar: parenleft
Encoding: 40 40 54
Width: 430
Flags: MW
HStem: -95 126 578 127<379 388>
LayerCount: 2
Fore
SplineSet
258 -95 m 2
 214 -95 178.333007812 -82.6669921875 151 -58 c 0
 79.6708984375 6.3701171875 60.0048828125 127.370117188 92 305 c 1
 122.813476562 482.54296875 183.813476562 602.54296875 275 665 c 0
 313.666992188 691.666992188 356 705 402 705 c 0
 419.333007812 705 433 698.833007812 443 686.5 c 0
 453 674.166992188 456.333007812 659.333007812 453 642 c 0
 449.666992188 624.666992188 440.833007812 609.666992188 426.5 597 c 0
 412.166992188 584.333007812 396.5 578 379.5 578 c 0
 362.5 578 347.166992188 573.5 333.5 564.5 c 0
 319.833007812 555.5 305.666992188 539.333007812 291 516 c 0
 257.666992188 465.333007812 233.666992188 395 219 305 c 1
 206.333007812 239 202.666992188 182.833007812 208 136.5 c 0
 213.333007812 90.1669921875 225 59.6669921875 243 45 c 0
 252.333007812 36.3330078125 265.666992188 31.8330078125 283 31.5 c 0
 300.333007812 31.1669921875 314 24.8330078125 324 12.5 c 0
 334 0.1669921875 337.5 -14.6669921875 334.5 -32 c 0
 331.5 -49.3330078125 322.666992188 -64.1669921875 308 -76.5 c 0
 293.333007812 -88.8330078125 277.333007812 -95 260 -95 c 2
 258 -95 l 2
EndSplineSet
EndChar

StartChar: parenright
Encoding: 41 41 55
Width: 430
Flags: MW
HStem: -95 127<131 140> 579 126
LayerCount: 2
Fore
SplineSet
261 705 m 2
 305 705 340.666992188 692.666992188 368 668 c 0
 439.329101562 603.629882812 458.995117188 482.629882812 427 305 c 1
 396.186523438 127.45703125 335.186523438 7.45703125 244 -55 c 0
 205.333007812 -81.6669921875 163 -95 117 -95 c 0
 99.6669921875 -95 86 -88.8330078125 76 -76.5 c 0
 66 -64.1669921875 62.6669921875 -49.3330078125 66 -32 c 0
 69.3330078125 -14.6669921875 78.1669921875 0.3330078125 92.5 13 c 0
 106.833007812 25.6669921875 122.5 32 139.5 32 c 0
 156.5 32 171.833007812 36.5 185.5 45.5 c 0
 199.166992188 54.5 213.333007812 70.6669921875 228 94 c 0
 261.333007812 144.666992188 285.333007812 215 300 305 c 1
 312.666992188 371 316.333007812 427.166992188 311 473.5 c 0
 305.666992188 519.833007812 294 550.333007812 276 565 c 0
 266.666992188 573.666992188 253.333007812 578.166992188 236 578.5 c 0
 218.666992188 578.833007812 205 585.166992188 195 597.5 c 0
 185 609.833007812 181.666992188 624.666992188 185 642 c 0
 187.666992188 659.333007812 196.333007812 674.166992188 211 686.5 c 0
 225.666992188 698.833007812 241.666992188 705 259 705 c 2
 261 705 l 2
EndSplineSet
EndChar

StartChar: plus
Encoding: 43 43 56
Width: 620
Flags: W
HStem: 155 246<214.667 220 134 229.333> 294 107<104.667 220 134 198 327 391 134 305> 294 246<104.667 308.333 112 308.333 305 308.333 293.667 391 305 305>
LayerCount: 2
Fore
SplineSet
413 401 m 2x40
 427 401 438.166992188 395.833007812 446.5 385.5 c 0
 454.833007812 375.166992188 457.666992188 362.666992188 455 348 c 0
 452.333007812 333.333007812 444.5 320.666992188 431.5 310 c 0
 418.5 299.333007812 405 294 391 294 c 2
 305 294 l 1x40
 287 208 l 2
 283.666992188 194 275.666992188 181.666992188 263 171 c 0
 250.333007812 160.333007812 236.666992188 155 222 155 c 0x80
 207.333007812 155 195.833007812 160.333007812 187.5 171 c 0
 179.166992188 181.666992188 176.666992188 194 180 208 c 2
 198 294 l 1
 112 294 l 2x40
 97.3330078125 294 86 299.333007812 78 310 c 0
 70 320.666992188 67.3330078125 333.333007812 70 348 c 0
 72.6669921875 362.666992188 80.3330078125 375.166992188 93 385.5 c 0
 105.666992188 395.833007812 119.333007812 401 134 401 c 2
 220 401 l 1x80
 237 487 l 2
 240.333007812 501 248.166992188 513.333007812 260.5 524 c 0
 272.833007812 534.666992188 286.333007812 540 301 540 c 0x20
 315.666992188 540 327.333007812 534.666992188 336 524 c 0
 344.666992188 513.333007812 347.333007812 501 344 487 c 2
 327 401 l 1
 413 401 l 2x40
EndSplineSet
EndChar

StartChar: zero
Encoding: 48 48 57
Width: 710
Flags: MW
HStem: -1 111<273.667 308.333 273.667 309.667> 588 111
LayerCount: 2
Fore
SplineSet
395 699 m 0
 432.333007812 699 465.333007812 689 494 669 c 0
 522.666992188 649 545 622 561 588 c 1
 594.333007812 522 602.833007812 442.5 586.5 349.5 c 0
 570.166992188 256.5 533.666992188 176.666992188 477 110 c 1
 415.666992188 36 347.333007812 -1 272 -1 c 0
 234.666992188 -1 201.666992188 9 173 29 c 0
 144.333007812 49 122 76 106 110 c 1
 72.6669921875 176 64.1669921875 255.5 80.5 348.5 c 0
 96.8330078125 441.5 134.833007812 523.166992188 194.5 593.5 c 0
 254.166992188 663.833007812 321 699 395 699 c 0
291 110 m 0
 325.666992188 110 362 132.166992188 400 176.5 c 0
 438 220.833007812 463.166992188 278.5 475.5 349.5 c 0
 487.833007812 420.5 482.833007812 478.333007812 460.5 523 c 0
 438.166992188 567.666992188 410 589.333007812 376 588 c 1
 342 589.333007812 307 569 271 527 c 0
 230.333007812 478.333007812 203.833007812 419 191.5 349 c 0
 179.166992188 279 184 221.666992188 206 177 c 0
 228 132.333007812 256.333007812 110 291 110 c 0
EndSplineSet
EndChar

StartChar: one
Encoding: 49 49 58
Width: 335
Flags: W
HStem: -1 21G<108.333 123.667> 678 20G<247 252 252 252> 679 20G<236 241 241 242.333>
LayerCount: 2
Fore
SplineSet
284 669 m 2xc0
 286 658 l 1
 286 647 l 1
 286 645 l 2
 286 644.333007812 285.666992188 644 285 644 c 2
 181 54 l 2
 178.333007812 38.6669921875 170.666992188 25.6669921875 158 15 c 0
 145.333007812 4.3330078125 131.333007812 -1 116 -1 c 0
 100.666992188 -1 88.6669921875 4.5 80 15.5 c 0
 71.3330078125 26.5 68.3330078125 39.3330078125 71 54 c 2
 158 547 l 1
 114 523 l 2
 103.333007812 517.666992188 93.3330078125 515 84 515 c 0
 64 515 49.6669921875 524 41 542 c 0
 35.6669921875 555.333007812 36.1669921875 569.5 42.5 584.5 c 0
 48.8330078125 599.5 59.3330078125 610.666992188 74 618 c 2
 210 691 l 2
 210 691.666992188 211.944335938 692.666992188 215.833007812 694 c 0
 219.72265625 695.333007812 221.77734375 696 222 696 c 2
 236 699 l 1
 241 699 l 2xa0
 243.666992188 699 245.666992188 698.666992188 247 698 c 2
 252 698 l 1
 266 692 l 2
 268.666992188 690.666992188 270 689.666992188 270 689 c 2
 277 682 l 2
 277.666992188 682 278 681.333007812 278 680 c 0
 278 678.666992188 278.666992188 677.5 280 676.5 c 0
 281.333007812 675.5 282 674.333007812 282 673 c 2
 283 672 l 2
 283 670.666992188 283.333007812 669.666992188 284 669 c 2xc0
EndSplineSet
EndChar

StartChar: two
Encoding: 50 50 59
Width: 590
Flags: MW
HStem: -2 111<262 455> 587 111<367 394.667>
LayerCount: 2
Fore
SplineSet
474 109 m 2
 489.333007812 109 501.5 103.5 510.5 92.5 c 0
 519.5 81.5 522.5 68.3330078125 519.5 53 c 0
 516.5 37.6669921875 508.666992188 24.6669921875 496 14 c 0
 483.333007812 3.3330078125 469.666992188 -2 455 -2 c 2
 98 -2 l 2
 81.3330078125 -2 68.8330078125 3.8330078125 60.5 15.5 c 0
 52.1669921875 27.1669921875 49.6669921875 40.6669921875 53 56 c 0
 56.3330078125 71.3330078125 64.6669921875 84.3330078125 78 95 c 2
 421 362 l 2
 453.666992188 388 473.166992188 418.666992188 479.5 454 c 0
 485.833007812 489.333007812 480 519.666992188 462 545 c 1
 440.666992188 573 412.333007812 587 377 587 c 0
 341.666992188 587 309.666992188 576 281 554 c 2
 245 526 l 2
 231.666992188 515.333007812 217.5 510.5 202.5 511.5 c 0
 187.5 512.5 175.833007812 518.5 167.5 529.5 c 0
 159.166992188 540.5 156.833007812 553.666992188 160.5 569 c 0
 164.166992188 584.333007812 172.333007812 597.333007812 185 608 c 2
 221 636 l 2
 274.333007812 677.333007812 334 698 400 698 c 0
 466 698 518.333007812 671.666992188 557 619 c 0
 590.333007812 573.666992188 601.333007812 517.833007812 590 451.5 c 0
 578.666992188 385.166992188 542.333007812 328 481 280 c 2
 262 109 l 1
 474 109 l 2
EndSplineSet
EndChar

StartChar: three
Encoding: 51 51 60
Width: 610
Flags: MW
HStem: 0 114<253 286> 587 113<245 568 273 414>
LayerCount: 2
Fore
SplineSet
441 473 m 1
 466.333007812 460.333007812 487 444 503 424 c 0
 543 376 557 317.833007812 545 249.5 c 0
 533 181.166992188 498.333007812 122.333007812 441 73 c 0
 383 24.3330078125 320 0 252 0 c 0
 184 0 129.666992188 24.3330078125 89 73 c 0
 80.3330078125 84.3330078125 77.3330078125 97.6669921875 80 113 c 0
 82.6669921875 128.333007812 90.6669921875 141.666992188 104 153 c 0
 117.333007812 164.333007812 131.666992188 170 147 170 c 0
 162.333007812 170 174.666992188 164.333007812 184 153 c 0
 205.333007812 127 234.5 114 271.5 114 c 0
 308.5 114 343 127 375 153 c 1
 405.666992188 179.666992188 424.333007812 211.666992188 431 249 c 0
 437.666992188 286.333007812 430.5 317.833007812 409.5 343.5 c 0
 388.5 369.166992188 359 382.666992188 321 384 c 1
 305 383.333007812 292 389.333007812 282 402 c 1
 272.314453125 411.685546875 268.7265625 424.7734375 271.236328125 441.263671875 c 0
 273.745117188 457.754882812 281.333007812 471.666992188 294 483 c 2
 414 587 l 1
 253 587 l 2
 237 587 224.5 592.5 215.5 603.5 c 0
 206.5 614.5 203.333007812 627.833007812 206 643.5 c 0
 208.666992188 659.166992188 216.5 672.5 229.5 683.5 c 0
 242.5 694.5 257 700 273 700 c 2
 568 700 l 2
 583.333007812 700 595.5 694.5 604.5 683.5 c 0
 619.641601562 664.993164062 619.141601562 642.827148438 603 617 c 0
 597.666992188 610.333007812 593.333007812 605.666992188 590 603 c 2
 441 473 l 1
EndSplineSet
EndChar

StartChar: four
Encoding: 52 52 61
Width: 664
Flags: W
HStem: -2 241<235 454.667> 128 111<235 415 235 535 235 525> 677 20G 678 20G<568 573 573 574>
LayerCount: 2
Fore
SplineSet
573 698 m 2x10
 575 698 577.604492188 697.833007812 580.8125 697.5 c 0
 588.01953125 696.750976562 594.749023438 693.250976562 601 687 c 0
 601.666992188 687 602 686.833007812 602 686.5 c 0
 602 686.166992188 602.333007812 686 603 686 c 2
 605 684 l 1
 607.391601562 684 609.65625 680.5 611.793945312 673.5 c 0
 613.931640625 666.5 615.333007812 662.666992188 616 662 c 2
 616 656 l 2
 616.666992188 655.333007812 617 654 617 652 c 2
 616 645 l 1
 616 643 l 1
 545 239 l 1
 555 239 l 2
 570.333007812 239 582.333007812 233.5 591 222.5 c 0
 599.666992188 211.5 602.666992188 198.5 600 183.5 c 0
 597.333007812 168.5 589.666992188 155.5 577 144.5 c 0
 564.333007812 133.5 550.333007812 128 535 128 c 2
 525 128 l 1x50
 512 53 l 2
 509.333007812 37.6669921875 501.666992188 24.6669921875 489 14 c 0
 476.333007812 3.3330078125 462.333007812 -2 447 -2 c 0x80
 431.666992188 -2 419.5 3.3330078125 410.5 14 c 0
 401.5 24.6669921875 398.333007812 37.6669921875 401 53 c 2
 415 128 l 1
 100 128 l 2
 87.3330078125 128 76.1669921875 132.5 66.5 141.5 c 0
 56.8330078125 150.5 52.6669921875 162.666992188 54 178 c 0
 55.3330078125 193.333007812 61.6669921875 206.666992188 73 218 c 2
 524 677 l 2x60
 524 678.333007812 524.666992188 679 526 679 c 2
 531 684 l 1
 545 692 l 1
 551 695 l 1
 557.666992188 696.333007812 561.5 697.166992188 562.5 697.5 c 0
 563.5 697.833007812 565.333007812 698 568 698 c 2
 573 698 l 2x10
235 239 m 1x80
 434 239 l 1
 478 486 l 1
 235 239 l 1x80
EndSplineSet
EndChar

StartChar: five
Encoding: 53 53 62
Width: 605
Flags: MW
HStem: 1 113 384 114<318.5 328> 588 113<291 537 291 291>
LayerCount: 2
Fore
SplineSet
117 367 m 2
 117 375 l 2
 116.333007812 379.666992188 117 385.333007812 119 392 c 2
 195 650 l 2
 200.333007812 668 211 681.333007812 227 690 c 0
 227.666992188 690 229 691 231 693 c 0
 241.666992188 698.333007812 252 701 262 701 c 2
 557 701 l 2
 572.333007812 701 584.5 695.5 593.5 684.5 c 0
 602.5 673.5 605.666992188 660.166992188 603 644.5 c 0
 600.333007812 628.833007812 592.5 615.5 579.5 604.5 c 0
 566.5 593.5 552.333007812 588 537 588 c 2
 291 588 l 1
 261 489 l 1
 284 495 307 498 330 498 c 0
 398 498 452 473.833007812 492 425.5 c 0
 532 377.166992188 546 318.666992188 534 250 c 0
 522 181.333007812 487.166992188 122.666992188 429.5 74 c 0
 371.833007812 25.3330078125 308.666992188 1 240 1 c 0
 171.333007812 1 117.666992188 25.3330078125 79 74 c 0
 69.6669921875 85.3330078125 66.3330078125 98.6669921875 69 114 c 0
 71.6669921875 129.333007812 79.5 142.5 92.5 153.5 c 0
 105.5 164.5 120 170 136 170 c 0
 152 170 164.333007812 164.666992188 173 154 c 0
 193.666992188 128.666992188 223 115.333007812 261 114 c 1
 299 115.333007812 333.333007812 128.666992188 364 154 c 1
 394.666992188 180.666992188 413.666992188 212.666992188 421 250 c 0
 427.666992188 287.333007812 420 319 398 345 c 0
 376 371 346.5 384 309.5 384 c 0
 272.5 384 238.333007812 371 207 345 c 0
 194.333007812 333.666992188 178.56640625 328 159.700195312 328 c 0
 140.833007812 328 127.266601562 338.333007812 119 359 c 1
 119 361 l 2
 118.333007812 361.666992188 118 362.666992188 118 364 c 0
 118 365.333007812 117.666992188 366.333007812 117 367 c 2
EndSplineSet
EndChar

StartChar: six
Encoding: 54 54 63
Width: 642
Flags: MW
HStem: 2 111<277.667 312.333> 376 111<346.333 361.333> 592 110
LayerCount: 2
Fore
SplineSet
362 487 m 0
 429.333007812 487 482.5 463.166992188 521.5 415.5 c 0
 560.5 367.833007812 574 310.5 562 243.5 c 0
 550 176.5 516.166992188 119.5 460.5 72.5 c 0
 404.833007812 25.5 344.666992188 2 280 2 c 0
 215.333007812 2 163.5 22.8330078125 124.5 64.5 c 0
 85.5 106.166992188 68.6669921875 158 74 220 c 1
 73 221 l 1
 83.1123046875 317.065429688 109.4453125 404.731445312 152 484 c 1
 194.666992188 560 247.666992188 617 311 655 c 0
 360.333007812 684.333007812 413.333007812 700 470 702 c 0
 485.333007812 702.666992188 497.666992188 697.833007812 507 687.5 c 0
 516.333007812 677.166992188 520 664.333007812 518 649 c 0
 516 633.666992188 508.833007812 620.5 496.5 609.5 c 0
 484.166992188 598.5 470.333007812 592.666992188 455 592 c 0
 419.666992188 590 386.666992188 580.333007812 356 563 c 1
 321.946289062 541.918945312 290.612304688 509.918945312 262 467 c 1
 297.333007812 480.333007812 330.666992188 487 362 487 c 0
296 113 m 0
 332.666992188 113 366 125.833007812 396 151.5 c 0
 426 177.166992188 444.333007812 208.166992188 451 244.5 c 0
 457.666992188 280.833007812 450.5 311.833007812 429.5 337.5 c 0
 408.5 363.166992188 379.666992188 376 343 376 c 0
 306.333007812 376 272.833007812 363.166992188 242.5 337.5 c 0
 212.166992188 311.833007812 193.833007812 280.833007812 187.5 244.5 c 0
 181.166992188 208.166992188 188.5 177.166992188 209.5 151.5 c 0
 230.5 125.833007812 259.333007812 113 296 113 c 0
EndSplineSet
EndChar

StartChar: seven
Encoding: 55 55 64
Width: 587
Flags: MW
HStem: -2 21G<115.667 130> 587 111<121.333 489 148 387>
LayerCount: 2
Fore
SplineSet
535 659 m 2
 535.666992188 658.333007812 536 655.166992188 536 649.5 c 0
 536 643.833007812 535.166992188 638.5 533.5 633.5 c 0
 531.833007812 628.5 529.666992188 624.333007812 527 621 c 2
 175 32 l 2
 161 9.3330078125 142 -2 118 -2 c 0
 113.333007812 -2 106.333007812 -0.6669921875 97 2 c 1
 84.3330078125 8 76.3330078125 18.1669921875 73 32.5 c 0
 69.6669921875 46.8330078125 72.3330078125 61 81 75 c 2
 387 587 l 1
 129 587 l 2
 113.666992188 587 101.5 592.5 92.5 603.5 c 0
 83.5 614.5 80.3330078125 627.666992188 83 643 c 0
 86.3330078125 658.333007812 94.3330078125 671.333007812 107 682 c 0
 119.666992188 692.666992188 133.333007812 698 148 698 c 2
 489 698 l 2
 503 698 515.333007812 692.666992188 526 682 c 0
 526.666992188 680.666992188 527.666992188 679 529 677 c 0
 531 674 532 672.083007812 532 671.25 c 0
 532 670.416992188 532.333007812 669.833007812 533 669.5 c 0
 533.666992188 669.166992188 534 668.333007812 534 667 c 0
 534 665.666992188 534.333007812 664.666992188 535 664 c 2
 535 659 l 2
EndSplineSet
EndChar

StartChar: eight
Encoding: 56 56 65
Width: 630
Flags: MW
HStem: -2 109<276.667 308.333> 366 111 589 109<376.333 387.333>
LayerCount: 2
Fore
SplineSet
484 435 m 1
 512.666992188 413 533.5 384.5 546.5 349.5 c 0
 559.5 314.5 562.666992188 276.666992188 556 236 c 0
 544.666992188 170.666992188 511.5 114.666992188 456.5 68 c 0
 401.5 21.3330078125 341.166992188 -2 275.5 -2 c 0
 209.833007812 -2 157.666992188 21.3330078125 119 68 c 0
 80.3330078125 114.666992188 67 170.666992188 79 236 c 0
 85.6669921875 276.666992188 101.666992188 314.5 127 349.5 c 0
 152.333007812 384.5 183.333007812 413 220 435 c 1
 203.333007812 463.666992188 198.666992188 498.5 206 539.5 c 0
 213.333007812 580.5 236 617.166992188 274 649.5 c 0
 312 681.833007812 353.666992188 698 399 698 c 0
 444.333007812 698 480.333007812 681.833007812 507 649.5 c 0
 533.666992188 617.166992188 543.166992188 580.333007812 535.5 539 c 0
 527.833007812 497.666992188 510.666992188 463 484 435 c 1
416.5 572.5 m 0
 407.5 583.5 395.166992188 589 379.5 589 c 0
 363.833007812 589 349.666992188 583.5 337 572.5 c 0
 324.333007812 561.5 316.5 548.5 313.5 533.5 c 0
 310.5 518.5 313.666992188 505.5 323 494.5 c 0
 332.333007812 483.5 344.666992188 477.666992188 360 477 c 1
 375.333007812 477.666992188 389.333007812 483.333007812 402 494 c 0
 414.666992188 504.666992188 422.666992188 517.666992188 426 533 c 0
 428.666992188 548.333007812 425.5 561.5 416.5 572.5 c 0
209.5 145 m 0
 230.5 119.666992188 258.833007812 107 294.5 107 c 0
 330.166992188 107 362.833007812 119.666992188 392.5 145 c 0
 422.166992188 170.333007812 440.166992188 200.833007812 446.5 236.5 c 0
 452.833007812 272.166992188 445.666992188 302.666992188 425 328 c 0
 404.333007812 353.333007812 376 366 340 366 c 0
 304 366 271.166992188 353.333007812 241.5 328 c 0
 211.833007812 302.666992188 193.833007812 272.166992188 187.5 236.5 c 0
 181.166992188 200.833007812 188.5 170.333007812 209.5 145 c 0
EndSplineSet
EndChar

StartChar: nine
Encoding: 57 57 66
Width: 642
Flags: MW
HStem: -1 111 215 110<290.667 306.333> 588 111<338.667 373.333>
LayerCount: 2
Fore
SplineSet
578 482 m 1
 578 480 l 1
 567.603515625 381.231445312 541.00390625 293.5390625 498.202148438 216.922851562 c 0
 455.400390625 140.307617188 402.666992188 83.3330078125 340 46 c 0
 290 16.6669921875 237.333007812 1 182 -1 c 1
 179 -1 l 2
 164.333007812 -1 152.5 4.1669921875 143.5 14.5 c 0
 134.5 24.8330078125 131.166992188 37.5 133.5 52.5 c 0
 135.833007812 67.5 143.166992188 80.6669921875 155.5 92 c 0
 167.833007812 103.333007812 181.666992188 109.333007812 197 110 c 0
 231.666992188 110.666992188 263.666992188 119.5 293 136.5 c 0
 322.333007812 153.5 348.333007812 177.666992188 371 209 c 1
 377.666992188 216.333007812 383.666992188 225 389 235 c 1
 357 221.666992188 323.666992188 215 289 215 c 0
 222.333007812 215 169.5 238.5 130.5 285.5 c 0
 91.5 332.5 77.8330078125 389.5 89.5 456.5 c 0
 101.166992188 523.5 134.833007812 580.666992188 190.5 628 c 0
 246.166992188 675.333007812 306.333007812 699 371 699 c 0
 435.666992188 699 487.5 678.166992188 526.5 636.5 c 0
 565.5 594.833007812 582.666992188 543.333007812 578 482 c 1
309 325 m 0
 345.666992188 325 379 337.833007812 409 363.5 c 0
 439 389.166992188 457.333007812 420.166992188 464 456.5 c 0
 470.666992188 492.833007812 463.333007812 523.833007812 442 549.5 c 0
 420.666992188 575.166992188 391.666992188 588 355 588 c 0
 318.333007812 588 285 575.166992188 255 549.5 c 0
 225 523.833007812 206.666992188 492.833007812 200 456.5 c 0
 193.333007812 420.166992188 200.666992188 389.166992188 222 363.5 c 0
 243.333007812 337.833007812 272.333007812 325 309 325 c 0
EndSplineSet
EndChar

StartChar: exclam
Encoding: 33 33 67
Width: 252
Flags: MW
HStem: 1 132<136.333 174.667> 681 20G<259.333 274.667>
LayerCount: 2
Fore
SplineSet
267 701 m 0
 282.333007812 701 294.5 695.5 303.5 684.5 c 0
 312.5 673.5 315.666992188 660.333007812 313 645 c 2
 248 275 l 2
 244.666992188 259.666992188 236.666992188 246.5 224 235.5 c 0
 211.333007812 224.5 197.333007812 219 182 219 c 0
 166.666992188 219 154.666992188 224.5 146 235.5 c 0
 137.333007812 246.5 134.333007812 259.666992188 137 275 c 2
 202 645 l 2
 204.666992188 660.333007812 212.333007812 673.5 225 684.5 c 0
 237.666992188 695.5 251.666992188 701 267 701 c 0
167 133 m 0
 182.333007812 133 194.5 127.666992188 203.5 117 c 0
 212.5 106.333007812 215.666992188 93.3330078125 213 78 c 2
 209 56 l 2
 206.333007812 40.6669921875 198.666992188 27.6669921875 186 17 c 0
 173.333007812 6.3330078125 159.333007812 1 144 1 c 0
 128.666992188 1 116.5 6.3330078125 107.5 17 c 0
 98.5 27.6669921875 95.3330078125 40.6669921875 98 56 c 2
 102 78 l 2
 104.666992188 92.6669921875 112.333007812 105.5 125 116.5 c 0
 137.666992188 127.5 151.666992188 133 167 133 c 0
EndSplineSet
EndChar

StartChar: question
Encoding: 63 63 68
Width: 534
Flags: MW
HStem: -1 123<136.333 171.667> 143 216<161 222.333> 596 103<246 264.333>
LayerCount: 2
Fore
SplineSet
125.5 107 m 0
 137.166992188 117 150.166992188 122 164.5 122 c 0
 178.833007812 122 190.166992188 117 198.5 107 c 0
 206.833007812 97 209.666992188 84.6669921875 207 70 c 2
 204 51 l 2
 201.333007812 36.3330078125 194.166992188 24 182.5 14 c 0
 170.833007812 4 157.833007812 -1 143.5 -1 c 0
 129.166992188 -1 117.833007812 4 109.5 14 c 0
 101.166992188 24 98.3330078125 36.3330078125 101 51 c 2
 104 70 l 2
 106.666992188 84.6669921875 113.833007812 97 125.5 107 c 0
266 699 m 0
 327.333007812 699 375.666992188 677.333007812 411 634 c 0
 446.333007812 590.666992188 459.166992188 540.833007812 449.5 484.5 c 0
 439.833007812 428.166992188 415.5 380 376.5 340 c 0
 337.5 300 292.333007812 274.333007812 241 263 c 1
 228 194 l 2
 225.333007812 179.333007812 218.166992188 167.166992188 206.5 157.5 c 0
 194.833007812 147.833007812 182 143 168 143 c 0
 154 143 142.833007812 147.833007812 134.5 157.5 c 0
 126.166992188 167.166992188 123.333007812 179.333007812 126 194 c 2
 145 304 l 1
 146 306 l 1
 146 308 l 1
 148.666992188 322 155.833007812 334 167.5 344 c 0
 179.166992188 354 192 359 206 359 c 0
 238.666992188 359 268.666992188 370.5 296 393.5 c 0
 323.333007812 416.5 339.833007812 444.5 345.5 477.5 c 0
 351.166992188 510.5 344.5 538.5 325.5 561.5 c 0
 306.5 584.5 280.666992188 596 248 596 c 0
 202 596 164.333007812 576.333007812 135 537 c 0
 125.666992188 525 114 517.166992188 100 513.5 c 0
 86 509.833007812 73.3330078125 511.5 62 518.5 c 0
 50.6669921875 525.5 44.3330078125 535.833007812 43 549.5 c 0
 41.6669921875 563.166992188 45.6669921875 576.333007812 55 589 c 0
 80.3330078125 622.333007812 111.833007812 649 149.5 669 c 0
 187.166992188 689 226 699 266 699 c 0
EndSplineSet
EndChar

StartChar: less
Encoding: 60 60 69
Width: 620
Flags: MW
HStem: 1 21G<338.667 356.333>
LayerCount: 2
Fore
SplineSet
62 355 m 1
 62 359.666992188 63.3330078125 363.333007812 66 366 c 1
 69.6669921875 377 77 387 88 396 c 2
 422 682 l 2
 436.666992188 694.666992188 452.833007812 701 470.5 701 c 0
 488.166992188 701 502.166992188 694.666992188 512.5 682 c 0
 522.833007812 669.333007812 526.5 654.333007812 523.5 637 c 0
 520.5 619.666992188 511.666992188 604.666992188 497 592 c 2
 215 351 l 1
 412 110 l 2
 422 97.3330078125 425.5 82.1669921875 422.5 64.5 c 0
 419.5 46.8330078125 410.666992188 31.8330078125 396 19.5 c 0
 381.333007812 7.1669921875 365.166992188 1 347.5 1 c 0
 329.833007812 1 315.666992188 7.3330078125 305 20 c 2
 72 306 l 2
 65.3330078125 312.666992188 62 319.666992188 62 327 c 1
 60.6669921875 329.666992188 60 333.666992188 60 339 c 1
 61 344 l 1
 61 351 l 1
 62 355 l 1
EndSplineSet
EndChar

StartChar: greater
Encoding: 62 62 70
Width: 620
Flags: MW
HStem: 1 21G<143.333 161.667>
LayerCount: 2
Fore
SplineSet
562 368 m 2
 562 357 l 2
 562 351.666992188 561.333007812 348.333007812 560 347 c 1
 560 342.333007812 559.166992188 339.166992188 557.5 337.5 c 1
 557 336 l 2
 556.333007812 335.333007812 554.333007812 332 551 326 c 0
 547.666992188 320 545.333007812 316.666992188 544 316 c 2
 543 314 l 1
 535 306 l 1
 200 20 l 2
 186.666992188 7.3330078125 170.833007812 1 152.5 1 c 0
 134.166992188 1 119.833007812 7.1669921875 109.5 19.5 c 0
 99.1669921875 31.8330078125 95.6669921875 46.8330078125 99 64.5 c 0
 102.333007812 82.1669921875 111.333007812 97.3330078125 126 110 c 2
 408 351 l 1
 211 592 l 2
 200.333007812 604.666992188 196.666992188 619.666992188 200 637 c 0
 203.333007812 654.333007812 212.333007812 669.333007812 227 682 c 0
 241.666992188 694.666992188 257.833007812 701 275.5 701 c 0
 293.166992188 701 307 694.666992188 317 682 c 2
 551 396 l 2
 553.666992188 392 555.333007812 389 556 387 c 2
 557 386 l 1
 558.333007812 382 559.333007812 379.333007812 560 378 c 0
 560.666992188 376.666992188 561 375 561 373 c 0
 561 371 561.333007812 369.333007812 562 368 c 2
EndSplineSet
EndChar

StartChar: equal
Encoding: 61 61 71
Width: 620
Flags: MW
HStem: 259 72<110 301 115 301> 372 70<110 301 115 301>
LayerCount: 2
Fore
SplineSet
115 259 m 2
 105 259 96.5 262.5 89.5 269.5 c 0
 82.5 276.5 79 285 79 295 c 0
 79 305 82.5 313.5 89.5 320.5 c 0
 96.5 327.5 105 331 115 331 c 2
 301 331 l 2
 311 331 319.333007812 327.5 326 320.5 c 0
 332.666992188 313.5 336 305 336 295 c 0
 336 285 332.666992188 276.5 326 269.5 c 0
 319.333007812 262.5 311 259 301 259 c 2
 115 259 l 2
115 372 m 2
 105 372 96.5 375.333007812 89.5 382 c 0
 82.5 388.666992188 79 396.833007812 79 406.5 c 0
 79 416.166992188 82.5 424.5 89.5 431.5 c 0
 96.5 438.5 105 442 115 442 c 2
 301 442 l 2
 311 442 319.333007812 438.5 326 431.5 c 0
 332.666992188 424.5 336 416.166992188 336 406.5 c 0
 336 396.833007812 332.666992188 388.666992188 326 382 c 0
 319.333007812 375.333007812 311 372 301 372 c 2
 115 372 l 2
EndSplineSet
EndChar

StartChar: period
Encoding: 46 46 72
Width: 230
Flags: MW
HStem: 0 99<125.333 138.667>
VStem: 82 99<43.3335 56.6665>
LayerCount: 2
Fore
SplineSet
181 50 m 0
 181 36.6669921875 176.166992188 25 166.5 15 c 0
 156.833007812 5 145.333007812 0 132 0 c 0
 118.666992188 0 107 5 97 15 c 0
 87 25 82 36.6669921875 82 50 c 0
 82 63.3330078125 87 74.8330078125 97 84.5 c 0
 107 94.1669921875 118.666992188 99 132 99 c 0
 145.333007812 99 156.833007812 94.1669921875 166.5 84.5 c 0
 176.166992188 74.8330078125 181 63.3330078125 181 50 c 0
EndSplineSet
EndChar

StartChar: comma
Encoding: 44 44 73
Width: 230
Flags: MW
HStem: -67 21G<68 72 72 75> 1 97<93.3335 101>
VStem: 54 98<42.3335 48.5 28.3335 55.6665>
LayerCount: 2
Fore
SplineSet
151.5 55 m 0
 151.833007812 53.6669921875 152 51.5 152 48.5 c 2
 152 39 l 2
 152 17.6669921875 146.5 -3.5 135.5 -24.5 c 0
 124.5 -45.5 104.333007812 -59.6669921875 75 -67 c 1
 72 -67 l 2
 64 -67 59 -62.8330078125 57 -54.5 c 0
 55 -46.1669921875 59 -40.3330078125 69 -37 c 1
 89.6669921875 -32.3330078125 104.666992188 -19.3330078125 114 2 c 1
 112 1.3330078125 106 1 96 1 c 0
 86 1 76.5 5.6669921875 67.5 15 c 0
 58.5 24.3330078125 54 35.6669921875 54 49 c 0
 54 62.3330078125 58.5 73.8330078125 67.5 83.5 c 0
 76.5 93.1669921875 87.1669921875 98 99.5 98 c 0
 111.833007812 98 122.5 94.3330078125 131.5 87 c 0
 140.5 79.6669921875 146.333007812 70.3330078125 149 59 c 0
 149 58.3330078125 149.666992188 58 151 58 c 1
 151 57.3330078125 151.166992188 56.3330078125 151.5 55 c 0
EndSplineSet
EndChar

StartChar: colon
Encoding: 58 58 74
Width: 240
Flags: MW
HStem: 0 99<126 156.667> 423 99<199.333 230.667>
LayerCount: 2
Fore
SplineSet
182 84.5 m 0
 190 74.8330078125 192.833007812 63.3330078125 190.5 50 c 0
 188.166992188 36.6669921875 181.166992188 25 169.5 15 c 0
 157.833007812 5 145.5 0 132.5 0 c 0
 119.5 0 108.833007812 5 100.5 15 c 0
 92.1669921875 25 89 36.6669921875 91 50 c 0
 93.6669921875 63.3330078125 100.833007812 74.8330078125 112.5 84.5 c 0
 124.166992188 94.1669921875 136.666992188 99 150 99 c 0
 163.333007812 99 174 94.1669921875 182 84.5 c 0
264 473 m 0
 261.333007812 459.666992188 254.333007812 448 243 438 c 0
 231.666992188 428 219.333007812 423 206 423 c 0
 192.666992188 423 181.833007812 428.166992188 173.5 438.5 c 0
 165.166992188 448.833007812 162.333007812 460.5 165 473.5 c 0
 167.666992188 486.5 174.833007812 497.833007812 186.5 507.5 c 0
 198.166992188 517.166992188 210.666992188 522 224 522 c 0
 237.333007812 522 248 517.166992188 256 507.5 c 0
 264 497.833007812 266.666992188 486.333007812 264 473 c 0
EndSplineSet
EndChar

StartChar: semicolon
Encoding: 59 59 75
Width: 240
Flags: MW
HStem: -65 21G<68 72 72 75> 421 99<192.333 224.667>
LayerCount: 2
Fore
SplineSet
257 471 m 0
 254.333007812 457.666992188 247.333007812 446 236 436 c 0
 224.666992188 426 212.333007812 421 199 421 c 0
 185.666992188 421 174.833007812 426.166992188 166.5 436.5 c 0
 158.166992188 446.833007812 155.333007812 458.5 158 471.5 c 0
 160.666992188 484.5 168 495.833007812 180 505.5 c 0
 192 515.166992188 204.666992188 520 218 520 c 0
 231.333007812 520 241.833007812 515.166992188 249.5 505.5 c 0
 257.166992188 495.833007812 259.666992188 484.333007812 257 471 c 0
175 60 m 1
 175 23.7099609375 160 -8.4560546875 130 -36.5 c 0
 114.666992188 -50.8330078125 96.3330078125 -60.3330078125 75 -65 c 1
 72 -65 l 2
 64 -65 60 -61 60 -53 c 1
 58.6669921875 -45 63.6669921875 -39 75 -35 c 1
 97 -30.3330078125 114.666992188 -17.3330078125 128 4 c 1
 125.333007812 3.3330078125 119 3 109 3 c 0
 99 3 90.5 7.6669921875 83.5 17 c 0
 76.5 26.3330078125 74.3330078125 37.6669921875 77 51 c 0
 79.6669921875 64.3330078125 86.3330078125 75.8330078125 97 85.5 c 0
 107.666992188 95.1669921875 119.166992188 100 131.5 100 c 0
 143.833007812 100 153.833007812 96.3330078125 161.5 89 c 0
 169.166992188 81.6669921875 173 75 173 69 c 0
 173 63 173.666992188 60 175 60 c 1
EndSplineSet
EndChar

StartChar: quoteright
Encoding: 256 8217 76
Width: 230
Flags: MW
HStem: 418 21G<79.6665 107> 685 20G<152 173>
VStem: 93 140<574.667 638 574.667 647.667>
LayerCount: 2
Fore
SplineSet
59 446 m 0
 59 459.333007812 66.6669921875 468.333007812 82 473 c 0
 129.333007812 487.666992188 152 517.666992188 150 563 c 1
 134 567 120.5 574.833007812 109.5 586.5 c 0
 98.5 598.166992188 93 612.666992188 93 630 c 2
 93 638 l 2
 93 657.333007812 99.3330078125 673.333007812 112 686 c 0
 124.666992188 698.666992188 141.5 705 162.5 705 c 0
 183.5 705 200.5 697 213.5 681 c 0
 226.5 665 233 643.666992188 233 617 c 2
 233 607 l 2
 233 542.333007812 217.666992188 494.666992188 187 464 c 0
 156.333007812 433.333007812 124 418 90 418 c 0
 69.3330078125 418 59 427.333007812 59 446 c 0
EndSplineSet
EndChar

StartChar: quoteleft
Encoding: 257 8216 77
Width: 230
Flags: MW
HStem: 417 21G<137 158> 684 20G<203.333 231.333>
VStem: 77 140<474.333 515 474.333 547.667>
LayerCount: 2
Fore
SplineSet
252 676 m 0
 252 662.666992188 244 653.666992188 228 649 c 0
 180.666992188 634.333007812 158 604.666992188 160 560 c 1
 176 555.333007812 189.5 547 200.5 535 c 0
 211.5 523 217 508.666992188 217 492 c 2
 217 484 l 2
 217 464.666992188 210.666992188 448.666992188 198 436 c 0
 185.333007812 423.333007812 168.5 417 147.5 417 c 0
 126.5 417 109.5 425 96.5 441 c 0
 83.5 457 77 478.333007812 77 505 c 2
 77 515 l 2
 77 580.333007812 93.6669921875 629 127 661 c 1
 154.333007812 689.666992188 185.666992188 704 221 704 c 0
 241.666992188 704 252 694.666992188 252 676 c 0
EndSplineSet
EndChar

StartChar: quotedblright
Encoding: 258 8221 78
Width: 410
Flags: MW
HStem: 418 21G<79.6665 107 310.667 338.667> 685 20G<152 173 384 405>
VStem: 93 140<574.667 638 574.667 647.667> 325 140<574.333 638 574.333 647.667>
LayerCount: 2
Fore
SplineSet
59 446 m 0
 59 459.333007812 66.6669921875 468.333007812 82 473 c 0
 129.333007812 487.666992188 152 517.666992188 150 563 c 1
 134 567 120.5 574.833007812 109.5 586.5 c 0
 98.5 598.166992188 93 612.666992188 93 630 c 2
 93 638 l 2
 93 657.333007812 99.3330078125 673.333007812 112 686 c 0
 124.666992188 698.666992188 141.5 705 162.5 705 c 0
 183.5 705 200.5 697 213.5 681 c 0
 226.5 665 233 643.666992188 233 617 c 2
 233 607 l 2
 233 542.333007812 217.666992188 494.666992188 187 464 c 0
 156.333007812 433.333007812 124 418 90 418 c 0
 69.3330078125 418 59 427.333007812 59 446 c 0
290 446 m 0
 290 459.333007812 298 468.333007812 314 473 c 0
 361.333007812 487.666992188 384 517.666992188 382 563 c 1
 366 567 352.5 574.833007812 341.5 586.5 c 0
 330.5 598.166992188 325 612.666992188 325 630 c 2
 325 638 l 2
 325 657.333007812 331.333007812 673.333007812 344 686 c 0
 356.666992188 698.666992188 373.5 705 394.5 705 c 0
 415.5 705 432.5 697 445.5 681 c 0
 458.5 665 465 643.666992188 465 617 c 2
 465 607 l 2
 465 541.666992188 448.333007812 493 415 461 c 1
 387.666992188 432.333007812 356.333007812 418 321 418 c 0
 300.333007812 418 290 427.333007812 290 446 c 0
EndSplineSet
EndChar

StartChar: quotedblleft
Encoding: 259 8220 79
Width: 410
Flags: MW
HStem: 417 21G<137 158 369 390> 684 20G<203.333 231.333 435 462.667>
VStem: 77 140<474.333 515 474.333 547.667> 309 140<474.333 515 474.333 547.333>
LayerCount: 2
Fore
SplineSet
484 676 m 0
 484 662.666992188 476 653.666992188 460 649 c 0
 412.666992188 634.333007812 390 604.666992188 392 560 c 1
 408 555.333007812 421.5 547 432.5 535 c 0
 443.5 523 449 508.666992188 449 492 c 2
 449 484 l 2
 449 464.666992188 442.666992188 448.666992188 430 436 c 0
 417.333007812 423.333007812 400.5 417 379.5 417 c 0
 358.5 417 341.5 425 328.5 441 c 0
 315.5 457 309 478.333007812 309 505 c 2
 309 515 l 2
 309 579.666992188 324.333007812 627.333007812 355 658 c 0
 385.666992188 688.666992188 418 704 452 704 c 0
 473.333007812 704 484 694.666992188 484 676 c 0
252 676 m 0
 252 662.666992188 244 653.666992188 228 649 c 0
 180.666992188 634.333007812 158 604.666992188 160 560 c 1
 176 555.333007812 189.5 547 200.5 535 c 0
 211.5 523 217 508.666992188 217 492 c 2
 217 484 l 2
 217 464.666992188 210.666992188 448.666992188 198 436 c 0
 185.333007812 423.333007812 168.5 417 147.5 417 c 0
 126.5 417 109.5 425 96.5 441 c 0
 83.5 457 77 478.333007812 77 505 c 2
 77 515 l 2
 77 580.333007812 93.6669921875 629 127 661 c 1
 154.333007812 689.666992188 185.666992188 704 221 704 c 0
 241.666992188 704 252 694.666992188 252 676 c 0
EndSplineSet
EndChar

StartChar: slash
Encoding: 47 47 80
Width: 500
Flags: MW
HStem: 0 21G<52 68.3335>
LayerCount: 2
Fore
SplineSet
36 4 m 0
 21.3330078125 9.3330078125 11.1669921875 19.1669921875 5.5 33.5 c 0
 -0.1669921875 47.8330078125 0 62 6 76 c 2
 251 659 l 2
 257 673 267 682.833007812 281 688.5 c 0
 295 694.166992188 309 694.166992188 323 688.5 c 0
 337 682.833007812 346.833007812 672.833007812 352.5 658.5 c 0
 358.166992188 644.166992188 358 630.333007812 352 617 c 2
 107 33 l 2
 97.6669921875 11 80.6669921875 0 56 0 c 0
 48 0 41.3330078125 1.3330078125 36 4 c 0
EndSplineSet
EndChar

StartChar: backslash
Encoding: 92 92 81
Width: 500
Flags: MW
HStem: 0 21G<304.667 321>
LayerCount: 2
Fore
SplineSet
337 4 m 0
 331.666992188 1.3330078125 325 0 317 0 c 0
 292.333007812 0 275.333007812 11 266 33 c 2
 21 617 l 2
 15 630.333007812 14.8330078125 644.166992188 20.5 658.5 c 0
 26.1669921875 672.833007812 36 682.833007812 50 688.5 c 0
 64 694.166992188 78 694.166992188 92 688.5 c 0
 106 682.833007812 116 673 122 659 c 2
 367 76 l 2
 373 62 373.166992188 47.8330078125 367.5 33.5 c 0
 361.833007812 19.1669921875 351.666992188 9.3330078125 337 4 c 0
EndSplineSet
EndChar

StartChar: hyphen
Encoding: 45 45 83
Width: 408
Flags: MW
HStem: 308 72<97 288 102 288>
LayerCount: 2
Fore
SplineSet
288 308 m 2
 102 308 l 2
 92 308 83.5 311.5 76.5 318.5 c 0
 69.5 325.5 66 334 66 344 c 0
 66 354 69.5 362.5 76.5 369.5 c 0
 83.5 376.5 92 380 102 380 c 2
 288 380 l 2
 298 380 306.333007812 376.5 313 369.5 c 0
 319.666992188 362.5 323 354 323 344 c 0
 323 334 319.666992188 325.5 313 318.5 c 0
 306.333007812 311.5 298 308 288 308 c 2
EndSplineSet
EndChar

StartChar: quotesingle
Encoding: 39 39 84
Width: 230
Flags: MW
HStem: 395 21G<98 111.667> 683 20G<144 183 183 188>
LayerCount: 2
Fore
SplineSet
69 433 m 2
 87 647 l 2
 88.3330078125 663 94.1669921875 676.333007812 104.5 687 c 0
 114.833007812 697.666992188 128 703 144 703 c 2
 183 703 l 2
 193 703 201.166992188 700 207.5 694 c 0
 213.833007812 688 217 681.5 217 674.5 c 0
 217 667.5 215.666992188 658.666992188 213 648 c 2
 140 426 l 2
 132.666992188 405.333007812 120.333007812 395 103 395 c 0
 93 395 84.6669921875 398.5 78 405.5 c 0
 71.3330078125 412.5 68.3330078125 421.666992188 69 433 c 2
EndSplineSet
EndChar

StartChar: asterisk
Encoding: 42 42 85
Width: 430
Flags: W
HStem: 209 227<131.667 199> 259 177<100 139.333 131.667 306.333> 259 228<100 248.333 238.667 306.333>
LayerCount: 2
Fore
SplineSet
359 405 m 0x40
 357 391.666992188 348 381.666992188 332 375 c 2
 261 348 l 1
 322 320 l 2
 335.333007812 314.666992188 341.166992188 306.166992188 339.5 294.5 c 0
 337.833007812 282.833007812 333.166992188 274 325.5 268 c 0
 317.833007812 262 310.166992188 259 302.5 259 c 0x40
 294.833007812 259 287.666992188 262.333007812 281 269 c 2
 233 311 l 1
 230 245 l 2
 229.333007812 235 225.666992188 226.5 219 219.5 c 0
 212.333007812 212.5 204 209 194 209 c 0x80
 184 209 177 212.333007812 173 219 c 0
 169 225.666992188 168.666992188 234.333007812 172 245 c 2
 192 311 l 1
 129 269 l 2
 120.333007812 262.333007812 112 259 104 259 c 0x40
 96 259 89.5 262.166992188 84.5 268.5 c 0
 79.5 274.833007812 77.6669921875 282.333007812 79 291 c 0
 81.6669921875 305 90.6669921875 314.666992188 106 320 c 2
 176 348 l 1
 116 375 l 2
 102.666992188 381 96.8330078125 389.666992188 98.5 401 c 0
 100.166992188 412.333007812 104.833007812 421 112.5 427 c 0
 120.166992188 433 127.833007812 436 135.5 436 c 0x80
 143.166992188 436 150.333007812 432.666992188 157 426 c 2
 205 384 l 1
 208 450 l 2
 208.666992188 460.666992188 212.333007812 469.5 219 476.5 c 0
 225.666992188 483.5 233.833007812 487 243.5 487 c 0x20
 253.166992188 487 260.166992188 483.5 264.5 476.5 c 0
 268.833007812 469.5 269.333007812 461 266 451 c 2
 246 384 l 1
 309 426 l 2
 317.666992188 432.666992188 326 436 334 436 c 0
 342 436 348.666992188 432.833007812 354 426.5 c 0
 359.333007812 420.166992188 361 413 359 405 c 0x40
EndSplineSet
EndChar

StartChar: grave
Encoding: 96 96 86
Width: 500
Flags: MW
HStem: 590 160<228.333 324.667>
LayerCount: 2
Fore
SplineSet
349 611 m 0
 349 597 336.833007812 590 312.5 590 c 0
 288.166992188 590 266.666992188 599 248 617 c 2
 180 681 l 2
 168.666992188 691 163 700.833007812 163 710.5 c 0
 163 720.166992188 170.833007812 729.166992188 186.5 737.5 c 0
 202.166992188 745.833007812 219.166992188 750 237.5 750 c 0
 255.833007812 750 271 740.333007812 283 721 c 2
 340 633 l 2
 346 624.333007812 349 617 349 611 c 0
EndSplineSet
EndChar

StartChar: circumflex
Encoding: 260 710 87
Width: 500
Flags: MW
HStem: 590 156<162 358 322 424>
LayerCount: 2
Fore
SplineSet
314 662 m 1
 248 617 l 2
 222 599 194.666992188 590 166 590 c 0
 158 590 152 591.833007812 148 595.5 c 0
 144 599.166992188 142.833007812 603.666992188 144.5 609 c 0
 146.166992188 614.333007812 152.666992188 622.666992188 164 634 c 2
 255 717 l 2
 276.333007812 736.333007812 298.666992188 746 322 746 c 2
 358 746 l 2
 380.666992188 746 397 736.333007812 407 717 c 2
 448 634 l 2
 453.333007812 624 455 616 453 610 c 0
 449 596.666992188 435.5 590 412.5 590 c 0
 389.5 590 369.333007812 599 352 617 c 1
 314 662 l 1
EndSplineSet
EndChar

StartChar: dieresis
Encoding: 168 168 88
Width: 500
Flags: MW
HStem: 590 130<175.333 220.667>
LayerCount: 2
Fore
SplineSet
410.5 720 m 0
 428.833007812 720 443 714.166992188 453 702.5 c 0
 463 690.833007812 466.333007812 676 463 658 c 0
 459.934570312 636.54296875 450.501953125 619.845703125 434.701171875 607.907226562 c 0
 418.900390625 595.96875 401.833007812 590 383.5 590 c 0
 365.166992188 590 350.833007812 595.666992188 340.5 607 c 0
 330.166992188 618.333007812 327 633 331 651 c 1
 334.145507812 673.016601562 343.59765625 690.020507812 359.358398438 702.01171875 c 0
 375.119140625 714.00390625 392.166992188 720 410.5 720 c 0
211.5 720 m 0
 229.833007812 720 244 714.166992188 254 702.5 c 0
 264 690.833007812 267.333007812 676 264 658 c 0
 260.934570312 636.54296875 251.501953125 619.845703125 235.701171875 607.907226562 c 0
 219.900390625 595.96875 202.833007812 590 184.5 590 c 0
 166.166992188 590 151.833007812 595.666992188 141.5 607 c 0
 131.166992188 618.333007812 128 633 132 651 c 1
 135.145507812 673.016601562 144.59765625 690.020507812 160.358398438 702.01171875 c 0
 176.119140625 714.00390625 193.166992188 720 211.5 720 c 0
EndSplineSet
EndChar

StartChar: ellipsis
Encoding: 261 8230 89
Width: 680
Flags: MW
HStem: 0 99<125.333 138.667 343.333 356.667 561.333 574.667>
VStem: 82 99<43.3335 56.6665> 300 99<43.3335 56.6665> 518 99<43.3335 56.6665>
LayerCount: 2
Fore
SplineSet
181 50 m 0
 181 36.6669921875 176.166992188 25 166.5 15 c 0
 156.833007812 5 145.333007812 0 132 0 c 0
 118.666992188 0 107 5 97 15 c 0
 87 25 82 36.6669921875 82 50 c 0
 82 63.3330078125 87 74.8330078125 97 84.5 c 0
 107 94.1669921875 118.666992188 99 132 99 c 0
 145.333007812 99 156.833007812 94.1669921875 166.5 84.5 c 0
 176.166992188 74.8330078125 181 63.3330078125 181 50 c 0
399 50 m 0
 399 36.6669921875 394.166992188 25 384.5 15 c 0
 374.833007812 5 363.333007812 0 350 0 c 0
 336.666992188 0 325 5 315 15 c 0
 305 25 300 36.6669921875 300 50 c 0
 300 63.3330078125 305 74.8330078125 315 84.5 c 0
 325 94.1669921875 336.666992188 99 350 99 c 0
 363.333007812 99 374.833007812 94.1669921875 384.5 84.5 c 0
 394.166992188 74.8330078125 399 63.3330078125 399 50 c 0
617 50 m 0
 617 36.6669921875 612.166992188 25 602.5 15 c 0
 592.833007812 5 581.333007812 0 568 0 c 0
 554.666992188 0 543 5 533 15 c 0
 523 25 518 36.6669921875 518 50 c 0
 518 63.3330078125 523 74.8330078125 533 84.5 c 0
 543 94.1669921875 554.666992188 99 568 99 c 0
 581.333007812 99 592.833007812 94.1669921875 602.5 84.5 c 0
 612.166992188 74.8330078125 617 63.3330078125 617 50 c 0
EndSplineSet
EndChar

StartChar: Agrave
Encoding: 192 192 90
Width: 790
Flags: MW
HStem: 0 21G<97.9604 122.667 549.333 567.063> 165 110<240 462 301 462 301 484> 680 20G<442.333 468.667> 790 160<461.333 557.667>
LayerCount: 2
Fore
SplineSet
240 165 m 1
 168 36 l 2
 154.666992188 12 135.333007812 0 110 0 c 0
 85.9208984375 0 71.0869140625 10.6669921875 65.5 32 c 0
 61.8330078125 46 64 60.3330078125 72 75 c 2
 397 664 l 2
 409.666992188 688 429.166992188 700 455.5 700 c 0
 481.833007812 700 497.666992188 688 503 664 c 2
 620 75 l 2
 622.666992188 60.3330078125 619.666992188 46 611 32 c 0
 597.793945312 10.6669921875 579.126953125 0 555 0 c 0
 543.666992188 0 533.833007812 3.3330078125 525.5 10 c 0
 517.166992188 16.6669921875 512 25.3330078125 510 36 c 2
 484 165 l 1
 240 165 l 1
301 275 m 1
 462 275 l 1
 419 490 l 1
 301 275 l 1
582 811 m 0
 582 797 569.833007812 790 545.5 790 c 0
 521.166992188 790 499.666992188 799 481 817 c 2
 413 881 l 2
 401.666992188 891 396 900.833007812 396 910.5 c 0
 396 920.166992188 403.833007812 929.166992188 419.5 937.5 c 0
 435.166992188 945.833007812 452.166992188 950 470.5 950 c 0
 488.833007812 950 504 940.333007812 516 921 c 2
 573 833 l 2
 579 823.666992188 582 816.333007812 582 811 c 0
EndSplineSet
EndChar

StartChar: acute
Encoding: 180 180 91
Width: 500
Flags: MW
HStem: 590 21G<225 249> 730 20G<302.333 320.667>
LayerCount: 2
Fore
SplineSet
302 617 m 2
 282.666992188 599 261 590 237 590 c 0
 213 590 201 597 201 611 c 0
 201 617.666992188 203.666992188 625 209 633 c 2
 266 721 l 2
 278 740.333007812 293.166992188 750 311.5 750 c 0
 329.833007812 750 346.833007812 745.833007812 362.5 737.5 c 0
 378.166992188 729.166992188 386 720.166992188 386 710.5 c 0
 386 700.833007812 380.333007812 691 369 681 c 2
 302 617 l 2
EndSplineSet
EndChar

StartChar: cedilla
Encoding: 184 184 92
Width: 500
Flags: MW
HStem: -160 170<249 251.333>
LayerCount: 2
Fore
SplineSet
340 10 m 1
 279 -131 l 2
 271 -150.333007812 259.166992188 -160 243.5 -160 c 0
 227.833007812 -160 211.666992188 -155.166992188 195 -145.5 c 0
 178.333007812 -135.833007812 170 -126.5 170 -117.5 c 0
 170 -108.5 172.666992188 -100.333007812 178 -93 c 2
 249 10 l 1
 340 10 l 1
EndSplineSet
EndChar

StartChar: Ccedilla
Encoding: 199 199 94
Width: 738
Flags: W
HStem: -160 170<372 374.333> 0 111<383.667 446> 589 111<477.667 530.333>
LayerCount: 2
Fore
SplineSet
404 0 m 0x60
 305.333007812 0 227 34 169 102 c 0
 111 170 90.5 252.5 107.5 349.5 c 0
 124.5 446.5 174 529.166992188 256 597.5 c 0
 338 665.833007812 428.333007812 700 527 700 c 0
 611.666992188 700 681.333007812 674.666992188 736 624 c 0
 746.666992188 614.666992188 751.5 602.333007812 750.5 587 c 0
 749.5 571.666992188 743.333007812 558 732 546 c 0
 720.666992188 534 707.333007812 527.166992188 692 525.5 c 0
 676.666992188 523.833007812 663.666992188 527.666992188 653 537 c 0
 613 571.666992188 561.666992188 589 499 589 c 0
 436.333007812 589 376.5 565.5 319.5 518.5 c 0
 262.5 471.5 228.666992188 415.333007812 218 350 c 1
 206 284.666992188 220 228.5 260 181.5 c 0
 300 134.5 351.833007812 111 415.5 111 c 0
 479.166992188 111 536.333007812 128.333007812 587 163 c 0
 600.333007812 172.333007812 614.5 176 629.5 174 c 0
 644.5 172 655.666992188 165 663 153 c 0
 670.333007812 141 671.666992188 127.333007812 667 112 c 0
 662.333007812 96.6669921875 653 84.6669921875 639 76 c 0
 566.333007812 25.3330078125 488 0 404 0 c 0x60
463 10 m 1xa0
 402 -131 l 2
 394 -150.333007812 382.166992188 -160 366.5 -160 c 0
 350.833007812 -160 334.666992188 -155.166992188 318 -145.5 c 0
 301.333007812 -135.833007812 293 -126.5 293 -117.5 c 0
 293 -108.5 295.666992188 -100.333007812 301 -93 c 2
 372 10 l 1
 463 10 l 1xa0
EndSplineSet
EndChar

StartChar: quotesinglbase
Encoding: 262 8218 95
Width: 230
Flags: MW
HStem: -145 21G<74.6665 101.333> 123 20G<147.333 168.667>
VStem: 88 140<12.3335 76 12.3335 85.6665>
LayerCount: 2
Fore
SplineSet
54 -117 m 0
 54 -102.333007812 61.6669921875 -93.3330078125 77 -90 c 1
 124.333007812 -74.6669921875 147 -44.6669921875 145 0 c 1
 129 4.6669921875 115.5 13 104.5 25 c 0
 93.5 37 88 51.3330078125 88 68 c 2
 88 76 l 2
 88 95.3330078125 94.3330078125 111.333007812 107 124 c 0
 119.666992188 136.666992188 136.666992188 143 158 143 c 0
 179.333007812 143 196.333007812 135.166992188 209 119.5 c 0
 221.666992188 103.833007812 228 82.3330078125 228 55 c 2
 228 44 l 2
 228 -19.3330078125 211.666992188 -68 179 -102 c 1
 149 -130.666992188 117.666992188 -145 85 -145 c 0
 64.3330078125 -145 54 -135.666992188 54 -117 c 0
EndSplineSet
EndChar

StartChar: quotedblbase
Encoding: 263 8222 96
Width: 410
Flags: MW
HStem: -145 21G<74.6665 101.333 305.667 333> 123 20G<147.333 168.667 379 400>
VStem: 88 140<12.3335 76 12.3335 85.6665> 320 140<12 76 12 85.6665>
LayerCount: 2
Fore
SplineSet
54 -117 m 0
 54 -102.333007812 61.6669921875 -93.3330078125 77 -90 c 1
 124.333007812 -74.6669921875 147 -44.6669921875 145 0 c 1
 129 4.6669921875 115.5 13 104.5 25 c 0
 93.5 37 88 51.3330078125 88 68 c 2
 88 76 l 2
 88 95.3330078125 94.3330078125 111.333007812 107 124 c 0
 119.666992188 136.666992188 136.666992188 143 158 143 c 0
 179.333007812 143 196.333007812 135.166992188 209 119.5 c 0
 221.666992188 103.833007812 228 82.3330078125 228 55 c 2
 228 44 l 2
 228 -19.3330078125 211.666992188 -68 179 -102 c 1
 149 -130.666992188 117.666992188 -145 85 -145 c 0
 64.3330078125 -145 54 -135.666992188 54 -117 c 0
285 -117 m 0
 285 -102.333007812 293 -93.3330078125 309 -90 c 1
 356.333007812 -74.6669921875 379 -44.6669921875 377 0 c 1
 361 4.6669921875 347.5 13 336.5 25 c 0
 325.5 37 320 51.3330078125 320 68 c 2
 320 76 l 2
 320 95.3330078125 326.333007812 111.333007812 339 124 c 0
 351.666992188 136.666992188 368.5 143 389.5 143 c 0
 410.5 143 427.5 135 440.5 119 c 0
 453.5 103 460 81.6669921875 460 55 c 2
 460 44 l 2
 460 -20 444.5 -67.5 413.5 -98.5 c 0
 382.5 -129.5 350 -145 316 -145 c 0
 295.333007812 -145 285 -135.666992188 285 -117 c 0
EndSplineSet
EndChar

StartChar: florin
Encoding: 264 402 97
Width: 506
Flags: MW
HStem: -7 21G<111 144.667> 356 101<163 221 170 204 344 425> 604 102<387.667 437>
LayerCount: 2
Fore
SplineSet
461 602 m 1
 437 604 l 1
 413.666992188 604 395.5 597.833007812 382.5 585.5 c 0
 369.5 573.166992188 360.666992188 553.333007812 356 526 c 2
 344 457 l 1
 425 457 l 2
 439.666992188 457 451.833007812 452 461.5 442 c 0
 471.166992188 432 476 420 476 406 c 0
 476 392 471.166992188 380.166992188 461.5 370.5 c 0
 451.833007812 360.833007812 439.666992188 356 425 356 c 2
 326 356 l 1
 288 143 l 2
 278.666992188 90.3330078125 260.333007812 52.1669921875 233 28.5 c 0
 205.666992188 4.8330078125 168.333007812 -7 121 -7 c 0
 101 -7 85.1669921875 -2.3330078125 73.5 7 c 0
 61.8330078125 16.3330078125 56 28.1669921875 56 42.5 c 0
 56 56.8330078125 60.6669921875 68.8330078125 70 78.5 c 0
 79.3330078125 88.1669921875 91.3330078125 93.3330078125 106 94 c 0
 140.666992188 96.6669921875 161.666992188 119 169 161 c 2
 204 356 l 1
 170 356 l 2
 156 356 144 360.833007812 134 370.5 c 0
 124 380.166992188 119 392 119 406 c 0
 119 420 124 432 134 442 c 0
 144 452 156 457 170 457 c 2
 221 457 l 1
 239 551 l 2
 249 603 267.5 641.833007812 294.5 667.5 c 0
 321.5 693.166992188 361.333007812 706 414 706 c 0
 431.333007812 706 447.5 705.166992188 462.5 703.5 c 0
 477.5 701.833007812 489.333007812 696.166992188 498 686.5 c 0
 506.666992188 676.833007812 511 665.166992188 511 651.5 c 0
 511 637.833007812 506.166992188 626.166992188 496.5 616.5 c 0
 486.833007812 606.833007812 475 602 461 602 c 1
EndSplineSet
EndChar

StartChar: trademark
Encoding: 265 8482 98
Width: 690
Flags: W
HStem: 401 21G<87 97.6665> 402 21G<304.667 320 519.667 526.333> 654 47<40 235 53 112 159 227 159 159>
LayerCount: 2
Fore
SplineSet
24 677 m 0xa0
 28 693 37.6669921875 701 53 701 c 2
 235 701 l 2
 241.666992188 701 246.833007812 698.666992188 250.5 694 c 0
 254.166992188 689.333007812 255.5 683.666992188 254.5 677 c 0
 253.5 670.333007812 250.166992188 664.833007812 244.5 660.5 c 0
 238.833007812 656.166992188 233 654 227 654 c 2
 159 654 l 1
 119 425 l 1
 115 409 105.333007812 401 90 401 c 0
 84 401 79.1669921875 403.333007812 75.5 408 c 0
 71.8330078125 412.666992188 70.6669921875 418.333007812 72 425 c 2
 112 654 l 1
 43 654 l 2
 37 654 32.1669921875 656.166992188 28.5 660.5 c 0
 24.8330078125 664.833007812 23.3330078125 670.333007812 24 677 c 0xa0
383 692 m 2
 448 573 l 1
 554 692 l 2
 560 698.666992188 566.833007812 701.833007812 574.5 701.5 c 0
 582.166992188 701.166992188 587.833007812 698.833007812 591.5 694.5 c 0
 595.166992188 690.166992188 596.333007812 684.666992188 595 678 c 2
 550 426 l 2
 549.333007812 419.333007812 546.333007812 413.666992188 541 409 c 0
 535.666992188 404.333007812 529.666992188 402 523 402 c 0
 516.333007812 402 511.166992188 404.333007812 507.5 409 c 0
 503.833007812 413.666992188 502.333007812 419.333007812 503 426 c 2
 534 605 l 1
 458 520 l 2
 452 513.333007812 445 510 437 510 c 2
 436 510 l 2
 428 510 422 513.333007812 418 520 c 2
 372 605 l 1
 341 426 l 2
 337.666992188 410 328 402 312 402 c 0x60
 297.333007812 402 291 410 293 426 c 2
 337 678 l 2
 338.333007812 684.666992188 341.666992188 690.166992188 347 694.5 c 0
 352.333007812 698.833007812 358.333007812 701 365 701 c 2
 366 701 l 1
 374 702.333007812 379.666992188 699.333007812 383 692 c 2
EndSplineSet
EndChar

StartChar: tilde
Encoding: 266 732 99
Width: 500
Flags: W
HStem: 583 147<138.667 218.333> 595 95<357.667 364.667 349.667 380.333> 595 147<357.667 437.333> 635 55
LayerCount: 2
Fore
SplineSet
175 603 m 1x10
 166.333007812 589.666992188 156.166992188 583 144.5 583 c 0
 132.833007812 583 123.333007812 586.333007812 116 593 c 0
 108.666992188 599.666992188 105 606.666992188 105 614 c 0
 105 621.333007812 106.333007812 629.666992188 109 639 c 0
 120.333007812 669.666992188 133.833007812 692.5 149.5 707.5 c 0
 165.166992188 722.5 184.333007812 730 207 730 c 0x80
 229.666992188 730 257.333007812 723.333007812 290 710 c 0
 322.666992188 696.666992188 344.333007812 690 355 690 c 0x40
 374.333007812 690 389.666992188 700.666992188 401 722 c 1
 409.666992188 735.333007812 419.833007812 742 431.5 742 c 0x20
 443.166992188 742 452.666992188 738.666992188 460 732 c 0
 467.333007812 725.333007812 471 718.333007812 471 711 c 0
 471 703.666992188 469.666992188 695.333007812 467 686 c 0
 455.666992188 655.333007812 442.166992188 632.5 426.5 617.5 c 0
 410.833007812 602.5 391.666992188 595 369 595 c 0x40
 346.333007812 595 318.666992188 601.666992188 286 615 c 0
 253.333007812 628.333007812 231.666992188 635 221 635 c 0
 201.666992188 635 186.333007812 624.333007812 175 603 c 1x10
EndSplineSet
EndChar

StartChar: Acircumflex
Encoding: 194 194 100
Width: 790
Flags: MW
HStem: 0 21G<97.9604 122.667 549.333 567.063> 165 110<240 462 301 462 301 484> 680 20G<442.333 468.667> 790 156<358 554 518 620>
LayerCount: 2
Fore
SplineSet
240 165 m 1
 168 36 l 2
 154.666992188 12 135.333007812 0 110 0 c 0
 85.9208984375 0 71.0869140625 10.6669921875 65.5 32 c 0
 61.8330078125 46 64 60.3330078125 72 75 c 2
 397 664 l 2
 409.666992188 688 429.166992188 700 455.5 700 c 0
 481.833007812 700 497.666992188 688 503 664 c 2
 620 75 l 2
 622.666992188 60.3330078125 619.666992188 46 611 32 c 0
 597.793945312 10.6669921875 579.126953125 0 555 0 c 0
 543.666992188 0 533.833007812 3.3330078125 525.5 10 c 0
 517.166992188 16.6669921875 512 25.3330078125 510 36 c 2
 484 165 l 1
 240 165 l 1
301 275 m 1
 462 275 l 1
 419 490 l 1
 301 275 l 1
510 862 m 1
 444 817 l 2
 418 799 390.666992188 790 362 790 c 0
 354 790 348 791.833007812 344 795.5 c 0
 340 799.166992188 338.833007812 803.666992188 340.5 809 c 0
 342.166992188 814.333007812 348.666992188 822.666992188 360 834 c 2
 451 917 l 2
 472.333007812 936.333007812 494.666992188 946 518 946 c 2
 554 946 l 2
 576.666992188 946 593 936.333007812 603 917 c 2
 644 834 l 2
 649.333007812 824 651 816 649 810 c 0
 645 796.666992188 631.5 790 608.5 790 c 0
 585.5 790 565.333007812 799 548 817 c 1
 510 862 l 1
EndSplineSet
EndChar

StartChar: Atilde
Encoding: 195 195 101
Width: 790
Flags: W
HStem: 0 21G<97.9604 122.667 549.333 567.063> 165 110<240 462 301 462 301 484> 680 20G<442.333 468.667> 783 147<362.667 442.333> 795 95<581.667 588.667 573.667 604.333> 795 147<581.667 661.333> 835 55
LayerCount: 2
Fore
SplineSet
240 165 m 1xe0
 168 36 l 2
 154.666992188 12 135.333007812 0 110 0 c 0
 85.9208984375 0 71.0869140625 10.6669921875 65.5 32 c 0
 61.8330078125 46 64 60.3330078125 72 75 c 2
 397 664 l 2
 409.666992188 688 429.166992188 700 455.5 700 c 0
 481.833007812 700 497.666992188 688 503 664 c 2
 620 75 l 2
 622.666992188 60.3330078125 619.666992188 46 611 32 c 0
 597.793945312 10.6669921875 579.126953125 0 555 0 c 0
 543.666992188 0 533.833007812 3.3330078125 525.5 10 c 0
 517.166992188 16.6669921875 512 25.3330078125 510 36 c 2
 484 165 l 1
 240 165 l 1xe0
301 275 m 1
 462 275 l 1
 419 490 l 1
 301 275 l 1
399 803 m 1
 390.333007812 789.666992188 380.166992188 783 368.5 783 c 0
 356.833007812 783 347.333007812 786.333007812 340 793 c 0
 332.666992188 799.666992188 329 806.666992188 329 814 c 0
 329 821.333007812 330.333007812 829.666992188 333 839 c 0
 344.333007812 869.666992188 357.833007812 892.5 373.5 907.5 c 0
 389.166992188 922.5 408.333007812 930 431 930 c 0xf0
 453.666992188 930 481.333007812 923.333007812 514 910 c 0
 546.666992188 896.666992188 568.333007812 890 579 890 c 0xe8
 598.333007812 890 613.666992188 900.666992188 625 922 c 1
 633.666992188 935.333007812 643.833007812 942 655.5 942 c 0xe4
 667.166992188 942 676.666992188 938.666992188 684 932 c 0
 691.333007812 925.333007812 695 918.333007812 695 911 c 0
 695 903.666992188 693.666992188 895.333007812 691 886 c 0
 679.666992188 855.333007812 666.166992188 832.5 650.5 817.5 c 0
 634.833007812 802.5 615.666992188 795 593 795 c 0xe8
 570.333007812 795 542.666992188 801.666992188 510 815 c 0
 477.333007812 828.333007812 455.666992188 835 445 835 c 0xe2
 425.666992188 835 410.333007812 824.333007812 399 803 c 1
EndSplineSet
EndChar

StartChar: Adieresis
Encoding: 196 196 102
Width: 790
Flags: MW
HStem: 0 21G<97.9604 122.667 549.333 567.063> 165 110<240 462 301 462 301 484> 680 20G<442.333 468.667> 790 130<371.333 416.667>
LayerCount: 2
Fore
SplineSet
240 165 m 1
 168 36 l 2
 154.666992188 12 135.333007812 0 110 0 c 0
 85.9208984375 0 71.0869140625 10.6669921875 65.5 32 c 0
 61.8330078125 46 64 60.3330078125 72 75 c 2
 397 664 l 2
 409.666992188 688 429.166992188 700 455.5 700 c 0
 481.833007812 700 497.666992188 688 503 664 c 2
 620 75 l 2
 622.666992188 60.3330078125 619.666992188 46 611 32 c 0
 597.793945312 10.6669921875 579.126953125 0 555 0 c 0
 543.666992188 0 533.833007812 3.3330078125 525.5 10 c 0
 517.166992188 16.6669921875 512 25.3330078125 510 36 c 2
 484 165 l 1
 240 165 l 1
301 275 m 1
 462 275 l 1
 419 490 l 1
 301 275 l 1
606.5 920 m 0
 624.833007812 920 639 914.166992188 649 902.5 c 0
 659 890.833007812 662.333007812 876 659 858 c 0
 655.934570312 836.54296875 646.501953125 819.845703125 630.701171875 807.907226562 c 0
 614.900390625 795.96875 597.833007812 790 579.5 790 c 0
 561.166992188 790 546.833007812 795.666992188 536.5 807 c 0
 526.166992188 818.333007812 523 833 527 851 c 1
 530.145507812 873.016601562 539.59765625 890.020507812 555.358398438 902.01171875 c 0
 571.119140625 914.00390625 588.166992188 920 606.5 920 c 0
407.5 920 m 0
 425.833007812 920 440 914.166992188 450 902.5 c 0
 460 890.833007812 463.333007812 876 460 858 c 0
 456.934570312 836.54296875 447.501953125 819.845703125 431.701171875 807.907226562 c 0
 415.900390625 795.96875 398.833007812 790 380.5 790 c 0
 362.166992188 790 347.833007812 795.666992188 337.5 807 c 0
 327.166992188 818.333007812 324 833 328 851 c 1
 331.145507812 873.016601562 340.59765625 890.020507812 356.358398438 902.01171875 c 0
 372.119140625 914.00390625 389.166992188 920 407.5 920 c 0
EndSplineSet
EndChar

StartChar: Aring
Encoding: 197 197 103
Width: 790
Flags: MW
HStem: 0 21G<117.293 141.667 567.333 584.976> 165 110<319 481 319 502 259 481> 781 76<485 494.667>
LayerCount: 2
Fore
SplineSet
319 275 m 1
 481 275 l 1
 438 490 l 1
 319 275 l 1
529 35 m 2
 502 165 l 1
 259 165 l 1
 188 35 l 1
 174 11.6669921875 154.333007812 0 129 0 c 0
 105.586914062 0 91.0869140625 10.6669921875 85.5 32 c 0
 81.8330078125 46 83.6669921875 60.3330078125 91 75 c 2
 395 628 l 1
 378.333007812 639.333007812 366 654.333007812 358 673 c 0
 350 691.666992188 347.666992188 711.333007812 351 732 c 1
 352 734 l 1
 358 767.333007812 376 796.166992188 406 820.5 c 0
 436 844.833007812 468 857 502 857 c 0
 536 857 563.666992188 844.833007812 585 820.5 c 0
 606.333007812 796.166992188 614 767.333007812 608 734 c 1
 607 732 l 1
 599.666992188 688.666992188 573.333007812 654.333007812 528 629 c 1
 639 75 l 2
 641.666992188 60.3330078125 638.5 46 629.5 32 c 0
 615.786132812 10.6669921875 596.952148438 0 573 0 c 0
 561.666992188 0 552 3.1669921875 544 9.5 c 0
 536 15.8330078125 531 24.3330078125 529 35 c 2
471 685 m 0
 484.333007812 685 496.5 689.5 507.5 698.5 c 0
 518.5 707.5 525 718.666992188 527 732 c 1
 528 734 l 1
 530 747.333007812 527.166992188 758.5 519.5 767.5 c 0
 511.833007812 776.5 501.333007812 781 488 781 c 0
 474.666992188 781 462.5 776.5 451.5 767.5 c 0
 440.5 758.5 434 747.333007812 432 734 c 1
 431 732 l 1
 429 718.666992188 431.833007812 707.5 439.5 698.5 c 0
 447.166992188 689.5 457.666992188 685 471 685 c 0
EndSplineSet
EndChar

StartChar: degree
Encoding: 176 176 104
Width: 450
Flags: MW
HStem: 381 66<227.667 254.333 227.667 263> 640 66<227 254>
VStem: 74 72<543 545 530 566.667> 335 72<543 545 521.333 558>
LayerCount: 2
Fore
SplineSet
241 381 m 0
 197 381 158.166992188 397.166992188 124.5 429.5 c 0
 90.8330078125 461.833007812 74 499.666992188 74 543 c 2
 74 545 l 2
 74 588.333007812 90.8330078125 626 124.5 658 c 0
 158.166992188 690 197 706 241 706 c 0
 285 706 323.666992188 690 357 658 c 0
 390.333007812 626 407 588.333007812 407 545 c 2
 407 543 l 2
 407 499.666992188 390.333007812 461.833007812 357 429.5 c 0
 323.666992188 397.166992188 285 381 241 381 c 0
241 447 m 0
 267.666992188 447 290 456.5 308 475.5 c 0
 326 494.5 335 517 335 543 c 2
 335 545 l 2
 335 571 326 593.333007812 308 612 c 0
 290 630.666992188 267.5 640 240.5 640 c 0
 213.5 640 191 630.666992188 173 612 c 0
 155 593.333007812 146 571 146 545 c 2
 146 543 l 2
 146 517 155.166992188 494.5 173.5 475.5 c 0
 191.833007812 456.5 214.333007812 447 241 447 c 0
EndSplineSet
EndChar

StartChar: Egrave
Encoding: 200 200 105
Width: 670
Flags: MW
HStem: -2 111<147.333 500 229 481> 293 110<281 495 262 515> 587 111<314 585 314 314> 790 160<405.333 501.667>
LayerCount: 2
Fore
SplineSet
155 -2 m 2
 139.666992188 -2 127.5 3.3330078125 118.5 14 c 0
 109.5 24.6669921875 106.333007812 37.6669921875 109 53 c 2
 213 643 l 2
 215.666992188 658.333007812 223.333007812 671.333007812 236 682 c 0
 248.666992188 692.666992188 262.666992188 698 278 698 c 2
 604 698 l 2
 619.333007812 698 631.5 692.666992188 640.5 682 c 0
 649.5 671.333007812 652.5 658.333007812 649.5 643 c 0
 646.5 627.666992188 638.666992188 614.5 626 603.5 c 0
 613.333007812 592.5 599.666992188 587 585 587 c 2
 314 587 l 1
 281 403 l 1
 515 403 l 2
 530.333007812 403 542.333007812 397.666992188 551 387 c 0
 559.666992188 376.333007812 562.666992188 363.333007812 560 348 c 0
 557.333007812 332.666992188 549.666992188 319.666992188 537 309 c 0
 524.333007812 298.333007812 510.333007812 293 495 293 c 2
 262 293 l 1
 229 109 l 1
 500 109 l 2
 515.333007812 109 527.5 103.5 536.5 92.5 c 0
 545.5 81.5 548.5 68.3330078125 545.5 53 c 0
 542.5 37.6669921875 534.666992188 24.6669921875 522 14 c 0
 509.333007812 3.3330078125 495.666992188 -2 481 -2 c 2
 155 -2 l 2
526 811 m 0
 526 797 513.833007812 790 489.5 790 c 0
 465.166992188 790 443.666992188 799 425 817 c 2
 357 881 l 2
 345.666992188 891 340 900.833007812 340 910.5 c 0
 340 920.166992188 347.833007812 929.166992188 363.5 937.5 c 0
 379.166992188 945.833007812 396.166992188 950 414.5 950 c 0
 432.833007812 950 448 940.333007812 460 921 c 2
 517 833 l 2
 523 823.666992188 526 816.333007812 526 811 c 0
EndSplineSet
EndChar

StartChar: Eacute
Encoding: 201 201 106
Width: 670
Flags: MW
HStem: -2 111<147.333 500 229 481> 293 110<281 495 262 515> 587 111<314 585 314 314> 930 20G<481.333 499.667>
LayerCount: 2
Fore
SplineSet
155 -2 m 2
 139.666992188 -2 127.5 3.3330078125 118.5 14 c 0
 109.5 24.6669921875 106.333007812 37.6669921875 109 53 c 2
 213 643 l 2
 215.666992188 658.333007812 223.333007812 671.333007812 236 682 c 0
 248.666992188 692.666992188 262.666992188 698 278 698 c 2
 604 698 l 2
 619.333007812 698 631.5 692.666992188 640.5 682 c 0
 649.5 671.333007812 652.5 658.333007812 649.5 643 c 0
 646.5 627.666992188 638.666992188 614.5 626 603.5 c 0
 613.333007812 592.5 599.666992188 587 585 587 c 2
 314 587 l 1
 281 403 l 1
 515 403 l 2
 530.333007812 403 542.333007812 397.666992188 551 387 c 0
 559.666992188 376.333007812 562.666992188 363.333007812 560 348 c 0
 557.333007812 332.666992188 549.666992188 319.666992188 537 309 c 0
 524.333007812 298.333007812 510.333007812 293 495 293 c 2
 262 293 l 1
 229 109 l 1
 500 109 l 2
 515.333007812 109 527.5 103.5 536.5 92.5 c 0
 545.5 81.5 548.5 68.3330078125 545.5 53 c 0
 542.5 37.6669921875 534.666992188 24.6669921875 522 14 c 0
 509.333007812 3.3330078125 495.666992188 -2 481 -2 c 2
 155 -2 l 2
481 817 m 2
 461.666992188 799 440 790 416 790 c 0
 392 790 380 797 380 811 c 0
 380 817.666992188 382.666992188 825 388 833 c 2
 445 921 l 2
 457 940.333007812 472.166992188 950 490.5 950 c 0
 508.833007812 950 525.833007812 945.833007812 541.5 937.5 c 0
 557.166992188 929.166992188 565 920.166992188 565 910.5 c 0
 565 900.833007812 559.333007812 891 548 881 c 2
 481 817 l 2
EndSplineSet
EndChar

StartChar: Ecircumflex
Encoding: 202 202 107
Width: 670
Flags: MW
HStem: -2 111<147.333 500 229 481> 293 110<281 495 262 515> 587 111<314 585 314 314> 790 156<353 549 513 615>
LayerCount: 2
Fore
SplineSet
155 -2 m 2
 139.666992188 -2 127.5 3.3330078125 118.5 14 c 0
 109.5 24.6669921875 106.333007812 37.6669921875 109 53 c 2
 213 643 l 2
 215.666992188 658.333007812 223.333007812 671.333007812 236 682 c 0
 248.666992188 692.666992188 262.666992188 698 278 698 c 2
 604 698 l 2
 619.333007812 698 631.5 692.666992188 640.5 682 c 0
 649.5 671.333007812 652.5 658.333007812 649.5 643 c 0
 646.5 627.666992188 638.666992188 614.5 626 603.5 c 0
 613.333007812 592.5 599.666992188 587 585 587 c 2
 314 587 l 1
 281 403 l 1
 515 403 l 2
 530.333007812 403 542.333007812 397.666992188 551 387 c 0
 559.666992188 376.333007812 562.666992188 363.333007812 560 348 c 0
 557.333007812 332.666992188 549.666992188 319.666992188 537 309 c 0
 524.333007812 298.333007812 510.333007812 293 495 293 c 2
 262 293 l 1
 229 109 l 1
 500 109 l 2
 515.333007812 109 527.5 103.5 536.5 92.5 c 0
 545.5 81.5 548.5 68.3330078125 545.5 53 c 0
 542.5 37.6669921875 534.666992188 24.6669921875 522 14 c 0
 509.333007812 3.3330078125 495.666992188 -2 481 -2 c 2
 155 -2 l 2
505 862 m 1
 439 817 l 2
 413 799 385.666992188 790 357 790 c 0
 349 790 343 791.833007812 339 795.5 c 0
 335 799.166992188 333.833007812 803.666992188 335.5 809 c 0
 337.166992188 814.333007812 343.666992188 822.666992188 355 834 c 2
 446 917 l 2
 467.333007812 936.333007812 489.666992188 946 513 946 c 2
 549 946 l 2
 572.333007812 946 588.666992188 936.333007812 598 917 c 2
 639 834 l 2
 644.333007812 824 646 816 644 810 c 0
 640 796.666992188 626.5 790 603.5 790 c 0
 580.5 790 560.333007812 799 543 817 c 1
 505 862 l 1
EndSplineSet
EndChar

StartChar: Edieresis
Encoding: 203 203 108
Width: 670
Flags: MW
HStem: -2 111<147.333 500 229 481> 293 110<281 495 262 515> 587 111<314 585 314 314> 790 130<353.333 398.667>
LayerCount: 2
Fore
SplineSet
155 -2 m 2
 139.666992188 -2 127.5 3.3330078125 118.5 14 c 0
 109.5 24.6669921875 106.333007812 37.6669921875 109 53 c 2
 213 643 l 2
 215.666992188 658.333007812 223.333007812 671.333007812 236 682 c 0
 248.666992188 692.666992188 262.666992188 698 278 698 c 2
 604 698 l 2
 619.333007812 698 631.5 692.666992188 640.5 682 c 0
 649.5 671.333007812 652.5 658.333007812 649.5 643 c 0
 646.5 627.666992188 638.666992188 614.5 626 603.5 c 0
 613.333007812 592.5 599.666992188 587 585 587 c 2
 314 587 l 1
 281 403 l 1
 515 403 l 2
 530.333007812 403 542.333007812 397.666992188 551 387 c 0
 559.666992188 376.333007812 562.666992188 363.333007812 560 348 c 0
 557.333007812 332.666992188 549.666992188 319.666992188 537 309 c 0
 524.333007812 298.333007812 510.333007812 293 495 293 c 2
 262 293 l 1
 229 109 l 1
 500 109 l 2
 515.333007812 109 527.5 103.5 536.5 92.5 c 0
 545.5 81.5 548.5 68.3330078125 545.5 53 c 0
 542.5 37.6669921875 534.666992188 24.6669921875 522 14 c 0
 509.333007812 3.3330078125 495.666992188 -2 481 -2 c 2
 155 -2 l 2
588.5 920 m 0
 606.833007812 920 621 914.166992188 631 902.5 c 0
 641 890.833007812 644.333007812 876 641 858 c 0
 637.934570312 836.54296875 628.501953125 819.845703125 612.701171875 807.907226562 c 0
 596.900390625 795.96875 579.833007812 790 561.5 790 c 0
 543.166992188 790 528.833007812 795.666992188 518.5 807 c 0
 508.166992188 818.333007812 505 833 509 851 c 1
 512.145507812 873.016601562 521.59765625 890.020507812 537.358398438 902.01171875 c 0
 553.119140625 914.00390625 570.166992188 920 588.5 920 c 0
389.5 920 m 0
 407.833007812 920 422 914.166992188 432 902.5 c 0
 442 890.833007812 445.333007812 876 442 858 c 0
 438.934570312 836.54296875 429.501953125 819.845703125 413.701171875 807.907226562 c 0
 397.900390625 795.96875 380.833007812 790 362.5 790 c 0
 344.166992188 790 329.833007812 795.666992188 319.5 807 c 0
 309.166992188 818.333007812 306 833 310 851 c 1
 313.145507812 873.016601562 322.59765625 890.020507812 338.358398438 902.01171875 c 0
 354.119140625 914.00390625 371.166992188 920 389.5 920 c 0
EndSplineSet
EndChar

StartChar: Igrave
Encoding: 204 204 109
Width: 274
Flags: MW
HStem: -1 21G<58.3335 73.6665> 790 160<182.333 278.667>
LayerCount: 2
Fore
SplineSet
131 54 m 2
 128.333007812 39.3330078125 120.666992188 26.5 108 15.5 c 0
 95.3330078125 4.5 81.3330078125 -1 66 -1 c 0
 50.6669921875 -1 38.5 4.3330078125 29.5 15 c 0
 20.5 25.6669921875 17.3330078125 38.6669921875 20 54 c 2
 124 644 l 2
 127.333007812 659.333007812 135.333007812 672.333007812 148 683 c 0
 160.666992188 693.666992188 174.5 699 189.5 699 c 0
 204.5 699 216.5 693.666992188 225.5 683 c 0
 234.5 672.333007812 237.666992188 659.333007812 235 644 c 2
 131 54 l 2
303 811 m 0
 303 797 290.833007812 790 266.5 790 c 0
 242.166992188 790 220.666992188 799 202 817 c 2
 134 881 l 2
 122.666992188 891 117 900.833007812 117 910.5 c 0
 117 920.166992188 124.833007812 929.166992188 140.5 937.5 c 0
 156.166992188 945.833007812 173.166992188 950 191.5 950 c 0
 209.833007812 950 225 940.333007812 237 921 c 2
 294 833 l 2
 300 823.666992188 303 816.333007812 303 811 c 0
EndSplineSet
EndChar

StartChar: Iacute
Encoding: 205 205 110
Width: 274
Flags: MW
HStem: -1 21G<154.333 169.667> 930 20G<289.333 307.667>
LayerCount: 2
Fore
SplineSet
227 54 m 2
 224.333007812 39.3330078125 216.666992188 26.5 204 15.5 c 0
 191.333007812 4.5 177.333007812 -1 162 -1 c 0
 146.666992188 -1 134.5 4.3330078125 125.5 15 c 0
 116.5 25.6669921875 113.333007812 38.6669921875 116 54 c 2
 220 644 l 2
 223.333007812 659.333007812 231.333007812 672.333007812 244 683 c 0
 256.666992188 693.666992188 270.5 699 285.5 699 c 0
 300.5 699 312.5 693.666992188 321.5 683 c 0
 330.5 672.333007812 333.666992188 659.333007812 331 644 c 2
 227 54 l 2
289 817 m 2
 269.666992188 799 248 790 224 790 c 0
 200 790 188 797 188 811 c 0
 188 817.666992188 190.666992188 825 196 833 c 2
 253 921 l 2
 265 940.333007812 280.166992188 950 298.5 950 c 0
 316.833007812 950 333.833007812 945.833007812 349.5 937.5 c 0
 365.166992188 929.166992188 373 920.166992188 373 910.5 c 0
 373 900.833007812 367.333007812 891 356 881 c 2
 289 817 l 2
EndSplineSet
EndChar

StartChar: Icircumflex
Encoding: 206 206 111
Width: 274
Flags: MW
HStem: -1 21G<75.3335 90.6665> 790 156<69 265 229 331>
LayerCount: 2
Fore
SplineSet
148 54 m 2
 145.333007812 39.3330078125 137.666992188 26.5 125 15.5 c 0
 112.333007812 4.5 98.3330078125 -1 83 -1 c 0
 67.6669921875 -1 55.5 4.3330078125 46.5 15 c 0
 37.5 25.6669921875 34.3330078125 38.6669921875 37 54 c 2
 141 644 l 2
 144.333007812 659.333007812 152.333007812 672.333007812 165 683 c 0
 177.666992188 693.666992188 191.5 699 206.5 699 c 0
 221.5 699 233.5 693.666992188 242.5 683 c 0
 251.5 672.333007812 254.666992188 659.333007812 252 644 c 2
 148 54 l 2
221 862 m 1
 155 817 l 2
 129 799 101.666992188 790 73 790 c 0
 65 790 59 791.833007812 55 795.5 c 0
 51 799.166992188 49.8330078125 803.666992188 51.5 809 c 0
 53.1669921875 814.333007812 59.6669921875 822.666992188 71 834 c 2
 162 917 l 2
 183.333007812 936.333007812 205.666992188 946 229 946 c 2
 265 946 l 2
 288.333007812 946 304.666992188 936.333007812 314 917 c 2
 355 834 l 2
 360.333007812 824 362 816 360 810 c 0
 356 796.666992188 342.5 790 319.5 790 c 0
 296.5 790 276.333007812 799 259 817 c 1
 221 862 l 1
EndSplineSet
EndChar

StartChar: Idieresis
Encoding: 207 207 112
Width: 274
Flags: MW
HStem: -1 21G<83.3335 98.6665> 790 130<124.333 169.667>
LayerCount: 2
Fore
SplineSet
156 54 m 2
 153.333007812 39.3330078125 145.666992188 26.5 133 15.5 c 0
 120.333007812 4.5 106.333007812 -1 91 -1 c 0
 75.6669921875 -1 63.5 4.3330078125 54.5 15 c 0
 45.5 25.6669921875 42.3330078125 38.6669921875 45 54 c 2
 149 644 l 2
 152.333007812 659.333007812 160.333007812 672.333007812 173 683 c 0
 185.666992188 693.666992188 199.5 699 214.5 699 c 0
 229.5 699 241.5 693.666992188 250.5 683 c 0
 259.5 672.333007812 262.666992188 659.333007812 260 644 c 2
 156 54 l 2
359.5 920 m 0
 377.833007812 920 392 914.166992188 402 902.5 c 0
 412 890.833007812 415.333007812 876 412 858 c 0
 408.934570312 836.54296875 399.501953125 819.845703125 383.701171875 807.907226562 c 0
 367.900390625 795.96875 350.833007812 790 332.5 790 c 0
 314.166992188 790 299.833007812 795.666992188 289.5 807 c 0
 279.166992188 818.333007812 276 833 280 851 c 1
 283.145507812 873.016601562 292.59765625 890.020507812 308.358398438 902.01171875 c 0
 324.119140625 914.00390625 341.166992188 920 359.5 920 c 0
160.5 920 m 0
 178.833007812 920 193 914.166992188 203 902.5 c 0
 213 890.833007812 216.333007812 876 213 858 c 0
 209.934570312 836.54296875 200.501953125 819.845703125 184.701171875 807.907226562 c 0
 168.900390625 795.96875 151.833007812 790 133.5 790 c 0
 115.166992188 790 100.833007812 795.666992188 90.5 807 c 0
 80.1669921875 818.333007812 77 833 81 851 c 1
 84.1455078125 873.016601562 93.59765625 890.020507812 109.358398438 902.01171875 c 0
 125.119140625 914.00390625 142.166992188 920 160.5 920 c 0
EndSplineSet
EndChar

StartChar: Oacute
Encoding: 211 211 115
Width: 850
Flags: MW
HStem: -1 110 588 111<437.667 495.333> 930 20G<478.333 496.667>
LayerCount: 2
Fore
SplineSet
361 -1 m 0
 267.666992188 -1 195 33.6669921875 143 103 c 1
 90.3330078125 170.333007812 72.6669921875 252.333007812 90 349 c 0
 107.333007812 445.666992188 154 527.666992188 230 595 c 1
 306.666992188 664.333007812 391.333007812 699 484 699 c 0
 576.666992188 699 649.333007812 664.666992188 702 596 c 0
 754.666992188 527.333007812 772.333007812 445 755 349 c 1
 739 253 692.666992188 171 616 103 c 0
 539.333007812 33.6669921875 454.333007812 -1 361 -1 c 0
465 588 m 0
 404.333007812 588 348.166992188 564.833007812 296.5 518.5 c 0
 244.833007812 472.166992188 213 415.833007812 201 349.5 c 0
 189 283.166992188 201 226 237 178 c 0
 271.666992188 133.333007812 319.666992188 110.333007812 381 109 c 1
 441.666992188 110.333007812 497.666992188 133.333007812 549 178 c 1
 601 226 633 283.166992188 645 349.5 c 0
 657 415.833007812 645.166992188 472.166992188 609.5 518.5 c 0
 573.833007812 564.833007812 525.666992188 588 465 588 c 0
478 817 m 2
 458.666992188 799 437 790 413 790 c 0
 389 790 377 797 377 811 c 0
 377 817.666992188 379.666992188 825 385 833 c 2
 442 921 l 2
 454 940.333007812 469.166992188 950 487.5 950 c 0
 505.833007812 950 522.833007812 945.833007812 538.5 937.5 c 0
 554.166992188 929.166992188 562 920.166992188 562 910.5 c 0
 562 900.833007812 556.333007812 891 545 881 c 2
 478 817 l 2
EndSplineSet
EndChar

StartChar: Otilde
Encoding: 213 213 117
Width: 850
Flags: W
HStem: -1 110 588 111<437.667 495.333> 783 147<402.667 482.333> 795 95<621.667 628.667 613.667 644.333> 795 147<621.667 701.333> 835 55
LayerCount: 2
Fore
SplineSet
361 -1 m 0xc0
 267.666992188 -1 195 33.6669921875 143 103 c 1
 90.3330078125 170.333007812 72.6669921875 252.333007812 90 349 c 0
 107.333007812 445.666992188 154 527.666992188 230 595 c 1
 306.666992188 664.333007812 391.333007812 699 484 699 c 0
 576.666992188 699 649.333007812 664.666992188 702 596 c 0
 754.666992188 527.333007812 772.333007812 445 755 349 c 1
 739 253 692.666992188 171 616 103 c 0
 539.333007812 33.6669921875 454.333007812 -1 361 -1 c 0xc0
465 588 m 0
 404.333007812 588 348.166992188 564.833007812 296.5 518.5 c 0
 244.833007812 472.166992188 213 415.833007812 201 349.5 c 0
 189 283.166992188 201 226 237 178 c 0
 271.666992188 133.333007812 319.666992188 110.333007812 381 109 c 1
 441.666992188 110.333007812 497.666992188 133.333007812 549 178 c 1
 601 226 633 283.166992188 645 349.5 c 0
 657 415.833007812 645.166992188 472.166992188 609.5 518.5 c 0
 573.833007812 564.833007812 525.666992188 588 465 588 c 0
439 803 m 1
 430.333007812 789.666992188 420.166992188 783 408.5 783 c 0
 396.833007812 783 387.333007812 786.333007812 380 793 c 0
 372.666992188 799.666992188 369 806.666992188 369 814 c 0
 369 821.333007812 370.333007812 829.666992188 373 839 c 0
 384.333007812 869.666992188 397.833007812 892.5 413.5 907.5 c 0
 429.166992188 922.5 448.333007812 930 471 930 c 0xe0
 493.666992188 930 521.333007812 923.333007812 554 910 c 0
 586.666992188 896.666992188 608.333007812 890 619 890 c 0xd0
 638.333007812 890 653.666992188 900.666992188 665 922 c 1
 673.666992188 935.333007812 683.833007812 942 695.5 942 c 0xc8
 707.166992188 942 716.666992188 938.666992188 724 932 c 0
 731.333007812 925.333007812 735 918.333007812 735 911 c 0
 735 903.666992188 733.666992188 895.333007812 731 886 c 0
 719.666992188 855.333007812 706.166992188 832.5 690.5 817.5 c 0
 674.833007812 802.5 655.666992188 795 633 795 c 0xd0
 610.333007812 795 582.666992188 801.666992188 550 815 c 0
 517.333007812 828.333007812 495.666992188 835 485 835 c 0xc4
 465.666992188 835 450.333007812 824.333007812 439 803 c 1
EndSplineSet
EndChar

StartChar: Ugrave
Encoding: 217 217 119
Width: 760
Flags: MW
HStem: 0 111<354 399> 680 20G<241.333 256.667 708.333 723.667> 790 160<458.333 554.667>
LayerCount: 2
Fore
SplineSet
716 700 m 0
 731.333007812 700 743.5 694.666992188 752.5 684 c 0
 761.5 673.333007812 764.666992188 660.333007812 762 645 c 2
 699 289 l 2
 685 209.666992188 644.833007812 141.666992188 578.5 85 c 0
 512.166992188 28.3330078125 439 0 359 0 c 0
 279 0 215.833007812 28.3330078125 169.5 85 c 0
 123.166992188 141.666992188 107 209.666992188 121 289 c 2
 183 645 l 2
 185.666992188 660.333007812 193.5 673.333007812 206.5 684 c 0
 219.5 694.666992188 233.666992188 700 249 700 c 0
 264.333007812 700 276.333007812 694.666992188 285 684 c 0
 293.666992188 673.333007812 296.666992188 660.333007812 294 645 c 2
 231 289 l 2
 222.333007812 239.666992188 232.5 197.666992188 261.5 163 c 0
 290.5 128.333007812 329.5 111 378.5 111 c 0
 427.5 111 472.5 128.333007812 513.5 163 c 0
 554.5 197.666992188 579.333007812 239.666992188 588 289 c 2
 651 645 l 2
 653.666992188 660.333007812 661.333007812 673.333007812 674 684 c 0
 686.666992188 694.666992188 700.666992188 700 716 700 c 0
579 811 m 0
 579 797 566.833007812 790 542.5 790 c 0
 518.166992188 790 496.666992188 799 478 817 c 2
 410 881 l 2
 398.666992188 891 393 900.833007812 393 910.5 c 0
 393 920.166992188 400.833007812 929.166992188 416.5 937.5 c 0
 432.166992188 945.833007812 449.166992188 950 467.5 950 c 0
 485.833007812 950 501 940.333007812 513 921 c 2
 570 833 l 2
 576 823.666992188 579 816.333007812 579 811 c 0
EndSplineSet
EndChar

StartChar: Uacute
Encoding: 218 218 120
Width: 760
Flags: MW
HStem: 0 111<354 399> 680 20G<241.333 256.667 708.333 723.667> 930 20G<539.333 557.667>
LayerCount: 2
Fore
SplineSet
716 700 m 0
 731.333007812 700 743.5 694.666992188 752.5 684 c 0
 761.5 673.333007812 764.666992188 660.333007812 762 645 c 2
 699 289 l 2
 685 209.666992188 644.833007812 141.666992188 578.5 85 c 0
 512.166992188 28.3330078125 439 0 359 0 c 0
 279 0 215.833007812 28.3330078125 169.5 85 c 0
 123.166992188 141.666992188 107 209.666992188 121 289 c 2
 183 645 l 2
 185.666992188 660.333007812 193.5 673.333007812 206.5 684 c 0
 219.5 694.666992188 233.666992188 700 249 700 c 0
 264.333007812 700 276.333007812 694.666992188 285 684 c 0
 293.666992188 673.333007812 296.666992188 660.333007812 294 645 c 2
 231 289 l 2
 222.333007812 239.666992188 232.5 197.666992188 261.5 163 c 0
 290.5 128.333007812 329.5 111 378.5 111 c 0
 427.5 111 472.5 128.333007812 513.5 163 c 0
 554.5 197.666992188 579.333007812 239.666992188 588 289 c 2
 651 645 l 2
 653.666992188 660.333007812 661.333007812 673.333007812 674 684 c 0
 686.666992188 694.666992188 700.666992188 700 716 700 c 0
539 817 m 2
 519.666992188 799 498 790 474 790 c 0
 450 790 438 797 438 811 c 0
 438 817.666992188 440.666992188 825 446 833 c 2
 503 921 l 2
 515 940.333007812 530.166992188 950 548.5 950 c 0
 566.833007812 950 583.833007812 945.833007812 599.5 937.5 c 0
 615.166992188 929.166992188 623 920.166992188 623 910.5 c 0
 623 900.833007812 617.333007812 891 606 881 c 2
 539 817 l 2
EndSplineSet
EndChar

StartChar: Ucircumflex
Encoding: 219 219 121
Width: 760
Flags: MW
HStem: 0 111<354 399> 680 20G<241.333 256.667 708.333 723.667> 790 156<405 601 565 667>
LayerCount: 2
Fore
SplineSet
716 700 m 0
 731.333007812 700 743.5 694.666992188 752.5 684 c 0
 761.5 673.333007812 764.666992188 660.333007812 762 645 c 2
 699 289 l 2
 685 209.666992188 644.833007812 141.666992188 578.5 85 c 0
 512.166992188 28.3330078125 439 0 359 0 c 0
 279 0 215.833007812 28.3330078125 169.5 85 c 0
 123.166992188 141.666992188 107 209.666992188 121 289 c 2
 183 645 l 2
 185.666992188 660.333007812 193.5 673.333007812 206.5 684 c 0
 219.5 694.666992188 233.666992188 700 249 700 c 0
 264.333007812 700 276.333007812 694.666992188 285 684 c 0
 293.666992188 673.333007812 296.666992188 660.333007812 294 645 c 2
 231 289 l 2
 222.333007812 239.666992188 232.5 197.666992188 261.5 163 c 0
 290.5 128.333007812 329.5 111 378.5 111 c 0
 427.5 111 472.5 128.333007812 513.5 163 c 0
 554.5 197.666992188 579.333007812 239.666992188 588 289 c 2
 651 645 l 2
 653.666992188 660.333007812 661.333007812 673.333007812 674 684 c 0
 686.666992188 694.666992188 700.666992188 700 716 700 c 0
557 862 m 1
 491 817 l 2
 465 799 437.666992188 790 409 790 c 0
 401 790 395 791.833007812 391 795.5 c 0
 387 799.166992188 385.833007812 803.666992188 387.5 809 c 0
 389.166992188 814.333007812 395.666992188 822.666992188 407 834 c 2
 498 917 l 2
 519.333007812 936.333007812 541.666992188 946 565 946 c 2
 601 946 l 2
 624.333007812 946 640.666992188 936.333007812 650 917 c 2
 691 834 l 2
 696.333007812 824 698 816 696 810 c 0
 692 796.666992188 678.5 790 655.5 790 c 0
 632.5 790 612.333007812 799 595 817 c 1
 557 862 l 1
EndSplineSet
EndChar

StartChar: Udieresis
Encoding: 220 220 122
Width: 760
Flags: MW
HStem: 0 111<354 399> 680 20G<241.333 256.667 708.333 723.667> 790 130<398.333 443.667>
LayerCount: 2
Fore
SplineSet
716 700 m 0
 731.333007812 700 743.5 694.666992188 752.5 684 c 0
 761.5 673.333007812 764.666992188 660.333007812 762 645 c 2
 699 289 l 2
 685 209.666992188 644.833007812 141.666992188 578.5 85 c 0
 512.166992188 28.3330078125 439 0 359 0 c 0
 279 0 215.833007812 28.3330078125 169.5 85 c 0
 123.166992188 141.666992188 107 209.666992188 121 289 c 2
 183 645 l 2
 185.666992188 660.333007812 193.5 673.333007812 206.5 684 c 0
 219.5 694.666992188 233.666992188 700 249 700 c 0
 264.333007812 700 276.333007812 694.666992188 285 684 c 0
 293.666992188 673.333007812 296.666992188 660.333007812 294 645 c 2
 231 289 l 2
 222.333007812 239.666992188 232.5 197.666992188 261.5 163 c 0
 290.5 128.333007812 329.5 111 378.5 111 c 0
 427.5 111 472.5 128.333007812 513.5 163 c 0
 554.5 197.666992188 579.333007812 239.666992188 588 289 c 2
 651 645 l 2
 653.666992188 660.333007812 661.333007812 673.333007812 674 684 c 0
 686.666992188 694.666992188 700.666992188 700 716 700 c 0
633.5 920 m 0
 651.833007812 920 666 914.166992188 676 902.5 c 0
 686 890.833007812 689.333007812 876 686 858 c 0
 682.934570312 836.54296875 673.501953125 819.845703125 657.701171875 807.907226562 c 0
 641.900390625 795.96875 624.833007812 790 606.5 790 c 0
 588.166992188 790 573.833007812 795.666992188 563.5 807 c 0
 553.166992188 818.333007812 550 833 554 851 c 1
 557.145507812 873.016601562 566.59765625 890.020507812 582.358398438 902.01171875 c 0
 598.119140625 914.00390625 615.166992188 920 633.5 920 c 0
434.5 920 m 0
 452.833007812 920 467 914.166992188 477 902.5 c 0
 487 890.833007812 490.333007812 876 487 858 c 0
 483.934570312 836.54296875 474.501953125 819.845703125 458.701171875 807.907226562 c 0
 442.900390625 795.96875 425.833007812 790 407.5 790 c 0
 389.166992188 790 374.833007812 795.666992188 364.5 807 c 0
 354.166992188 818.333007812 351 833 355 851 c 1
 358.145507812 873.016601562 367.59765625 890.020507812 383.358398438 902.01171875 c 0
 399.119140625 914.00390625 416.166992188 920 434.5 920 c 0
EndSplineSet
EndChar

StartChar: Yacute
Encoding: 221 221 123
Width: 716
Flags: MW
HStem: -1 21G<214.333 229.667> 930 20G<445.333 463.667>
LayerCount: 2
Fore
SplineSet
592 611 m 2
 335 328 l 1
 287 54 l 2
 284.333007812 39.3330078125 276.666992188 26.5 264 15.5 c 0
 251.333007812 4.5 237.333007812 -1 222 -1 c 0
 206.666992188 -1 194.5 4.3330078125 185.5 15 c 0
 176.5 25.6669921875 173.333007812 38.6669921875 176 54 c 2
 225 328 l 1
 68 611 l 2
 61.3330078125 623.666992188 60.5 637.333007812 65.5 652 c 0
 70.5 666.666992188 79.6669921875 678.666992188 93 688 c 0
 107 697.333007812 121.5 700.833007812 136.5 698.5 c 0
 151.5 696.166992188 162.333007812 688.666992188 169 676 c 2
 300 440 l 1
 514 676 l 2
 524.666992188 688.666992188 537.833007812 696.166992188 553.5 698.5 c 0
 569.166992188 700.833007812 582.333007812 697.333007812 593 688 c 0
 603.666992188 678.666992188 609 666.666992188 609 652 c 0
 609 637.333007812 603.333007812 623.666992188 592 611 c 2
445 817 m 2
 425.666992188 799 404 790 380 790 c 0
 356 790 344 797 344 811 c 0
 344 817.666992188 346.666992188 825 352 833 c 2
 409 921 l 2
 421 940.333007812 436.166992188 950 454.5 950 c 0
 472.833007812 950 489.833007812 945.833007812 505.5 937.5 c 0
 521.166992188 929.166992188 529 920.166992188 529 910.5 c 0
 529 900.833007812 523.333007812 891 512 881 c 2
 445 817 l 2
EndSplineSet
EndChar

StartChar: agrave
Encoding: 224 224 124
Width: 574
Flags: MW
HStem: 1 106<269.333 292.667> 394 105<323.667 356.333> 590 160<406.333 502.667>
LayerCount: 2
Fore
SplineSet
269 1 m 0
 202.333007812 1 150.333007812 25.6669921875 113 75 c 0
 75.6669921875 125.666992188 63.3330078125 184 76 250 c 1
 86.6669921875 317.333007812 119.333007812 376 174 426 c 1
 229.333007812 474.666992188 290.333007812 499 357 499 c 0
 405 499 446.666992188 485 482 457 c 1
 486.666992188 469 494.5 479 505.5 487 c 0
 516.5 495 529 499 543 499 c 0
 557 499 568 493.833007812 576 483.5 c 0
 584 473.166992188 586.666992188 460.666992188 584 446 c 2
 516 55 l 2
 512.666992188 39.6669921875 505.166992188 26.8330078125 493.5 16.5 c 0
 481.833007812 6.1669921875 469 1 455 1 c 0
 441 1 430 5 422 13 c 0
 414 21 409.666992188 31.3330078125 409 44 c 1
 363 15.3330078125 316.333007812 1 269 1 c 0
239 353 m 0
 207 324.333007812 187.666992188 290 181 250 c 0
 174.333007812 210 181.333007812 176.166992188 202 148.5 c 0
 222.666992188 120.833007812 251.166992188 107 287.5 107 c 0
 323.833007812 107 356.666992188 120.666992188 386 148 c 1
 417.333007812 175.333007812 436.833007812 209 444.5 249 c 0
 452.166992188 289 445.166992188 323.166992188 423.5 351.5 c 0
 401.833007812 379.833007812 373.666992188 394 339 394 c 0
 304.333007812 394 271 380.333007812 239 353 c 0
527 611 m 0
 527 597 514.833007812 590 490.5 590 c 0
 466.166992188 590 444.666992188 599 426 617 c 2
 358 681 l 2
 346.666992188 691 341 700.833007812 341 710.5 c 0
 341 720.166992188 348.833007812 729.166992188 364.5 737.5 c 0
 380.166992188 745.833007812 397.166992188 750 415.5 750 c 0
 433.833007812 750 449 740.333007812 461 721 c 2
 518 633 l 2
 524 624.333007812 527 617 527 611 c 0
EndSplineSet
EndChar

StartChar: aacute
Encoding: 225 225 125
Width: 574
Flags: MW
HStem: 1 106<269.333 292.667> 394 105<323.667 356.333> 730 20G<449.333 467.667>
LayerCount: 2
Fore
SplineSet
269 1 m 0
 202.333007812 1 150.333007812 25.6669921875 113 75 c 0
 75.6669921875 125.666992188 63.3330078125 184 76 250 c 1
 86.6669921875 317.333007812 119.333007812 376 174 426 c 1
 229.333007812 474.666992188 290.333007812 499 357 499 c 0
 405 499 446.666992188 485 482 457 c 1
 486.666992188 469 494.5 479 505.5 487 c 0
 516.5 495 529 499 543 499 c 0
 557 499 568 493.833007812 576 483.5 c 0
 584 473.166992188 586.666992188 460.666992188 584 446 c 2
 516 55 l 2
 512.666992188 39.6669921875 505.166992188 26.8330078125 493.5 16.5 c 0
 481.833007812 6.1669921875 469 1 455 1 c 0
 441 1 430 5 422 13 c 0
 414 21 409.666992188 31.3330078125 409 44 c 1
 363 15.3330078125 316.333007812 1 269 1 c 0
239 353 m 0
 207 324.333007812 187.666992188 290 181 250 c 0
 174.333007812 210 181.333007812 176.166992188 202 148.5 c 0
 222.666992188 120.833007812 251.166992188 107 287.5 107 c 0
 323.833007812 107 356.666992188 120.666992188 386 148 c 1
 417.333007812 175.333007812 436.833007812 209 444.5 249 c 0
 452.166992188 289 445.166992188 323.166992188 423.5 351.5 c 0
 401.833007812 379.833007812 373.666992188 394 339 394 c 0
 304.333007812 394 271 380.333007812 239 353 c 0
449 617 m 2
 429.666992188 599 408 590 384 590 c 0
 360 590 348 597 348 611 c 0
 348 617.666992188 350.666992188 625 356 633 c 2
 413 721 l 2
 425 740.333007812 440.166992188 750 458.5 750 c 0
 476.833007812 750 493.833007812 745.833007812 509.5 737.5 c 0
 525.166992188 729.166992188 533 720.166992188 533 710.5 c 0
 533 700.833007812 527.333007812 691 516 681 c 2
 449 617 l 2
EndSplineSet
EndChar

StartChar: acircumflex
Encoding: 226 226 126
Width: 574
Flags: MW
HStem: 1 106<269.333 292.667> 394 105<323.667 356.333> 590 156<344 540 504 606>
LayerCount: 2
Fore
SplineSet
269 1 m 0
 202.333007812 1 150.333007812 25.6669921875 113 75 c 0
 75.6669921875 125.666992188 63.3330078125 184 76 250 c 1
 86.6669921875 317.333007812 119.333007812 376 174 426 c 1
 229.333007812 474.666992188 290.333007812 499 357 499 c 0
 405 499 446.666992188 485 482 457 c 1
 486.666992188 469 494.5 479 505.5 487 c 0
 516.5 495 529 499 543 499 c 0
 557 499 568 493.833007812 576 483.5 c 0
 584 473.166992188 586.666992188 460.666992188 584 446 c 2
 516 55 l 2
 512.666992188 39.6669921875 505.166992188 26.8330078125 493.5 16.5 c 0
 481.833007812 6.1669921875 469 1 455 1 c 0
 441 1 430 5 422 13 c 0
 414 21 409.666992188 31.3330078125 409 44 c 1
 363 15.3330078125 316.333007812 1 269 1 c 0
239 353 m 0
 207 324.333007812 187.666992188 290 181 250 c 0
 174.333007812 210 181.333007812 176.166992188 202 148.5 c 0
 222.666992188 120.833007812 251.166992188 107 287.5 107 c 0
 323.833007812 107 356.666992188 120.666992188 386 148 c 1
 417.333007812 175.333007812 436.833007812 209 444.5 249 c 0
 452.166992188 289 445.166992188 323.166992188 423.5 351.5 c 0
 401.833007812 379.833007812 373.666992188 394 339 394 c 0
 304.333007812 394 271 380.333007812 239 353 c 0
496 662 m 1
 430 617 l 2
 404 599 376.666992188 590 348 590 c 0
 340 590 334 591.833007812 330 595.5 c 0
 326 599.166992188 324.833007812 603.666992188 326.5 609 c 0
 328.166992188 614.333007812 334.666992188 622.666992188 346 634 c 2
 437 717 l 2
 458.333007812 736.333007812 480.666992188 746 504 746 c 2
 540 746 l 2
 562.666992188 746 579 736.333007812 589 717 c 2
 630 634 l 2
 635.333007812 624 637 616 635 610 c 0
 631 596.666992188 617.5 590 594.5 590 c 0
 571.5 590 551.333007812 599 534 617 c 1
 496 662 l 1
EndSplineSet
EndChar

StartChar: atilde
Encoding: 227 227 127
Width: 574
Flags: W
HStem: 1 106<269.333 292.667> 394 105<323.667 356.333> 583 147<323.667 403.333> 595 95<542.667 549.667 534.667 565.333> 595 147<542.667 622.333> 635 55
LayerCount: 2
Fore
SplineSet
269 1 m 0xc0
 202.333007812 1 150.333007812 25.6669921875 113 75 c 0
 75.6669921875 125.666992188 63.3330078125 184 76 250 c 1
 86.6669921875 317.333007812 119.333007812 376 174 426 c 1
 229.333007812 474.666992188 290.333007812 499 357 499 c 0
 405 499 446.666992188 485 482 457 c 1
 486.666992188 469 494.5 479 505.5 487 c 0
 516.5 495 529 499 543 499 c 0
 557 499 568 493.833007812 576 483.5 c 0
 584 473.166992188 586.666992188 460.666992188 584 446 c 2
 516 55 l 2
 512.666992188 39.6669921875 505.166992188 26.8330078125 493.5 16.5 c 0
 481.833007812 6.1669921875 469 1 455 1 c 0
 441 1 430 5 422 13 c 0
 414 21 409.666992188 31.3330078125 409 44 c 1
 363 15.3330078125 316.333007812 1 269 1 c 0xc0
239 353 m 0
 207 324.333007812 187.666992188 290 181 250 c 0
 174.333007812 210 181.333007812 176.166992188 202 148.5 c 0
 222.666992188 120.833007812 251.166992188 107 287.5 107 c 0
 323.833007812 107 356.666992188 120.666992188 386 148 c 1
 417.333007812 175.333007812 436.833007812 209 444.5 249 c 0
 452.166992188 289 445.166992188 323.166992188 423.5 351.5 c 0
 401.833007812 379.833007812 373.666992188 394 339 394 c 0
 304.333007812 394 271 380.333007812 239 353 c 0
360 603 m 1
 351.333007812 589.666992188 341.166992188 583 329.5 583 c 0
 317.833007812 583 308.333007812 586.333007812 301 593 c 0
 293.666992188 599.666992188 290 606.666992188 290 614 c 0
 290 621.333007812 291.333007812 629.666992188 294 639 c 0
 305.333007812 669.666992188 318.833007812 692.5 334.5 707.5 c 0
 350.166992188 722.5 369.333007812 730 392 730 c 0xe0
 414.666992188 730 442.333007812 723.333007812 475 710 c 0
 507.666992188 696.666992188 529.333007812 690 540 690 c 0xd0
 559.333007812 690 574.666992188 700.666992188 586 722 c 1
 594.666992188 735.333007812 604.833007812 742 616.5 742 c 0xc8
 628.166992188 742 637.666992188 738.666992188 645 732 c 0
 652.333007812 725.333007812 656 718.333007812 656 711 c 0
 656 703.666992188 654.666992188 695.333007812 652 686 c 0
 640.666992188 655.333007812 627.166992188 632.5 611.5 617.5 c 0
 595.833007812 602.5 576.666992188 595 554 595 c 0xd0
 531.333007812 595 503.666992188 601.666992188 471 615 c 0
 438.333007812 628.333007812 416.666992188 635 406 635 c 0xc4
 386.666992188 635 371.333007812 624.333007812 360 603 c 1
EndSplineSet
EndChar

StartChar: adieresis
Encoding: 228 228 128
Width: 574
Flags: MW
HStem: 1 106<269.333 292.667> 394 105<323.667 356.333> 590 130<384.333 429.667>
LayerCount: 2
Fore
SplineSet
269 1 m 0
 202.333007812 1 150.333007812 25.6669921875 113 75 c 0
 75.6669921875 125.666992188 63.3330078125 184 76 250 c 1
 86.6669921875 317.333007812 119.333007812 376 174 426 c 1
 229.333007812 474.666992188 290.333007812 499 357 499 c 0
 405 499 446.666992188 485 482 457 c 1
 486.666992188 469 494.5 479 505.5 487 c 0
 516.5 495 529 499 543 499 c 0
 557 499 568 493.833007812 576 483.5 c 0
 584 473.166992188 586.666992188 460.666992188 584 446 c 2
 516 55 l 2
 512.666992188 39.6669921875 505.166992188 26.8330078125 493.5 16.5 c 0
 481.833007812 6.1669921875 469 1 455 1 c 0
 441 1 430 5 422 13 c 0
 414 21 409.666992188 31.3330078125 409 44 c 1
 363 15.3330078125 316.333007812 1 269 1 c 0
239 353 m 0
 207 324.333007812 187.666992188 290 181 250 c 0
 174.333007812 210 181.333007812 176.166992188 202 148.5 c 0
 222.666992188 120.833007812 251.166992188 107 287.5 107 c 0
 323.833007812 107 356.666992188 120.666992188 386 148 c 1
 417.333007812 175.333007812 436.833007812 209 444.5 249 c 0
 452.166992188 289 445.166992188 323.166992188 423.5 351.5 c 0
 401.833007812 379.833007812 373.666992188 394 339 394 c 0
 304.333007812 394 271 380.333007812 239 353 c 0
619.5 720 m 0
 637.833007812 720 652 714.166992188 662 702.5 c 0
 672 690.833007812 675.333007812 676 672 658 c 0
 668.934570312 636.54296875 659.501953125 619.845703125 643.701171875 607.907226562 c 0
 627.900390625 595.96875 610.833007812 590 592.5 590 c 0
 574.166992188 590 559.833007812 595.666992188 549.5 607 c 0
 539.166992188 618.333007812 536 633 540 651 c 1
 543.145507812 673.016601562 552.59765625 690.020507812 568.358398438 702.01171875 c 0
 584.119140625 714.00390625 601.166992188 720 619.5 720 c 0
420.5 720 m 0
 438.833007812 720 453 714.166992188 463 702.5 c 0
 473 690.833007812 476.333007812 676 473 658 c 0
 469.934570312 636.54296875 460.501953125 619.845703125 444.701171875 607.907226562 c 0
 428.900390625 595.96875 411.833007812 590 393.5 590 c 0
 375.166992188 590 360.833007812 595.666992188 350.5 607 c 0
 340.166992188 618.333007812 337 633 341 651 c 1
 344.145507812 673.016601562 353.59765625 690.020507812 369.358398438 702.01171875 c 0
 385.119140625 714.00390625 402.166992188 720 420.5 720 c 0
EndSplineSet
EndChar

StartChar: aring
Encoding: 229 229 129
Width: 574
Flags: MW
HStem: 1 106<257.333 280.667> 394 105<311.667 344.333> 570 76<408.333 419> 742 76<429 438.667>
LayerCount: 2
Fore
SplineSet
402 570 m 0
 368 570 340.333007812 582.333007812 319 607 c 0
 297.666992188 631.666992188 290 660.333007812 296 693 c 1
 296 695 l 1
 302 728.333007812 320 757.166992188 350 781.5 c 0
 380 805.833007812 412 818 446 818 c 0
 480 818 507.666992188 805.833007812 529 781.5 c 0
 550.333007812 757.166992188 558 728.333007812 552 695 c 1
 552 693 l 1
 546 660.333007812 528 631.666992188 498 607 c 0
 468 582.333007812 436 570 402 570 c 0
415 646 m 0
 428.333007812 646 440.5 650.5 451.5 659.5 c 0
 462.5 668.5 469.333007812 679.666992188 472 693 c 1
 472 695 l 1
 474.666992188 707.666992188 472 718.666992188 464 728 c 0
 456 737.333007812 445.333007812 742 432 742 c 0
 418.666992188 742 406.666992188 737.5 396 728.5 c 0
 385.333007812 719.5 378.666992188 708.333007812 376 695 c 1
 376 693 l 1
 373.333007812 679.666992188 375.833007812 668.5 383.5 659.5 c 0
 391.166992188 650.5 401.666992188 646 415 646 c 0
257 1 m 0
 190.333007812 1 138.333007812 25.6669921875 101 75 c 0
 63.6669921875 125.666992188 51.3330078125 184 64 250 c 1
 74.6669921875 317.333007812 107.333007812 376 162 426 c 1
 217.333007812 474.666992188 278.333007812 499 345 499 c 0
 393 499 434.666992188 485 470 457 c 1
 474.666992188 469 482.5 479 493.5 487 c 0
 504.5 495 517 499 531 499 c 0
 545 499 556 493.833007812 564 483.5 c 0
 572 473.166992188 574.666992188 460.666992188 572 446 c 2
 504 55 l 2
 500.666992188 39.6669921875 493.166992188 26.8330078125 481.5 16.5 c 0
 469.833007812 6.1669921875 457 1 443 1 c 0
 429 1 418 5 410 13 c 0
 402 21 397.666992188 31.3330078125 397 44 c 1
 351 15.3330078125 304.333007812 1 257 1 c 0
227 353 m 0
 195 324.333007812 175.666992188 290 169 250 c 0
 162.333007812 210 169.333007812 176.166992188 190 148.5 c 0
 210.666992188 120.833007812 239.166992188 107 275.5 107 c 0
 311.833007812 107 344.666992188 120.666992188 374 148 c 1
 405.333007812 175.333007812 424.833007812 209 432.5 249 c 0
 440.166992188 289 433.166992188 323.166992188 411.5 351.5 c 0
 389.833007812 379.833007812 361.666992188 394 327 394 c 0
 292.333007812 394 259 380.333007812 227 353 c 0
EndSplineSet
EndChar

StartChar: ae
Encoding: 230 230 130
Width: 954
Flags: W
HStem: 0 21G<631.333 684> 1 109<262.333 286.333> 218 87<578 867 578 893 568 867> 403 107 491 20G<318 376.667 535.333 549.667>
LayerCount: 2
Fore
SplineSet
661 0 m 0xb0
 601.666992188 0 553 19 515 57 c 1
 515 56 l 1
 511.666992188 40.6669921875 503.833007812 27.6669921875 491.5 17 c 0
 479.166992188 6.3330078125 466 1 452 1 c 0
 438 1 426.833007812 5.1669921875 418.5 13.5 c 0
 410.166992188 21.8330078125 405.666992188 32.3330078125 405 45 c 1
 358.333007812 15.6669921875 310.666992188 1 262 1 c 0
 194 1 140.666992188 26.3330078125 102 77 c 0
 64 128.333007812 51.1669921875 188.5 63.5 257.5 c 0
 75.8330078125 326.5 109.666992188 386 165 436 c 0
 221.666992188 486 284 511 352 511 c 0
 401.333007812 511 444 496.666992188 480 468 c 1
 484.666992188 480.666992188 492.666992188 491 504 499 c 0
 515.333007812 507 528.166992188 511 542.5 511 c 0x68
 556.833007812 511 568.166992188 505.666992188 576.5 495 c 0
 584.650390625 484.567382812 587.150390625 469.901367188 584 451 c 1
 637.333007812 490.333007812 695.666992188 510 759 510 c 0
 822.333007812 510 873.333007812 487.666992188 912 443 c 0
 950.666992188 398.333007812 965.666992188 342 957 274 c 1
 957 256.05859375 949.833007812 242.240234375 935.5 232.543945312 c 0
 921.166992188 222.84765625 907 218 893 218 c 2
 568 218 l 1
 568 191.333007812 575.333007812 169 590 151 c 0
 598.666992188 139 611.5 128.666992188 628.5 120 c 0
 645.5 111.333007812 662.666992188 106.333007812 680 105 c 0
 728.666992188 101 769.333007812 114 802 144 c 0
 813.333007812 155.333007812 825.166992188 160.833007812 837.5 160.5 c 0
 849.833007812 160.166992188 858.333007812 158.5 863 155.5 c 0
 867.666992188 152.5 873 147.833007812 879 141.5 c 0
 885 135.166992188 887.5 125.5 886.5 112.5 c 0
 885.5 99.5 880.333007812 88.3330078125 871 79 c 0
 841 50.3330078125 810 30 778 18 c 0
 746 6 707 0 661 0 c 0xb0
333 403 m 0x70
 297 403 262.833007812 388.666992188 230.5 360 c 0
 198.166992188 331.333007812 178.5 296.5 171.5 255.5 c 0
 164.5 214.5 172 180 194 152 c 1
 214.666992188 124 243.666992188 110 281 110 c 0
 318.333007812 110 352 124 382 152 c 1
 414 180 433.833007812 214.5 441.5 255.5 c 0
 449.166992188 296.5 442 331.333007812 420 360 c 0
 398 388.666992188 369 403 333 403 c 0x70
736 413 m 1
 696 411 662.166992188 398.833007812 634.5 376.5 c 0
 606.833007812 354.166992188 588 330.333007812 578 305 c 1
 867 305 l 1
 865.666992188 329 853.5 352.166992188 830.5 374.5 c 0
 807.5 396.833007812 776 409.666992188 736 413 c 1
EndSplineSet
EndChar

StartChar: egrave
Encoding: 232 232 131
Width: 584
Flags: MW
HStem: 0 21G<283 305.333> 214 85<202 485 202 511 192 485> 405 95 590 160<427.333 523.667>
LayerCount: 2
Fore
SplineSet
283 0 m 0
 215 0.6669921875 162 25.3330078125 124 74 c 0
 86 122.666992188 73.3330078125 181.333007812 86 250 c 0
 98.6669921875 318.666992188 132.833007812 377.5 188.5 426.5 c 0
 244.166992188 475.5 305.5 500 372.5 500 c 0
 439.5 500 491.833007812 478.166992188 529.5 434.5 c 0
 567.166992188 390.833007812 581.666992188 335.333007812 573 268 c 0
 573 262.666992188 572 258 570 254 c 0
 566.666992188 242 559.5 232.333007812 548.5 225 c 0
 537.5 217.666992188 525 214 511 214 c 2
 192 214 l 1
 192 188 199.333007812 166 214 148 c 1
 222 136 234.333007812 125.833007812 251 117.5 c 0
 267.666992188 109.166992188 284.666992188 104.333007812 302 103 c 0
 349.333007812 99 389 111.666992188 421 141 c 0
 432.333007812 151.666992188 444.166992188 157 456.5 157 c 0
 468.833007812 157 477.166992188 155.5 481.5 152.5 c 0
 485.833007812 149.5 491 144.833007812 497 138.5 c 0
 503 132.166992188 505.5 122.666992188 504.5 110 c 0
 503.5 97.3330078125 498.333007812 86.3330078125 489 77 c 0
 459 49 428.333007812 29.1669921875 397 17.5 c 0
 365.666992188 5.8330078125 327.666992188 0 283 0 c 0
357 405 m 1
 318.333007812 403 285.333007812 391 258 369 c 0
 230.666992188 347 212 323.666992188 202 299 c 1
 485 299 l 1
 483.666992188 322.333007812 471.833007812 345 449.5 367 c 0
 427.166992188 389 396.333007812 401.666992188 357 405 c 1
548 611 m 0
 548 597 535.833007812 590 511.5 590 c 0
 487.166992188 590 465.666992188 599 447 617 c 2
 379 681 l 2
 367.666992188 691 362 700.833007812 362 710.5 c 0
 362 720.166992188 369.833007812 729.166992188 385.5 737.5 c 0
 401.166992188 745.833007812 418.166992188 750 436.5 750 c 0
 454.833007812 750 470 740.333007812 482 721 c 2
 539 633 l 2
 545 624.333007812 548 617 548 611 c 0
EndSplineSet
EndChar

StartChar: eacute
Encoding: 233 233 132
Width: 584
Flags: MW
HStem: 0 21G<283 305.333> 214 85<202 485 202 511 192 485> 405 95 730 20G<423.333 441.667>
LayerCount: 2
Fore
SplineSet
283 0 m 0
 215 0.6669921875 162 25.3330078125 124 74 c 0
 86 122.666992188 73.3330078125 181.333007812 86 250 c 0
 98.6669921875 318.666992188 132.833007812 377.5 188.5 426.5 c 0
 244.166992188 475.5 305.5 500 372.5 500 c 0
 439.5 500 491.833007812 478.166992188 529.5 434.5 c 0
 567.166992188 390.833007812 581.666992188 335.333007812 573 268 c 0
 573 262.666992188 572 258 570 254 c 0
 566.666992188 242 559.5 232.333007812 548.5 225 c 0
 537.5 217.666992188 525 214 511 214 c 2
 192 214 l 1
 192 188 199.333007812 166 214 148 c 1
 222 136 234.333007812 125.833007812 251 117.5 c 0
 267.666992188 109.166992188 284.666992188 104.333007812 302 103 c 0
 349.333007812 99 389 111.666992188 421 141 c 0
 432.333007812 151.666992188 444.166992188 157 456.5 157 c 0
 468.833007812 157 477.166992188 155.5 481.5 152.5 c 0
 485.833007812 149.5 491 144.833007812 497 138.5 c 0
 503 132.166992188 505.5 122.666992188 504.5 110 c 0
 503.5 97.3330078125 498.333007812 86.3330078125 489 77 c 0
 459 49 428.333007812 29.1669921875 397 17.5 c 0
 365.666992188 5.8330078125 327.666992188 0 283 0 c 0
357 405 m 1
 318.333007812 403 285.333007812 391 258 369 c 0
 230.666992188 347 212 323.666992188 202 299 c 1
 485 299 l 1
 483.666992188 322.333007812 471.833007812 345 449.5 367 c 0
 427.166992188 389 396.333007812 401.666992188 357 405 c 1
423 617 m 2
 403.666992188 599 382 590 358 590 c 0
 334 590 322 597 322 611 c 0
 322 617.666992188 324.666992188 625 330 633 c 2
 387 721 l 2
 399 740.333007812 414.166992188 750 432.5 750 c 0
 450.833007812 750 467.833007812 745.833007812 483.5 737.5 c 0
 499.166992188 729.166992188 507 720.166992188 507 710.5 c 0
 507 700.833007812 501.333007812 691 490 681 c 2
 423 617 l 2
EndSplineSet
EndChar

StartChar: ecircumflex
Encoding: 234 234 133
Width: 584
Flags: MW
HStem: 0 21G<283 305.333> 214 85<202 485 202 511 192 485> 405 95 590 156<296 492 456 558>
LayerCount: 2
Fore
SplineSet
283 0 m 0
 215 0.6669921875 162 25.3330078125 124 74 c 0
 86 122.666992188 73.3330078125 181.333007812 86 250 c 0
 98.6669921875 318.666992188 132.833007812 377.5 188.5 426.5 c 0
 244.166992188 475.5 305.5 500 372.5 500 c 0
 439.5 500 491.833007812 478.166992188 529.5 434.5 c 0
 567.166992188 390.833007812 581.666992188 335.333007812 573 268 c 0
 573 262.666992188 572 258 570 254 c 0
 566.666992188 242 559.5 232.333007812 548.5 225 c 0
 537.5 217.666992188 525 214 511 214 c 2
 192 214 l 1
 192 188 199.333007812 166 214 148 c 1
 222 136 234.333007812 125.833007812 251 117.5 c 0
 267.666992188 109.166992188 284.666992188 104.333007812 302 103 c 0
 349.333007812 99 389 111.666992188 421 141 c 0
 432.333007812 151.666992188 444.166992188 157 456.5 157 c 0
 468.833007812 157 477.166992188 155.5 481.5 152.5 c 0
 485.833007812 149.5 491 144.833007812 497 138.5 c 0
 503 132.166992188 505.5 122.666992188 504.5 110 c 0
 503.5 97.3330078125 498.333007812 86.3330078125 489 77 c 0
 459 49 428.333007812 29.1669921875 397 17.5 c 0
 365.666992188 5.8330078125 327.666992188 0 283 0 c 0
357 405 m 1
 318.333007812 403 285.333007812 391 258 369 c 0
 230.666992188 347 212 323.666992188 202 299 c 1
 485 299 l 1
 483.666992188 322.333007812 471.833007812 345 449.5 367 c 0
 427.166992188 389 396.333007812 401.666992188 357 405 c 1
448 662 m 1
 382 617 l 2
 356 599 328.666992188 590 300 590 c 0
 292 590 286 591.833007812 282 595.5 c 0
 278 599.166992188 276.833007812 603.666992188 278.5 609 c 0
 280.166992188 614.333007812 286.666992188 622.666992188 298 634 c 2
 389 717 l 2
 410.333007812 736.333007812 432.666992188 746 456 746 c 2
 492 746 l 2
 514.666992188 746 531 736.333007812 541 717 c 2
 582 634 l 2
 587.333007812 624 589 616 587 610 c 0
 583 596.666992188 569.5 590 546.5 590 c 0
 523.5 590 503.333007812 599 486 617 c 1
 448 662 l 1
EndSplineSet
EndChar

StartChar: edieresis
Encoding: 235 235 134
Width: 584
Flags: MW
HStem: 0 21G<283 305.333> 214 85<202 485 202 511 192 485> 405 95 590 130<329.333 374.667>
LayerCount: 2
Fore
SplineSet
283 0 m 0
 215 0.6669921875 162 25.3330078125 124 74 c 0
 86 122.666992188 73.3330078125 181.333007812 86 250 c 0
 98.6669921875 318.666992188 132.833007812 377.5 188.5 426.5 c 0
 244.166992188 475.5 305.5 500 372.5 500 c 0
 439.5 500 491.833007812 478.166992188 529.5 434.5 c 0
 567.166992188 390.833007812 581.666992188 335.333007812 573 268 c 0
 573 262.666992188 572 258 570 254 c 0
 566.666992188 242 559.5 232.333007812 548.5 225 c 0
 537.5 217.666992188 525 214 511 214 c 2
 192 214 l 1
 192 188 199.333007812 166 214 148 c 1
 222 136 234.333007812 125.833007812 251 117.5 c 0
 267.666992188 109.166992188 284.666992188 104.333007812 302 103 c 0
 349.333007812 99 389 111.666992188 421 141 c 0
 432.333007812 151.666992188 444.166992188 157 456.5 157 c 0
 468.833007812 157 477.166992188 155.5 481.5 152.5 c 0
 485.833007812 149.5 491 144.833007812 497 138.5 c 0
 503 132.166992188 505.5 122.666992188 504.5 110 c 0
 503.5 97.3330078125 498.333007812 86.3330078125 489 77 c 0
 459 49 428.333007812 29.1669921875 397 17.5 c 0
 365.666992188 5.8330078125 327.666992188 0 283 0 c 0
357 405 m 1
 318.333007812 403 285.333007812 391 258 369 c 0
 230.666992188 347 212 323.666992188 202 299 c 1
 485 299 l 1
 483.666992188 322.333007812 471.833007812 345 449.5 367 c 0
 427.166992188 389 396.333007812 401.666992188 357 405 c 1
564.5 720 m 0
 582.833007812 720 597 714.166992188 607 702.5 c 0
 617 690.833007812 620.333007812 676 617 658 c 0
 613.934570312 636.54296875 604.501953125 619.845703125 588.701171875 607.907226562 c 0
 572.900390625 595.96875 555.833007812 590 537.5 590 c 0
 519.166992188 590 504.833007812 595.666992188 494.5 607 c 0
 484.166992188 618.333007812 481 633 485 651 c 1
 488.145507812 673.016601562 497.59765625 690.020507812 513.358398438 702.01171875 c 0
 529.119140625 714.00390625 546.166992188 720 564.5 720 c 0
365.5 720 m 0
 383.833007812 720 398 714.166992188 408 702.5 c 0
 418 690.833007812 421.333007812 676 418 658 c 0
 414.934570312 636.54296875 405.501953125 619.845703125 389.701171875 607.907226562 c 0
 373.900390625 595.96875 356.833007812 590 338.5 590 c 0
 320.166992188 590 305.833007812 595.666992188 295.5 607 c 0
 285.166992188 618.333007812 282 633 286 651 c 1
 289.145507812 673.016601562 298.59765625 690.020507812 314.358398438 702.01171875 c 0
 330.119140625 714.00390625 347.166992188 720 365.5 720 c 0
EndSplineSet
EndChar

StartChar: igrave
Encoding: 236 236 135
Width: 249
Flags: MW
HStem: -1 21G<45.3335 60.6665> 590 160<112.333 208.667>
LayerCount: 2
Fore
SplineSet
7 54 m 2
 80 464 l 2
 82.6669921875 479.333007812 90.3330078125 492.333007812 103 503 c 0
 115.666992188 513.666992188 129.666992188 519 145 519 c 0
 160.333007812 519 172.333007812 513.5 181 502.5 c 0
 189.666992188 491.5 192.666992188 478.666992188 190 464 c 2
 118 54 l 2
 115.333007812 38.6669921875 107.666992188 25.6669921875 95 15 c 0
 82.3330078125 4.3330078125 68.3330078125 -1 53 -1 c 0
 37.6669921875 -1 25.5 4.3330078125 16.5 15 c 0
 7.5 25.6669921875 4.3330078125 38.6669921875 7 54 c 2
233 611 m 0
 233 597 220.833007812 590 196.5 590 c 0
 172.166992188 590 150.666992188 599 132 617 c 2
 64 681 l 2
 52.6669921875 691 47 700.833007812 47 710.5 c 0
 47 720.166992188 54.8330078125 729.166992188 70.5 737.5 c 0
 86.1669921875 745.833007812 103.166992188 750 121.5 750 c 0
 139.833007812 750 155 740.333007812 167 721 c 2
 224 633 l 2
 230 624.333007812 233 617 233 611 c 0
EndSplineSet
EndChar

StartChar: iacute
Encoding: 237 237 136
Width: 249
Flags: MW
HStem: -1 21G<143.333 158.667> 730 20G<282.333 300.667>
LayerCount: 2
Fore
SplineSet
105 54 m 2
 178 464 l 2
 180.666992188 479.333007812 188.333007812 492.333007812 201 503 c 0
 213.666992188 513.666992188 227.666992188 519 243 519 c 0
 258.333007812 519 270.333007812 513.5 279 502.5 c 0
 287.666992188 491.5 290.666992188 478.666992188 288 464 c 2
 216 54 l 2
 213.333007812 38.6669921875 205.666992188 25.6669921875 193 15 c 0
 180.333007812 4.3330078125 166.333007812 -1 151 -1 c 0
 135.666992188 -1 123.5 4.3330078125 114.5 15 c 0
 105.5 25.6669921875 102.333007812 38.6669921875 105 54 c 2
282 617 m 2
 262.666992188 599 241 590 217 590 c 0
 193 590 181 597 181 611 c 0
 181 617.666992188 183.666992188 625 189 633 c 2
 246 721 l 2
 258 740.333007812 273.166992188 750 291.5 750 c 0
 309.833007812 750 326.833007812 745.833007812 342.5 737.5 c 0
 358.166992188 729.166992188 366 720.166992188 366 710.5 c 0
 366 700.833007812 360.333007812 691 349 681 c 2
 282 617 l 2
EndSplineSet
EndChar

StartChar: idieresis
Encoding: 239 239 137
Width: 249
Flags: MW
HStem: -1 21G<50.3335 65.6665> 590 130<76.3335 121.667>
LayerCount: 2
Fore
SplineSet
12 54 m 2
 85 464 l 2
 87.6669921875 479.333007812 95.3330078125 492.333007812 108 503 c 0
 120.666992188 513.666992188 134.666992188 519 150 519 c 0
 165.333007812 519 177.333007812 513.5 186 502.5 c 0
 194.666992188 491.5 197.666992188 478.666992188 195 464 c 2
 123 54 l 2
 120.333007812 38.6669921875 112.666992188 25.6669921875 100 15 c 0
 87.3330078125 4.3330078125 73.3330078125 -1 58 -1 c 0
 42.6669921875 -1 30.5 4.3330078125 21.5 15 c 0
 12.5 25.6669921875 9.3330078125 38.6669921875 12 54 c 2
311.5 720 m 0
 329.833007812 720 344 714.166992188 354 702.5 c 0
 364 690.833007812 367.333007812 676 364 658 c 0
 360.934570312 636.54296875 351.501953125 619.845703125 335.701171875 607.907226562 c 0
 319.900390625 595.96875 302.833007812 590 284.5 590 c 0
 266.166992188 590 251.833007812 595.666992188 241.5 607 c 0
 231.166992188 618.333007812 228 633 232 651 c 1
 235.145507812 673.016601562 244.59765625 690.020507812 260.358398438 702.01171875 c 0
 276.119140625 714.00390625 293.166992188 720 311.5 720 c 0
112.5 720 m 0
 130.833007812 720 145 714.166992188 155 702.5 c 0
 165 690.833007812 168.333007812 676 165 658 c 0
 161.934570312 636.54296875 152.501953125 619.845703125 136.701171875 607.907226562 c 0
 120.900390625 595.96875 103.833007812 590 85.5 590 c 0
 67.1669921875 590 52.8330078125 595.666992188 42.5 607 c 0
 32.1669921875 618.333007812 29 633 33 651 c 1
 36.1455078125 673.016601562 45.59765625 690.020507812 61.3583984375 702.01171875 c 0
 77.119140625 714.00390625 94.1669921875 720 112.5 720 c 0
EndSplineSet
EndChar

StartChar: ograve
Encoding: 242 242 139
Width: 640
Flags: MW
HStem: -2 106<265.333 299.333> 393 107<319.667 353> 590 160<387.333 483.667>
LayerCount: 2
Fore
SplineSet
169 425 m 1
 225.666992188 475 286.833007812 500 352.5 500 c 0
 418.166992188 500 471 475 511 425 c 1
 547.666992188 375.666992188 560 316.666992188 548 248 c 0
 536 179.333007812 502.666992188 121 448 73 c 1
 393.333007812 23 332.666992188 -2 266 -2 c 0
 199.333007812 -2 146.333007812 23 107 73 c 1
 70.3330078125 121.666992188 58 180 70 248 c 0
 82 316 115 375 169 425 c 1
442 249 m 0
 449.333007812 290.333007812 441.666992188 324.333007812 419 351 c 1
 399 379 371 393 335 393 c 0
 299 393 265.5 379.166992188 234.5 351.5 c 0
 203.5 323.833007812 184.166992188 289.5 176.5 248.5 c 0
 168.833007812 207.5 175.833007812 173.166992188 197.5 145.5 c 0
 219.166992188 117.833007812 247.666992188 104 283 104 c 0
 318.333007812 104 351.666992188 117.833007812 383 145.5 c 0
 414.333007812 173.166992188 434 207.666992188 442 249 c 0
508 611 m 0
 508 597 495.833007812 590 471.5 590 c 0
 447.166992188 590 425.666992188 599 407 617 c 2
 339 681 l 2
 327.666992188 691 322 700.833007812 322 710.5 c 0
 322 720.166992188 329.833007812 729.166992188 345.5 737.5 c 0
 361.166992188 745.833007812 378.166992188 750 396.5 750 c 0
 414.833007812 750 430 740.333007812 442 721 c 2
 499 633 l 2
 505 624.333007812 508 617 508 611 c 0
EndSplineSet
EndChar

StartChar: oacute
Encoding: 243 243 140
Width: 640
Flags: MW
HStem: -2 106<265.333 299.333> 393 107<319.667 353> 730 20G<343.333 361.667>
LayerCount: 2
Fore
SplineSet
169 425 m 1
 225.666992188 475 286.833007812 500 352.5 500 c 0
 418.166992188 500 471 475 511 425 c 1
 547.666992188 375.666992188 560 316.666992188 548 248 c 0
 536 179.333007812 502.666992188 121 448 73 c 1
 393.333007812 23 332.666992188 -2 266 -2 c 0
 199.333007812 -2 146.333007812 23 107 73 c 1
 70.3330078125 121.666992188 58 180 70 248 c 0
 82 316 115 375 169 425 c 1
442 249 m 0
 449.333007812 290.333007812 441.666992188 324.333007812 419 351 c 1
 399 379 371 393 335 393 c 0
 299 393 265.5 379.166992188 234.5 351.5 c 0
 203.5 323.833007812 184.166992188 289.5 176.5 248.5 c 0
 168.833007812 207.5 175.833007812 173.166992188 197.5 145.5 c 0
 219.166992188 117.833007812 247.666992188 104 283 104 c 0
 318.333007812 104 351.666992188 117.833007812 383 145.5 c 0
 414.333007812 173.166992188 434 207.666992188 442 249 c 0
343 617 m 2
 323.666992188 599 302 590 278 590 c 0
 254 590 242 597 242 611 c 0
 242 617.666992188 244.666992188 625 250 633 c 2
 307 721 l 2
 319 740.333007812 334.166992188 750 352.5 750 c 0
 370.833007812 750 387.833007812 745.833007812 403.5 737.5 c 0
 419.166992188 729.166992188 427 720.166992188 427 710.5 c 0
 427 700.833007812 421.333007812 691 410 681 c 2
 343 617 l 2
EndSplineSet
EndChar

StartChar: ocircumflex
Encoding: 244 244 141
Width: 640
Flags: MW
HStem: -2 106<265.333 299.333> 393 107<319.667 353> 590 156<290 486 450 552>
LayerCount: 2
Fore
SplineSet
169 425 m 1
 225.666992188 475 286.833007812 500 352.5 500 c 0
 418.166992188 500 471 475 511 425 c 1
 547.666992188 375.666992188 560 316.666992188 548 248 c 0
 536 179.333007812 502.666992188 121 448 73 c 1
 393.333007812 23 332.666992188 -2 266 -2 c 0
 199.333007812 -2 146.333007812 23 107 73 c 1
 70.3330078125 121.666992188 58 180 70 248 c 0
 82 316 115 375 169 425 c 1
442 249 m 0
 449.333007812 290.333007812 441.666992188 324.333007812 419 351 c 1
 399 379 371 393 335 393 c 0
 299 393 265.5 379.166992188 234.5 351.5 c 0
 203.5 323.833007812 184.166992188 289.5 176.5 248.5 c 0
 168.833007812 207.5 175.833007812 173.166992188 197.5 145.5 c 0
 219.166992188 117.833007812 247.666992188 104 283 104 c 0
 318.333007812 104 351.666992188 117.833007812 383 145.5 c 0
 414.333007812 173.166992188 434 207.666992188 442 249 c 0
442 662 m 1
 376 617 l 2
 350 599 322.666992188 590 294 590 c 0
 286 590 280 591.833007812 276 595.5 c 0
 272 599.166992188 270.833007812 603.666992188 272.5 609 c 0
 274.166992188 614.333007812 280.666992188 622.666992188 292 634 c 2
 383 717 l 2
 404.333007812 736.333007812 426.666992188 746 450 746 c 2
 486 746 l 2
 508.666992188 746 525 736.333007812 535 717 c 2
 576 634 l 2
 581.333007812 624 583 616 581 610 c 0
 577 596.666992188 563.5 590 540.5 590 c 0
 517.5 590 497.333007812 599 480 617 c 1
 442 662 l 1
EndSplineSet
EndChar

StartChar: otilde
Encoding: 245 245 142
Width: 640
Flags: W
HStem: -2 106<265.333 299.333> 393 107<319.667 353> 583 147<268.667 348.333> 595 95<487.667 494.667 479.667 510.333> 595 147<487.667 567.333> 635 55
LayerCount: 2
Fore
SplineSet
169 425 m 1xc0
 225.666992188 475 286.833007812 500 352.5 500 c 0
 418.166992188 500 471 475 511 425 c 1
 547.666992188 375.666992188 560 316.666992188 548 248 c 0
 536 179.333007812 502.666992188 121 448 73 c 1
 393.333007812 23 332.666992188 -2 266 -2 c 0
 199.333007812 -2 146.333007812 23 107 73 c 1
 70.3330078125 121.666992188 58 180 70 248 c 0
 82 316 115 375 169 425 c 1xc0
442 249 m 0
 449.333007812 290.333007812 441.666992188 324.333007812 419 351 c 1
 399 379 371 393 335 393 c 0
 299 393 265.5 379.166992188 234.5 351.5 c 0
 203.5 323.833007812 184.166992188 289.5 176.5 248.5 c 0
 168.833007812 207.5 175.833007812 173.166992188 197.5 145.5 c 0
 219.166992188 117.833007812 247.666992188 104 283 104 c 0
 318.333007812 104 351.666992188 117.833007812 383 145.5 c 0
 414.333007812 173.166992188 434 207.666992188 442 249 c 0
305 603 m 1
 296.333007812 589.666992188 286.166992188 583 274.5 583 c 0
 262.833007812 583 253.333007812 586.333007812 246 593 c 0
 238.666992188 599.666992188 235 606.666992188 235 614 c 0
 235 621.333007812 236.333007812 629.666992188 239 639 c 0
 250.333007812 669.666992188 263.833007812 692.5 279.5 707.5 c 0
 295.166992188 722.5 314.333007812 730 337 730 c 0xe0
 359.666992188 730 387.333007812 723.333007812 420 710 c 0
 452.666992188 696.666992188 474.333007812 690 485 690 c 0xd0
 504.333007812 690 519.666992188 700.666992188 531 722 c 1
 539.666992188 735.333007812 549.833007812 742 561.5 742 c 0xc8
 573.166992188 742 582.666992188 738.666992188 590 732 c 0
 597.333007812 725.333007812 601 718.333007812 601 711 c 0
 601 703.666992188 599.666992188 695.333007812 597 686 c 0
 585.666992188 655.333007812 572.166992188 632.5 556.5 617.5 c 0
 540.833007812 602.5 521.666992188 595 499 595 c 0xd0
 476.333007812 595 448.666992188 601.666992188 416 615 c 0
 383.333007812 628.333007812 361.666992188 635 351 635 c 0xc4
 331.666992188 635 316.333007812 624.333007812 305 603 c 1
EndSplineSet
EndChar

StartChar: odieresis
Encoding: 246 246 143
Width: 640
Flags: MW
HStem: -2 106<265.333 299.333> 393 107<319.667 353> 590 130<297.333 342.667>
LayerCount: 2
Fore
SplineSet
169 425 m 1
 225.666992188 475 286.833007812 500 352.5 500 c 0
 418.166992188 500 471 475 511 425 c 1
 547.666992188 375.666992188 560 316.666992188 548 248 c 0
 536 179.333007812 502.666992188 121 448 73 c 1
 393.333007812 23 332.666992188 -2 266 -2 c 0
 199.333007812 -2 146.333007812 23 107 73 c 1
 70.3330078125 121.666992188 58 180 70 248 c 0
 82 316 115 375 169 425 c 1
442 249 m 0
 449.333007812 290.333007812 441.666992188 324.333007812 419 351 c 1
 399 379 371 393 335 393 c 0
 299 393 265.5 379.166992188 234.5 351.5 c 0
 203.5 323.833007812 184.166992188 289.5 176.5 248.5 c 0
 168.833007812 207.5 175.833007812 173.166992188 197.5 145.5 c 0
 219.166992188 117.833007812 247.666992188 104 283 104 c 0
 318.333007812 104 351.666992188 117.833007812 383 145.5 c 0
 414.333007812 173.166992188 434 207.666992188 442 249 c 0
532.5 720 m 0
 550.833007812 720 565 714.166992188 575 702.5 c 0
 585 690.833007812 588.333007812 676 585 658 c 0
 581.934570312 636.54296875 572.501953125 619.845703125 556.701171875 607.907226562 c 0
 540.900390625 595.96875 523.833007812 590 505.5 590 c 0
 487.166992188 590 472.833007812 595.666992188 462.5 607 c 0
 452.166992188 618.333007812 449 633 453 651 c 1
 456.145507812 673.016601562 465.59765625 690.020507812 481.358398438 702.01171875 c 0
 497.119140625 714.00390625 514.166992188 720 532.5 720 c 0
333.5 720 m 0
 351.833007812 720 366 714.166992188 376 702.5 c 0
 386 690.833007812 389.333007812 676 386 658 c 0
 382.934570312 636.54296875 373.501953125 619.845703125 357.701171875 607.907226562 c 0
 341.900390625 595.96875 324.833007812 590 306.5 590 c 0
 288.166992188 590 273.833007812 595.666992188 263.5 607 c 0
 253.166992188 618.333007812 250 633 254 651 c 1
 257.145507812 673.016601562 266.59765625 690.020507812 282.358398438 702.01171875 c 0
 298.119140625 714.00390625 315.166992188 720 333.5 720 c 0
EndSplineSet
EndChar

StartChar: uacute
Encoding: 250 250 145
Width: 613
Flags: MW
HStem: 1 107<280.333 304.333> 730 20G<387.333 405.667>
LayerCount: 2
Fore
SplineSet
479 484.5 m 0
 491 494.833007812 504.5 500 519.5 500 c 0
 534.5 500 546 494.833007812 554 484.5 c 0
 562 474.166992188 564.666992188 461.666992188 562 447 c 2
 521 210 l 2
 511 152.666992188 482 103.5 434 62.5 c 0
 386 21.5 333.166992188 1 275.5 1 c 0
 217.833007812 1 172.166992188 21.5 138.5 62.5 c 0
 104.833007812 103.5 93.3330078125 152.666992188 104 210 c 2
 145 447 l 2
 147.666992188 461.666992188 155 474.166992188 167 484.5 c 0
 179 494.833007812 192.333007812 500 207 500 c 0
 221.666992188 500 233.333007812 495 242 485 c 0
 250.666992188 475 253.666992188 462.333007812 251 447 c 2
 209 210 l 2
 204.333007812 182 210.333007812 158 227 138 c 0
 243.666992188 118 266.166992188 108 294.5 108 c 0
 322.833007812 108 348.666992188 118 372 138 c 0
 395.333007812 158 409.666992188 182 415 210 c 2
 457 447 l 2
 459.666992188 461.666992188 467 474.166992188 479 484.5 c 0
387 617 m 2
 367.666992188 599 346 590 322 590 c 0
 298 590 286 597 286 611 c 0
 286 617.666992188 288.666992188 625 294 633 c 2
 351 721 l 2
 363 740.333007812 378.166992188 750 396.5 750 c 0
 414.833007812 750 431.833007812 745.833007812 447.5 737.5 c 0
 463.166992188 729.166992188 471 720.166992188 471 710.5 c 0
 471 700.833007812 465.333007812 691 454 681 c 2
 387 617 l 2
EndSplineSet
EndChar

StartChar: udieresis
Encoding: 252 252 147
Width: 613
Flags: MW
HStem: 1 107<280.333 304.333> 590 130<269.333 314.667>
LayerCount: 2
Fore
SplineSet
479 484.5 m 0
 491 494.833007812 504.5 500 519.5 500 c 0
 534.5 500 546 494.833007812 554 484.5 c 0
 562 474.166992188 564.666992188 461.666992188 562 447 c 2
 521 210 l 2
 511 152.666992188 482 103.5 434 62.5 c 0
 386 21.5 333.166992188 1 275.5 1 c 0
 217.833007812 1 172.166992188 21.5 138.5 62.5 c 0
 104.833007812 103.5 93.3330078125 152.666992188 104 210 c 2
 145 447 l 2
 147.666992188 461.666992188 155 474.166992188 167 484.5 c 0
 179 494.833007812 192.333007812 500 207 500 c 0
 221.666992188 500 233.333007812 495 242 485 c 0
 250.666992188 475 253.666992188 462.333007812 251 447 c 2
 209 210 l 2
 204.333007812 182 210.333007812 158 227 138 c 0
 243.666992188 118 266.166992188 108 294.5 108 c 0
 322.833007812 108 348.666992188 118 372 138 c 0
 395.333007812 158 409.666992188 182 415 210 c 2
 457 447 l 2
 459.666992188 461.666992188 467 474.166992188 479 484.5 c 0
504.5 720 m 0
 522.833007812 720 537 714.166992188 547 702.5 c 0
 557 690.833007812 560.333007812 676 557 658 c 0
 553.934570312 636.54296875 544.501953125 619.845703125 528.701171875 607.907226562 c 0
 512.900390625 595.96875 495.833007812 590 477.5 590 c 0
 459.166992188 590 444.833007812 595.666992188 434.5 607 c 0
 424.166992188 618.333007812 421 633 425 651 c 1
 428.145507812 673.016601562 437.59765625 690.020507812 453.358398438 702.01171875 c 0
 469.119140625 714.00390625 486.166992188 720 504.5 720 c 0
305.5 720 m 0
 323.833007812 720 338 714.166992188 348 702.5 c 0
 358 690.833007812 361.333007812 676 358 658 c 0
 354.934570312 636.54296875 345.501953125 619.845703125 329.701171875 607.907226562 c 0
 313.900390625 595.96875 296.833007812 590 278.5 590 c 0
 260.166992188 590 245.833007812 595.666992188 235.5 607 c 0
 225.166992188 618.333007812 222 633 226 651 c 1
 229.145507812 673.016601562 238.59765625 690.020507812 254.358398438 702.01171875 c 0
 270.119140625 714.00390625 287.166992188 720 305.5 720 c 0
EndSplineSet
EndChar

